CrimsonText-Roman-Bessst.ufo
<glyph name="exclam" format="1">
  <advance width="280"/>
  <unicode hex="0021"/>
  <outline>
    <contour>
      <point x="142" y="642" type="qcurve" smooth="yes"/>
      <point x="164" y="642"/>
      <point x="187" y="605"/>
      <point x="187" y="579" type="qcurve" smooth="yes"/>
      <point x="187" y="569"/>
      <point x="178" y="483"/>
      <point x="163" y="294"/>
      <point x="156" y="181" type="qcurve" smooth="yes"/>
      <point x="155" y="166"/>
      <point x="147" y="155"/>
      <point x="132" y="148" type="qcurve" smooth="yes"/>
      <point x="127" y="146"/>
      <point x="120" y="160"/>
      <point x="119" y="170" type="qcurve" smooth="yes"/>
      <point x="111" y="300"/>
      <point x="96" y="491"/>
      <point x="90" y="558"/>
      <point x="90" y="579" type="qcurve" smooth="yes"/>
      <point x="90" y="604"/>
      <point x="119" y="642"/>
    </contour>
    <contour>
      <point x="82" y="69"/>
      <point x="116" y="102"/>
      <point x="164" y="102"/>
      <point x="197" y="69"/>
      <point x="197" y="21"/>
      <point x="164" y="-14"/>
      <point x="116" y="-14"/>
      <point x="82" y="21"/>
    </contour>
  </outline>
</glyph>
<glyph name="quotedbl" format="1">
  <advance width="348"/>
  <unicode hex="0022"/>
  <outline>
    <contour>
      <point x="97" y="698" type="qcurve" smooth="yes"/>
      <point x="111" y="698" type="line" smooth="yes"/>
      <point x="126" y="698"/>
      <point x="141" y="673"/>
      <point x="141" y="633" type="qcurve" smooth="yes"/>
      <point x="141" y="603"/>
      <point x="113" y="479"/>
      <point x="110" y="449" type="qcurve" smooth="yes"/>
      <point x="108" y="434"/>
      <point x="94" y="434" type="qcurve" smooth="yes"/>
      <point x="78" y="434"/>
      <point x="76" y="447" type="qcurve" smooth="yes"/>
      <point x="71" y="494"/>
      <point x="42" y="616"/>
      <point x="42" y="635" type="qcurve" smooth="yes"/>
      <point x="42" y="650"/>
      <point x="79" y="698"/>
    </contour>
    <contour>
      <point x="260" y="698" type="qcurve" smooth="yes"/>
      <point x="275" y="698" type="line" smooth="yes"/>
      <point x="289" y="698"/>
      <point x="304" y="673"/>
      <point x="304" y="633" type="qcurve" smooth="yes"/>
      <point x="304" y="603"/>
      <point x="274" y="480"/>
      <point x="271" y="449" type="qcurve" smooth="yes"/>
      <point x="270" y="434"/>
      <point x="255" y="434" type="qcurve" smooth="yes"/>
      <point x="242" y="434"/>
      <point x="240" y="447" type="qcurve" smooth="yes"/>
      <point x="235" y="494"/>
      <point x="206" y="616"/>
      <point x="206" y="635" type="qcurve" smooth="yes"/>
      <point x="206" y="651"/>
      <point x="242" y="698"/>
    </contour>
  </outline>
</glyph>
<glyph name="numbersign" format="1">
  <advance width="476"/>
  <unicode hex="0023"/>
  <outline>
    <contour>
      <point x="301" y="24" type="line"/>
      <point x="298" y="20" type="line"/>
      <point x="292" y="15"/>
      <point x="271" y="15" type="qcurve" smooth="yes"/>
      <point x="258" y="15" type="line" smooth="yes"/>
      <point x="252" y="15"/>
      <point x="245" y="20"/>
      <point x="245" y="22" type="qcurve" smooth="yes"/>
      <point x="245" y="24" type="line"/>
      <point x="267" y="175" type="line"/>
      <point x="173" y="175" type="line"/>
      <point x="151" y="24" type="line" smooth="yes"/>
      <point x="151" y="23"/>
      <point x="150" y="22" type="qcurve" smooth="yes"/>
      <point x="149" y="21"/>
      <point x="148" y="19"/>
      <point x="145" y="18"/>
      <point x="140" y="17"/>
      <point x="134" y="16"/>
      <point x="125" y="15"/>
      <point x="120" y="15" type="qcurve" smooth="yes"/>
      <point x="107" y="15" type="line" smooth="yes"/>
      <point x="101" y="15"/>
      <point x="94" y="20"/>
      <point x="94" y="22" type="qcurve" smooth="yes"/>
      <point x="93" y="24" type="line"/>
      <point x="116" y="175" type="line"/>
      <point x="30" y="175" type="line" smooth="yes"/>
      <point x="24" y="175"/>
      <point x="24" y="185" type="qcurve" smooth="yes"/>
      <point x="24" y="199"/>
      <point x="32" y="226" type="qcurve" smooth="yes"/>
      <point x="33" y="229"/>
      <point x="36" y="231"/>
      <point x="38" y="231" type="qcurve" smooth="yes"/>
      <point x="39" y="231" type="line"/>
      <point x="125" y="231" type="line"/>
      <point x="137" y="317" type="line"/>
      <point x="30" y="317" type="line"/>
      <point x="24" y="318"/>
      <point x="24" y="328" type="qcurve" smooth="yes"/>
      <point x="24" y="342"/>
      <point x="32" y="369" type="qcurve" smooth="yes"/>
      <point x="33" y="372"/>
      <point x="36" y="374"/>
      <point x="38" y="374" type="qcurve" smooth="yes"/>
      <point x="39" y="374" type="line"/>
      <point x="146" y="374" type="line"/>
      <point x="170" y="530" type="line"/>
      <point x="179" y="539"/>
      <point x="217" y="539" type="qcurve" smooth="yes"/>
      <point x="223" y="539"/>
      <point x="228" y="534"/>
      <point x="228" y="532" type="qcurve" smooth="yes"/>
      <point x="227" y="530" type="line"/>
      <point x="204" y="374" type="line"/>
      <point x="298" y="374" type="line"/>
      <point x="322" y="530" type="line"/>
      <point x="331" y="539"/>
      <point x="369" y="539" type="qcurve" smooth="yes"/>
      <point x="375" y="539"/>
      <point x="380" y="534"/>
      <point x="380" y="532" type="qcurve" smooth="yes"/>
      <point x="379" y="530" type="line"/>
      <point x="355" y="374" type="line"/>
      <point x="437" y="374" type="line" smooth="yes"/>
      <point x="438" y="374"/>
      <point x="440" y="375"/>
      <point x="444" y="371"/>
      <point x="444" y="367" type="qcurve" smooth="yes"/>
      <point x="444" y="353"/>
      <point x="435" y="324" type="qcurve"/>
      <point x="429" y="317" type="line"/>
      <point x="346" y="317" type="line"/>
      <point x="333" y="231" type="line"/>
      <point x="437" y="231" type="line" smooth="yes"/>
      <point x="438" y="231"/>
      <point x="440" y="232"/>
      <point x="444" y="228"/>
      <point x="444" y="224" type="qcurve" smooth="yes"/>
      <point x="444" y="210"/>
      <point x="435" y="181" type="qcurve" smooth="yes"/>
      <point x="434" y="178"/>
      <point x="431" y="175"/>
      <point x="430" y="175" type="qcurve" smooth="yes"/>
      <point x="429" y="175" type="line"/>
      <point x="325" y="175" type="line"/>
    </contour>
    <contour>
      <point x="277" y="231" type="line"/>
      <point x="289" y="317" type="line"/>
      <point x="195" y="317" type="line"/>
      <point x="182" y="231" type="line"/>
    </contour>
  </outline>
</glyph>
<glyph name="dollar" format="1">
  <advance width="491"/>
  <unicode hex="0024"/>
  <outline>
    <contour>
      <point x="284" y="683" type="line"/>
      <point x="319" y="683"/>
      <point x="319" y="676" type="qcurve"/>
      <point x="199" y="-52" type="line"/>
      <point x="164" y="-52"/>
      <point x="164" y="-43" type="qcurve"/>
    </contour>
    <contour>
      <point x="245" y="644" type="qcurve" smooth="yes"/>
      <point x="268" y="644"/>
      <point x="326" y="635"/>
      <point x="384" y="622"/>
      <point x="390" y="621" type="qcurve"/>
      <point x="401" y="531"/>
      <point x="401" y="484" type="qcurve" smooth="yes"/>
      <point x="401" y="476"/>
      <point x="394" y="476" type="qcurve" smooth="yes"/>
      <point x="369" y="478"/>
      <point x="368" y="487" type="qcurve" smooth="yes"/>
      <point x="363" y="522"/>
      <point x="294" y="602"/>
      <point x="240" y="602" type="qcurve" smooth="yes"/>
      <point x="131" y="602"/>
      <point x="131" y="505" type="qcurve" smooth="yes"/>
      <point x="131" y="459"/>
      <point x="190" y="401"/>
      <point x="252" y="366" type="qcurve" smooth="yes"/>
      <point x="257" y="363"/>
      <point x="312" y="332"/>
      <point x="327" y="323"/>
      <point x="374" y="293"/>
      <point x="390" y="277"/>
      <point x="422" y="246"/>
      <point x="434" y="221"/>
      <point x="445" y="188"/>
      <point x="445" y="170" type="qcurve" smooth="yes"/>
      <point x="445" y="93"/>
      <point x="323" y="-8"/>
      <point x="241" y="-8" type="qcurve" smooth="yes"/>
      <point x="201" y="-8"/>
      <point x="73" y="15" type="qcurve"/>
      <point x="49" y="79"/>
      <point x="45" y="166" type="qcurve" smooth="yes"/>
      <point x="45" y="174"/>
      <point x="63" y="174" type="qcurve" smooth="yes"/>
      <point x="77" y="174"/>
      <point x="85" y="166" type="qcurve"/>
      <point x="121" y="31"/>
      <point x="243" y="31" type="qcurve" smooth="yes"/>
      <point x="292" y="31"/>
      <point x="362" y="89"/>
      <point x="362" y="141" type="qcurve" smooth="yes"/>
      <point x="362" y="162"/>
      <point x="347" y="198"/>
      <point x="335" y="218"/>
      <point x="296" y="246"/>
      <point x="286" y="252"/>
      <point x="262" y="264" type="qcurve" smooth="yes"/>
      <point x="256" y="267"/>
      <point x="253" y="269" type="qcurve" smooth="yes"/>
      <point x="151" y="322"/>
      <point x="55" y="408"/>
      <point x="55" y="473" type="qcurve" smooth="yes"/>
      <point x="55" y="546"/>
      <point x="169" y="644"/>
    </contour>
  </outline>
</glyph>
<glyph name="percent" format="1">
  <advance width="680"/>
  <unicode hex="0025"/>
  <outline>
    <contour>
      <point x="195" y="621" type="qcurve" smooth="yes"/>
      <point x="154" y="621"/>
      <point x="113" y="546"/>
      <point x="113" y="496" type="qcurve" smooth="yes"/>
      <point x="113" y="442"/>
      <point x="169" y="350"/>
      <point x="205" y="350" type="qcurve" smooth="yes"/>
      <point x="245" y="350"/>
      <point x="280" y="424"/>
      <point x="280" y="476" type="qcurve" smooth="yes"/>
      <point x="280" y="531"/>
      <point x="233" y="621"/>
    </contour>
    <contour>
      <point x="199" y="645" type="qcurve" smooth="yes"/>
      <point x="263" y="645"/>
      <point x="346" y="551"/>
      <point x="346" y="484" type="qcurve" smooth="yes"/>
      <point x="346" y="421"/>
      <point x="264" y="325"/>
      <point x="199" y="325" type="qcurve" smooth="yes"/>
      <point x="137" y="325"/>
      <point x="49" y="418"/>
      <point x="49" y="484" type="qcurve" smooth="yes"/>
      <point x="49" y="552"/>
      <point x="133" y="645"/>
    </contour>
    <contour>
      <point x="484" y="289" type="qcurve" smooth="yes"/>
      <point x="443" y="289"/>
      <point x="401" y="214"/>
      <point x="401" y="164" type="qcurve" smooth="yes"/>
      <point x="401" y="111"/>
      <point x="457" y="18"/>
      <point x="494" y="18" type="qcurve" smooth="yes"/>
      <point x="534" y="18"/>
      <point x="568" y="92"/>
      <point x="568" y="144" type="qcurve" smooth="yes"/>
      <point x="568" y="199"/>
      <point x="521" y="289"/>
    </contour>
    <contour>
      <point x="488" y="313" type="qcurve" smooth="yes"/>
      <point x="552" y="313"/>
      <point x="634" y="219"/>
      <point x="634" y="152" type="qcurve" smooth="yes"/>
      <point x="634" y="88"/>
      <point x="553" y="-7"/>
      <point x="487" y="-7" type="qcurve" smooth="yes"/>
      <point x="425" y="-7"/>
      <point x="337" y="86"/>
      <point x="337" y="152" type="qcurve" smooth="yes"/>
      <point x="337" y="220"/>
      <point x="422" y="313"/>
    </contour>
    <contour>
      <point x="607" y="624" type="qcurve"/>
      <point x="124" y="0" type="line" smooth="yes"/>
      <point x="114" y="-12"/>
      <point x="91" y="-12" type="qcurve" smooth="yes"/>
      <point x="78" y="-12"/>
      <point x="73" y="-1" type="qcurve"/>
      <point x="555" y="624" type="line" smooth="yes"/>
      <point x="565" y="636"/>
      <point x="575" y="636" type="qcurve" smooth="yes"/>
      <point x="586" y="636"/>
      <point x="597" y="634"/>
      <point x="600" y="633"/>
      <point x="605" y="626"/>
    </contour>
  </outline>
</glyph>
<glyph name="ampersand" format="1">
  <advance width="671"/>
  <unicode hex="0026"/>
  <outline>
    <contour>
      <point x="407" y="95" type="qcurve"/>
      <point x="378" y="124"/>
      <point x="296" y="234"/>
      <point x="270" y="274" type="qcurve" smooth="yes"/>
      <point x="243" y="314" type="line"/>
      <point x="207" y="289"/>
      <point x="173" y="262"/>
      <point x="140" y="206"/>
      <point x="140" y="172" type="qcurve" smooth="yes"/>
      <point x="140" y="106"/>
      <point x="222" y="40"/>
      <point x="282" y="40" type="qcurve" smooth="yes"/>
      <point x="313" y="40"/>
      <point x="384" y="70"/>
    </contour>
    <contour>
      <point x="314" y="620" type="qcurve" smooth="yes"/>
      <point x="281" y="620"/>
      <point x="235" y="577"/>
      <point x="235" y="543" type="qcurve" smooth="yes"/>
      <point x="235" y="479"/>
      <point x="287" y="385" type="qcurve"/>
      <point x="339" y="415"/>
      <point x="386" y="476"/>
      <point x="386" y="530" type="qcurve" smooth="yes"/>
      <point x="386" y="566"/>
      <point x="346" y="620"/>
    </contour>
    <contour>
      <point x="309" y="656" type="qcurve" smooth="yes"/>
      <point x="376" y="656"/>
      <point x="454" y="597"/>
      <point x="454" y="544" type="qcurve" smooth="yes"/>
      <point x="454" y="483"/>
      <point x="376" y="397"/>
      <point x="305" y="353" type="qcurve"/>
      <point x="363" y="255"/>
      <point x="453" y="154" type="qcurve"/>
      <point x="478" y="192"/>
      <point x="510" y="262"/>
      <point x="510" y="280"/>
      <point x="491" y="287"/>
      <point x="467" y="288"/>
      <point x="465" y="289" type="qcurve"/>
      <point x="463" y="293"/>
      <point x="463" y="309"/>
      <point x="466" y="312" type="qcurve"/>
      <point x="545" y="312" type="line" smooth="yes"/>
      <point x="560" y="312"/>
      <point x="593" y="314"/>
      <point x="638" y="316"/>
      <point x="655" y="317" type="qcurve"/>
      <point x="660" y="314"/>
      <point x="660" y="304" type="qcurve" smooth="yes"/>
      <point x="660" y="289"/>
      <point x="654" y="289" type="qcurve" smooth="yes"/>
      <point x="641" y="289"/>
      <point x="593" y="277"/>
      <point x="585" y="272" type="qcurve" smooth="yes"/>
      <point x="584" y="271"/>
      <point x="558" y="228"/>
      <point x="508" y="154"/>
      <point x="481" y="123" type="qcurve"/>
      <point x="504" y="99"/>
      <point x="522" y="81"/>
      <point x="552" y="54"/>
      <point x="570" y="45"/>
      <point x="579" y="45" type="qcurve" smooth="yes"/>
      <point x="593" y="45"/>
      <point x="626" y="79"/>
      <point x="631" y="91" type="qcurve"/>
      <point x="639" y="91"/>
      <point x="654" y="79"/>
      <point x="654" y="73" type="qcurve"/>
      <point x="650" y="65"/>
      <point x="640" y="49"/>
      <point x="615" y="19"/>
      <point x="572" y="0"/>
      <point x="545" y="0" type="qcurve" smooth="yes"/>
      <point x="519" y="0"/>
      <point x="461" y="36"/>
      <point x="446" y="54" type="qcurve" smooth="yes"/>
      <point x="430" y="72" type="line"/>
      <point x="344" y="-3"/>
      <point x="248" y="-3" type="qcurve" smooth="yes"/>
      <point x="159" y="-3"/>
      <point x="54" y="83"/>
      <point x="54" y="158" type="qcurve" smooth="yes"/>
      <point x="54" y="223"/>
      <point x="142" y="310"/>
      <point x="220" y="350" type="qcurve"/>
      <point x="201" y="382"/>
      <point x="182" y="421"/>
      <point x="162" y="487"/>
      <point x="162" y="519" type="qcurve" smooth="yes"/>
      <point x="162" y="576"/>
      <point x="246" y="656"/>
    </contour>
  </outline>
</glyph>
<glyph name="quotesingle" format="1">
  <advance width="186"/>
  <unicode hex="0027"/>
  <outline>
    <contour>
      <point x="96" y="698" type="qcurve" smooth="yes"/>
      <point x="111" y="698" type="line" smooth="yes"/>
      <point x="126" y="698"/>
      <point x="141" y="673"/>
      <point x="141" y="633" type="qcurve" smooth="yes"/>
      <point x="141" y="603"/>
      <point x="110" y="480"/>
      <point x="107" y="449" type="qcurve" smooth="yes"/>
      <point x="106" y="434"/>
      <point x="91" y="434" type="qcurve" smooth="yes"/>
      <point x="78" y="434"/>
      <point x="76" y="447" type="qcurve" smooth="yes"/>
      <point x="71" y="494"/>
      <point x="42" y="616"/>
      <point x="42" y="635" type="qcurve" smooth="yes"/>
      <point x="42" y="651"/>
      <point x="78" y="698"/>
    </contour>
  </outline>
</glyph>
<glyph name="parenleft" format="1">
  <advance width="323"/>
  <unicode hex="0028"/>
  <outline>
    <contour>
      <point x="136" y="305" type="qcurve" smooth="yes"/>
      <point x="136" y="164"/>
      <point x="237" y="-76"/>
      <point x="275" y="-95" type="qcurve" smooth="yes"/>
      <point x="277" y="-96"/>
      <point x="277" y="-100" type="qcurve" smooth="yes"/>
      <point x="277" y="-106"/>
      <point x="268" y="-121"/>
      <point x="263" y="-121" type="qcurve" smooth="yes"/>
      <point x="242" y="-121"/>
      <point x="178" y="-53"/>
      <point x="115" y="56"/>
      <point x="71" y="221"/>
      <point x="71" y="305" type="qcurve" smooth="yes"/>
      <point x="71" y="394"/>
      <point x="112" y="564"/>
      <point x="171" y="678"/>
      <point x="237" y="748"/>
      <point x="263" y="748" type="qcurve" smooth="yes"/>
      <point x="268" y="748"/>
      <point x="276" y="730"/>
      <point x="276" y="724" type="qcurve" smooth="yes"/>
      <point x="276" y="721"/>
      <point x="275" y="721" type="qcurve" smooth="yes"/>
      <point x="225" y="697"/>
      <point x="136" y="450"/>
    </contour>
  </outline>
</glyph>
<glyph name="parenright" format="1">
  <advance width="322"/>
  <unicode hex="0029"/>
  <outline>
    <contour>
      <point x="186" y="305" type="qcurve" smooth="yes"/>
      <point x="186" y="450"/>
      <point x="97" y="697"/>
      <point x="47" y="721" type="qcurve" smooth="yes"/>
      <point x="46" y="721"/>
      <point x="46" y="724" type="qcurve" smooth="yes"/>
      <point x="46" y="730"/>
      <point x="54" y="748"/>
      <point x="59" y="748" type="qcurve" smooth="yes"/>
      <point x="85" y="748"/>
      <point x="151" y="678"/>
      <point x="210" y="564"/>
      <point x="251" y="394"/>
      <point x="251" y="305" type="qcurve" smooth="yes"/>
      <point x="251" y="221"/>
      <point x="207" y="56"/>
      <point x="144" y="-53"/>
      <point x="80" y="-121"/>
      <point x="59" y="-121" type="qcurve" smooth="yes"/>
      <point x="54" y="-121"/>
      <point x="45" y="-106"/>
      <point x="45" y="-100" type="qcurve" smooth="yes"/>
      <point x="45" y="-96"/>
      <point x="47" y="-95" type="qcurve" smooth="yes"/>
      <point x="85" y="-76"/>
      <point x="186" y="164"/>
    </contour>
  </outline>
</glyph>
<glyph name="asterisk" format="1">
  <advance width="444"/>
  <unicode hex="002A"/>
  <outline>
    <contour>
      <point x="307" y="613" type="qcurve" smooth="yes"/>
      <point x="320" y="628"/>
      <point x="351" y="636"/>
      <point x="363" y="625" type="qcurve" smooth="yes"/>
      <point x="375" y="613"/>
      <point x="371" y="582"/>
      <point x="357" y="569" type="qcurve" smooth="yes"/>
      <point x="339" y="553"/>
      <point x="274" y="518"/>
      <point x="260" y="505" type="qcurve"/>
      <point x="255" y="491" type="line"/>
      <point x="256" y="484"/>
      <point x="265" y="481" type="qcurve"/>
      <point x="281" y="473"/>
      <point x="349" y="461"/>
      <point x="372" y="451" type="qcurve" smooth="yes"/>
      <point x="390" y="443"/>
      <point x="408" y="416"/>
      <point x="401" y="402" type="qcurve" smooth="yes"/>
      <point x="394" y="387"/>
      <point x="362" y="381"/>
      <point x="346" y="390" type="qcurve" smooth="yes"/>
      <point x="324" y="402"/>
      <point x="271" y="453"/>
      <point x="255" y="462" type="qcurve"/>
      <point x="241" y="465" type="line"/>
      <point x="237" y="463"/>
      <point x="235" y="452" type="qcurve" smooth="yes"/>
      <point x="233" y="434"/>
      <point x="242" y="366"/>
      <point x="239" y="341" type="qcurve" smooth="yes"/>
      <point x="237" y="321"/>
      <point x="216" y="297"/>
      <point x="201" y="299" type="qcurve" smooth="yes"/>
      <point x="185" y="301"/>
      <point x="169" y="328"/>
      <point x="173" y="347" type="qcurve" smooth="yes"/>
      <point x="178" y="372"/>
      <point x="211" y="439"/>
      <point x="214" y="457" type="qcurve" smooth="yes"/>
      <point x="215" y="466"/>
      <point x="211" y="470" type="qcurve" smooth="yes"/>
      <point x="207" y="475"/>
      <point x="198" y="473" type="qcurve" smooth="yes"/>
      <point x="181" y="469"/>
      <point x="119" y="439"/>
      <point x="93" y="434" type="qcurve" smooth="yes"/>
      <point x="74" y="430"/>
      <point x="43" y="442"/>
      <point x="41" y="457" type="qcurve" smooth="yes"/>
      <point x="38" y="473"/>
      <point x="60" y="497"/>
      <point x="79" y="499" type="qcurve" smooth="yes"/>
      <point x="104" y="502"/>
      <point x="177" y="492"/>
      <point x="195" y="494" type="qcurve"/>
      <point x="204" y="497"/>
      <point x="206" y="502" type="qcurve" smooth="yes"/>
      <point x="209" y="508"/>
      <point x="204" y="516" type="qcurve" smooth="yes"/>
      <point x="195" y="531"/>
      <point x="148" y="582"/>
      <point x="135" y="604" type="qcurve" smooth="yes"/>
      <point x="113" y="644"/>
      <point x="141" y="660" type="qcurve"/>
      <point x="173" y="676"/>
      <point x="192" y="637" type="qcurve"/>
      <point x="202" y="614"/>
      <point x="215" y="542"/>
      <point x="223" y="525" type="qcurve" smooth="yes"/>
      <point x="228" y="515"/>
      <point x="233" y="514" type="qcurve" smooth="yes"/>
      <point x="239" y="513"/>
      <point x="246" y="520" type="qcurve" smooth="yes"/>
      <point x="258" y="533"/>
      <point x="290" y="594"/>
    </contour>
  </outline>
</glyph>
<glyph name="plus" format="1">
  <advance width="582"/>
  <unicode hex="002B"/>
  <outline>
    <contour>
      <point x="319" y="215" type="qcurve" smooth="yes"/>
      <point x="319" y="23" type="line" smooth="yes"/>
      <point x="319" y="13"/>
      <point x="274" y="7" type="qcurve" smooth="yes"/>
      <point x="272" y="7"/>
      <point x="269" y="6"/>
      <point x="268" y="6" type="qcurve" smooth="yes"/>
      <point x="263" y="6"/>
      <point x="263" y="14" type="qcurve" smooth="yes"/>
      <point x="263" y="213" type="line" smooth="yes"/>
      <point x="263" y="218"/>
      <point x="257" y="218" type="qcurve" smooth="yes"/>
      <point x="58" y="218" type="line" smooth="yes"/>
      <point x="52" y="218"/>
      <point x="52" y="228" type="qcurve" smooth="yes"/>
      <point x="52" y="242"/>
      <point x="60" y="269" type="qcurve" smooth="yes"/>
      <point x="61" y="272"/>
      <point x="64" y="274"/>
      <point x="66" y="274" type="qcurve" smooth="yes"/>
      <point x="67" y="274" type="line"/>
      <point x="258" y="274" type="line" smooth="yes"/>
      <point x="263" y="274"/>
      <point x="263" y="280" type="qcurve" smooth="yes"/>
      <point x="263" y="470" type="line"/>
      <point x="262" y="475"/>
      <point x="268" y="477" type="qcurve" smooth="yes"/>
      <point x="295" y="485"/>
      <point x="309" y="485" type="qcurve"/>
      <point x="319" y="479" type="line"/>
      <point x="319" y="279" type="line" smooth="yes"/>
      <point x="319" y="274"/>
      <point x="323" y="274" type="qcurve" smooth="yes"/>
      <point x="523" y="274" type="line" smooth="yes"/>
      <point x="531" y="274"/>
      <point x="531" y="269" type="qcurve" smooth="yes"/>
      <point x="531" y="261"/>
      <point x="521" y="224" type="qcurve" smooth="yes"/>
      <point x="520" y="221"/>
      <point x="517" y="218"/>
      <point x="516" y="218" type="qcurve" smooth="yes"/>
      <point x="514" y="218" type="line"/>
      <point x="323" y="218" type="line" smooth="yes"/>
      <point x="319" y="218"/>
    </contour>
  </outline>
</glyph>
<glyph name="comma" format="1">
  <advance width="239"/>
  <unicode hex="002C"/>
  <outline>
    <contour>
      <point x="118" y="-14" type="qcurve" smooth="yes"/>
      <point x="118" y="4"/>
      <point x="88" y="66"/>
      <point x="88" y="76" type="qcurve" smooth="yes"/>
      <point x="88" y="98"/>
      <point x="132" y="129"/>
      <point x="160" y="129" type="qcurve" smooth="yes"/>
      <point x="173" y="129"/>
      <point x="184" y="125" type="qcurve"/>
      <point x="197" y="106"/>
      <point x="197" y="61" type="qcurve" smooth="yes"/>
      <point x="197" y="42"/>
      <point x="195" y="35" type="qcurve" smooth="yes"/>
      <point x="181" y="-30"/>
      <point x="131" y="-111"/>
      <point x="68" y="-163" type="qcurve"/>
      <point x="67" y="-163" type="line" smooth="yes"/>
      <point x="63" y="-163"/>
      <point x="44" y="-147"/>
      <point x="44" y="-141" type="qcurve" smooth="yes"/>
      <point x="44" y="-139"/>
      <point x="67" y="-118"/>
      <point x="95" y="-90"/>
      <point x="118" y="-40"/>
    </contour>
  </outline>
</glyph>
<glyph name="hyphen" format="1">
  <advance width="375"/>
  <unicode hex="002D"/>
  <outline>
    <contour>
      <point x="58" y="210" type="qcurve" smooth="yes"/>
      <point x="58" y="261"/>
      <point x="70" y="261" type="qcurve" smooth="yes"/>
      <point x="71" y="261" type="line"/>
      <point x="312" y="273" type="line"/>
      <point x="313" y="273" type="line" smooth="yes"/>
      <point x="319" y="273"/>
      <point x="319" y="264" type="qcurve" smooth="yes"/>
      <point x="319" y="242"/>
      <point x="312" y="215"/>
      <point x="309" y="212" type="qcurve" smooth="yes"/>
      <point x="306" y="210" type="line"/>
      <point x="65" y="199" type="line" smooth="yes"/>
      <point x="62" y="199"/>
      <point x="58" y="205"/>
    </contour>
  </outline>
</glyph>
<glyph name="period" format="1">
  <advance width="233"/>
  <unicode hex="002E"/>
  <outline>
    <contour>
      <point x="59" y="69"/>
      <point x="94" y="102"/>
      <point x="142" y="102"/>
      <point x="175" y="69"/>
      <point x="175" y="21"/>
      <point x="142" y="-14"/>
      <point x="94" y="-14"/>
      <point x="59" y="21"/>
    </contour>
  </outline>
</glyph>
<glyph name="slash" format="1">
  <advance width="424"/>
  <unicode hex="002F"/>
  <outline>
    <contour>
      <point x="391" y="755" type="qcurve"/>
      <point x="95" y="-12" type="line" smooth="yes"/>
      <point x="93" y="-19"/>
      <point x="66" y="-35"/>
      <point x="43" y="-35" type="qcurve" smooth="yes"/>
      <point x="36" y="-35"/>
      <point x="27" y="-32"/>
      <point x="26" y="-30" type="qcurve" smooth="yes"/>
      <point x="25" y="-28" type="line"/>
      <point x="321" y="739" type="line"/>
      <point x="331" y="761"/>
      <point x="370" y="761" type="qcurve" smooth="yes"/>
      <point x="379" y="761"/>
    </contour>
  </outline>
</glyph>
<glyph name="zero" format="1">
  <advance width="484"/>
  <unicode hex="0030"/>
  <outline>
    <contour>
      <point x="112" y="320" type="qcurve" smooth="yes"/>
      <point x="112" y="200"/>
      <point x="182" y="35"/>
      <point x="237" y="35" type="qcurve" smooth="yes"/>
      <point x="301" y="35"/>
      <point x="372" y="201"/>
      <point x="372" y="325" type="qcurve" smooth="yes"/>
      <point x="372" y="444"/>
      <point x="302" y="603"/>
      <point x="247" y="603" type="qcurve" smooth="yes"/>
      <point x="186" y="603"/>
      <point x="112" y="441"/>
    </contour>
    <contour>
      <point x="24" y="319" type="qcurve" smooth="yes"/>
      <point x="24" y="455"/>
      <point x="142" y="641"/>
      <point x="242" y="641" type="qcurve" smooth="yes"/>
      <point x="343" y="641"/>
      <point x="460" y="456"/>
      <point x="460" y="319" type="qcurve" smooth="yes"/>
      <point x="460" y="183"/>
      <point x="342" y="-3"/>
      <point x="242" y="-3" type="qcurve" smooth="yes"/>
      <point x="143" y="-3"/>
      <point x="24" y="184"/>
    </contour>
  </outline>
</glyph>
<glyph name="one" format="1">
  <advance width="484"/>
  <unicode hex="0031"/>
  <outline>
    <contour>
      <point x="131" y="496" type="line"/>
      <point x="125" y="499"/>
      <point x="113" y="516"/>
      <point x="113" y="521" type="qcurve" smooth="yes"/>
      <point x="113" y="525"/>
      <point x="115" y="527" type="qcurve" smooth="yes"/>
      <point x="284" y="642"/>
      <point x="288" y="642" type="qcurve" smooth="yes"/>
      <point x="290" y="642" type="line" smooth="yes"/>
      <point x="298" y="642"/>
      <point x="302" y="623" type="qcurve"/>
      <point x="292" y="590"/>
      <point x="292" y="529" type="qcurve" smooth="yes"/>
      <point x="292" y="135" type="line" smooth="yes"/>
      <point x="292" y="77"/>
      <point x="300" y="46" type="qcurve" smooth="yes"/>
      <point x="302" y="39"/>
      <point x="357" y="26"/>
      <point x="367" y="26" type="qcurve" smooth="yes"/>
      <point x="371" y="26"/>
      <point x="371" y="8" type="qcurve" smooth="yes"/>
      <point x="371" y="-1"/>
      <point x="370" y="-3" type="qcurve"/>
      <point x="270" y="2"/>
      <point x="249" y="2" type="qcurve" smooth="yes"/>
      <point x="233" y="2"/>
      <point x="133" y="-3" type="qcurve"/>
      <point x="129" y="1"/>
      <point x="129" y="26"/>
      <point x="133" y="26" type="qcurve" smooth="yes"/>
      <point x="146" y="26"/>
      <point x="201" y="39"/>
      <point x="203" y="46" type="qcurve" smooth="yes"/>
      <point x="209" y="70"/>
      <point x="209" y="103" type="qcurve" smooth="yes"/>
      <point x="209" y="463" type="line" smooth="yes"/>
      <point x="209" y="492"/>
      <point x="205" y="522"/>
      <point x="200" y="529"/>
      <point x="195" y="529" type="qcurve" smooth="yes"/>
      <point x="189" y="529"/>
      <point x="166" y="517"/>
    </contour>
  </outline>
</glyph>
<glyph name="two" format="1">
  <advance width="484"/>
  <unicode hex="0032"/>
  <outline>
    <contour>
      <point x="256" y="642" type="qcurve" smooth="yes"/>
      <point x="323" y="642"/>
      <point x="400" y="542"/>
      <point x="400" y="479" type="qcurve" smooth="yes"/>
      <point x="400" y="442"/>
      <point x="375" y="363"/>
      <point x="322" y="281"/>
      <point x="279" y="220"/>
      <point x="203" y="140"/>
      <point x="174" y="110"/>
      <point x="142" y="79" type="qcurve"/>
      <point x="139" y="74"/>
      <point x="144" y="72" type="qcurve"/>
      <point x="337" y="72" type="line" smooth="yes"/>
      <point x="365" y="72"/>
      <point x="390" y="104"/>
      <point x="403" y="149" type="qcurve" smooth="yes"/>
      <point x="407" y="160"/>
      <point x="417" y="160" type="qcurve" smooth="yes"/>
      <point x="430" y="160"/>
      <point x="435" y="156" type="qcurve"/>
      <point x="411" y="36"/>
      <point x="408" y="16" type="qcurve" smooth="yes"/>
      <point x="406" y="0"/>
      <point x="388" y="0" type="qcurve" smooth="yes"/>
      <point x="60" y="0" type="line" smooth="yes"/>
      <point x="56" y="0"/>
      <point x="49" y="23"/>
      <point x="49" y="30" type="qcurve"/>
      <point x="158" y="140"/>
      <point x="314" y="377"/>
      <point x="314" y="459" type="qcurve" smooth="yes"/>
      <point x="314" y="513"/>
      <point x="260" y="572"/>
      <point x="216" y="572" type="qcurve" smooth="yes"/>
      <point x="133" y="572"/>
      <point x="83" y="489" type="qcurve"/>
      <point x="77" y="489"/>
      <point x="64" y="502"/>
      <point x="64" y="505" type="qcurve" smooth="yes"/>
      <point x="67" y="517"/>
      <point x="94" y="558"/>
      <point x="139" y="607"/>
      <point x="214" y="642"/>
    </contour>
  </outline>
</glyph>
<glyph name="three" format="1">
  <advance width="485"/>
  <unicode hex="0033"/>
  <outline>
    <contour>
      <point x="250" y="642" type="qcurve" smooth="yes"/>
      <point x="293" y="642"/>
      <point x="372" y="571"/>
      <point x="372" y="514" type="qcurve" smooth="yes"/>
      <point x="372" y="470"/>
      <point x="329" y="409"/>
      <point x="289" y="379" type="qcurve"/>
      <point x="342" y="360"/>
      <point x="429" y="272"/>
      <point x="429" y="206" type="qcurve" smooth="yes"/>
      <point x="429" y="111"/>
      <point x="295" y="-5"/>
      <point x="196" y="-5" type="qcurve" smooth="yes"/>
      <point x="111" y="-5"/>
      <point x="66" y="25" type="qcurve" smooth="yes"/>
      <point x="56" y="32"/>
      <point x="56" y="54" type="qcurve" smooth="yes"/>
      <point x="56" y="101"/>
      <point x="93" y="101" type="qcurve" smooth="yes"/>
      <point x="102" y="101"/>
      <point x="121" y="86"/>
      <point x="144" y="62"/>
      <point x="152" y="56" type="qcurve" smooth="yes"/>
      <point x="181" y="35"/>
      <point x="228" y="35" type="qcurve" smooth="yes"/>
      <point x="272" y="35"/>
      <point x="343" y="104"/>
      <point x="343" y="180" type="qcurve" smooth="yes"/>
      <point x="343" y="239"/>
      <point x="267" y="321"/>
      <point x="216" y="321" type="qcurve" smooth="yes"/>
      <point x="179" y="321"/>
      <point x="151" y="314" type="qcurve"/>
      <point x="144" y="323"/>
      <point x="144" y="340" type="qcurve" smooth="yes"/>
      <point x="144" y="347"/>
      <point x="146" y="350" type="qcurve"/>
      <point x="215" y="362"/>
      <point x="297" y="434"/>
      <point x="297" y="496" type="qcurve" smooth="yes"/>
      <point x="297" y="530"/>
      <point x="244" y="583"/>
      <point x="210" y="583" type="qcurve" smooth="yes"/>
      <point x="188" y="583"/>
      <point x="151" y="568"/>
      <point x="132" y="552"/>
      <point x="114" y="533"/>
      <point x="113" y="532" type="qcurve"/>
      <point x="109" y="532"/>
      <point x="101" y="551"/>
      <point x="101" y="558" type="qcurve"/>
      <point x="128" y="598"/>
      <point x="196" y="642"/>
    </contour>
  </outline>
</glyph>
<glyph name="four" format="1">
  <advance width="482"/>
  <unicode hex="0034"/>
  <outline>
    <contour>
      <point x="359" y="645" type="qcurve" smooth="yes"/>
      <point x="372" y="645"/>
      <point x="372" y="635" type="qcurve" smooth="yes"/>
      <point x="372" y="232" type="line"/>
      <point x="434" y="232" type="line" smooth="yes"/>
      <point x="450" y="232"/>
      <point x="450" y="184" type="qcurve" smooth="yes"/>
      <point x="450" y="178"/>
      <point x="444" y="174" type="qcurve"/>
      <point x="372" y="174" type="line"/>
      <point x="372" y="-1" type="line"/>
      <point x="369" y="-6"/>
      <point x="330" y="-6" type="qcurve" smooth="yes"/>
      <point x="293" y="-6"/>
      <point x="293" y="2" type="qcurve" smooth="yes"/>
      <point x="293" y="174" type="line"/>
      <point x="40" y="174" type="line"/>
      <point x="33" y="183"/>
      <point x="33" y="205" type="qcurve"/>
      <point x="336" y="633" type="line" smooth="yes"/>
      <point x="345" y="645"/>
    </contour>
    <contour>
      <point x="293" y="232" type="line"/>
      <point x="293" y="498" type="line" smooth="yes"/>
      <point x="293" y="507"/>
      <point x="288" y="507" type="qcurve"/>
      <point x="288" y="506"/>
      <point x="287" y="505" type="qcurve" smooth="yes"/>
      <point x="105" y="244" type="line" smooth="yes"/>
      <point x="104" y="243"/>
      <point x="104" y="241" type="qcurve" smooth="yes"/>
      <point x="104" y="232"/>
      <point x="111" y="232" type="qcurve" smooth="yes"/>
    </contour>
  </outline>
</glyph>
<glyph name="five" format="1">
  <advance width="485"/>
  <unicode hex="0035"/>
  <outline>
    <contour>
      <point x="139" y="623" type="line"/>
      <point x="336" y="629"/>
      <point x="374" y="637" type="qcurve"/>
      <point x="379" y="630"/>
      <point x="379" y="616" type="qcurve" smooth="yes"/>
      <point x="379" y="591"/>
      <point x="373" y="561" type="qcurve"/>
      <point x="347" y="553"/>
      <point x="260" y="550" type="qcurve" smooth="yes"/>
      <point x="173" y="546" type="line" smooth="yes"/>
      <point x="168" y="545"/>
      <point x="166" y="538" type="qcurve" smooth="yes"/>
      <point x="155" y="483"/>
      <point x="137" y="378" type="qcurve"/>
      <point x="170" y="391"/>
      <point x="231" y="391" type="qcurve" smooth="yes"/>
      <point x="311" y="391"/>
      <point x="428" y="281"/>
      <point x="428" y="206" type="qcurve" smooth="yes"/>
      <point x="428" y="114"/>
      <point x="299" y="-5"/>
      <point x="201" y="-5" type="qcurve" smooth="yes"/>
      <point x="112" y="-5"/>
      <point x="67" y="25" type="qcurve" smooth="yes"/>
      <point x="57" y="32"/>
      <point x="57" y="54" type="qcurve" smooth="yes"/>
      <point x="57" y="101"/>
      <point x="94" y="101" type="qcurve" smooth="yes"/>
      <point x="103" y="101"/>
      <point x="122" y="86"/>
      <point x="145" y="62"/>
      <point x="153" y="56" type="qcurve" smooth="yes"/>
      <point x="182" y="35"/>
      <point x="233" y="35" type="qcurve" smooth="yes"/>
      <point x="275" y="35"/>
      <point x="342" y="106"/>
      <point x="342" y="180" type="qcurve" smooth="yes"/>
      <point x="342" y="206"/>
      <point x="328" y="252"/>
      <point x="297" y="297"/>
      <point x="237" y="323"/>
      <point x="196" y="323" type="qcurve" smooth="yes"/>
      <point x="144" y="323"/>
      <point x="109" y="312" type="qcurve"/>
      <point x="101" y="316"/>
      <point x="91" y="326" type="qcurve"/>
    </contour>
  </outline>
</glyph>
<glyph name="six" format="1">
  <advance width="484"/>
  <unicode hex="0036"/>
  <outline>
    <contour>
      <point x="130" y="210" type="qcurve"/>
      <point x="130" y="140"/>
      <point x="197" y="33"/>
      <point x="247" y="33" type="qcurve" smooth="yes"/>
      <point x="291" y="33"/>
      <point x="357" y="110"/>
      <point x="357" y="174" type="qcurve" smooth="yes"/>
      <point x="357" y="242"/>
      <point x="292" y="330"/>
      <point x="229" y="330" type="qcurve" smooth="yes"/>
      <point x="202" y="330"/>
      <point x="152" y="301"/>
      <point x="145" y="285" type="qcurve" smooth="yes"/>
      <point x="131" y="253"/>
    </contour>
    <contour>
      <point x="235" y="-6" type="qcurve" smooth="yes"/>
      <point x="152" y="-6"/>
      <point x="44" y="123"/>
      <point x="44" y="208" type="qcurve" smooth="yes"/>
      <point x="44" y="286"/>
      <point x="106" y="430"/>
      <point x="211" y="539"/>
      <point x="332" y="620"/>
      <point x="400" y="647" type="qcurve"/>
      <point x="406" y="647"/>
      <point x="423" y="625"/>
      <point x="423" y="620" type="qcurve"/>
      <point x="322" y="576"/>
      <point x="181" y="451"/>
      <point x="154" y="352" type="qcurve" smooth="yes"/>
      <point x="152" y="342"/>
      <point x="155" y="342" type="qcurve"/>
      <point x="157" y="343"/>
      <point x="158" y="344" type="qcurve" smooth="yes"/>
      <point x="172" y="355"/>
      <point x="245" y="381"/>
      <point x="275" y="381" type="qcurve" smooth="yes"/>
      <point x="345" y="381"/>
      <point x="440" y="264"/>
      <point x="440" y="195" type="qcurve" smooth="yes"/>
      <point x="440" y="112"/>
      <point x="316" y="-6"/>
    </contour>
  </outline>
</glyph>
<glyph name="seven" format="1">
  <advance width="483"/>
  <unicode hex="0037"/>
  <outline>
    <contour>
      <point x="133" y="553" type="line" smooth="yes"/>
      <point x="116" y="553"/>
      <point x="89" y="525"/>
      <point x="77" y="497"/>
      <point x="70" y="474" type="qcurve" smooth="yes"/>
      <point x="69" y="470"/>
      <point x="43" y="468"/>
      <point x="36" y="471" type="qcurve"/>
      <point x="38" y="480"/>
      <point x="63" y="595"/>
      <point x="67" y="621" type="qcurve" smooth="yes"/>
      <point x="68" y="633"/>
      <point x="83" y="633" type="qcurve" smooth="yes"/>
      <point x="372" y="633" type="line" smooth="yes"/>
      <point x="388" y="633"/>
      <point x="438" y="636"/>
      <point x="439" y="636" type="qcurve" smooth="yes"/>
      <point x="446" y="636"/>
      <point x="446" y="627" type="qcurve" smooth="yes"/>
      <point x="446" y="621"/>
      <point x="438" y="602"/>
      <point x="417" y="560" type="line" smooth="yes"/>
      <point x="154" y="-3" type="line"/>
      <point x="151" y="-6"/>
      <point x="143" y="-6" type="qcurve" smooth="yes"/>
      <point x="132" y="-6"/>
      <point x="108" y="15"/>
      <point x="108" y="22" type="qcurve"/>
      <point x="374" y="553" type="line"/>
    </contour>
  </outline>
</glyph>
<glyph name="eight" format="1">
  <advance width="484"/>
  <unicode hex="0038"/>
  <outline>
    <contour>
      <point x="241" y="27" type="qcurve" smooth="yes"/>
      <point x="291" y="27"/>
      <point x="349" y="87"/>
      <point x="349" y="138" type="qcurve" smooth="yes"/>
      <point x="349" y="167"/>
      <point x="315" y="224"/>
      <point x="263" y="268"/>
      <point x="234" y="288"/>
      <point x="221" y="295" type="qcurve" smooth="yes"/>
      <point x="217" y="297"/>
      <point x="215" y="297" type="qcurve" smooth="yes"/>
      <point x="212" y="297"/>
      <point x="211" y="296" type="qcurve" smooth="yes"/>
      <point x="169" y="270"/>
      <point x="132" y="205"/>
      <point x="132" y="157" type="qcurve" smooth="yes"/>
      <point x="132" y="99"/>
      <point x="198" y="27"/>
    </contour>
    <contour>
      <point x="241" y="608" type="qcurve" smooth="yes"/>
      <point x="204" y="608"/>
      <point x="155" y="544"/>
      <point x="155" y="492" type="qcurve" smooth="yes"/>
      <point x="155" y="424"/>
      <point x="259" y="364" type="qcurve" smooth="yes"/>
      <point x="263" y="362"/>
      <point x="265" y="362" type="qcurve" smooth="yes"/>
      <point x="268" y="362"/>
      <point x="271" y="364" type="qcurve" smooth="yes"/>
      <point x="339" y="409"/>
      <point x="339" y="486" type="qcurve" smooth="yes"/>
      <point x="339" y="533"/>
      <point x="284" y="608"/>
    </contour>
    <contour>
      <point x="247" y="643" type="qcurve" smooth="yes"/>
      <point x="316" y="643"/>
      <point x="411" y="560"/>
      <point x="411" y="491" type="qcurve" smooth="yes"/>
      <point x="411" y="415"/>
      <point x="299" y="344" type="qcurve"/>
      <point x="292" y="342"/>
      <point x="299" y="338" type="qcurve" smooth="yes"/>
      <point x="351" y="308"/>
      <point x="430" y="217"/>
      <point x="430" y="167" type="qcurve" smooth="yes"/>
      <point x="430" y="93"/>
      <point x="315" y="-9"/>
      <point x="239" y="-9" type="qcurve" smooth="yes"/>
      <point x="156" y="-9"/>
      <point x="53" y="81"/>
      <point x="53" y="154" type="qcurve" smooth="yes"/>
      <point x="53" y="167"/>
      <point x="59" y="192"/>
      <point x="66" y="212"/>
      <point x="82" y="235"/>
      <point x="93" y="250"/>
      <point x="115" y="270"/>
      <point x="125" y="279"/>
      <point x="151" y="297"/>
      <point x="158" y="302"/>
      <point x="170" y="310" type="qcurve" smooth="yes"/>
      <point x="183" y="318" type="line" smooth="yes"/>
      <point x="188" y="321"/>
      <point x="183" y="324" type="qcurve" smooth="yes"/>
      <point x="144" y="347"/>
      <point x="81" y="430"/>
      <point x="81" y="480" type="qcurve" smooth="yes"/>
      <point x="81" y="544"/>
      <point x="181" y="643"/>
    </contour>
  </outline>
</glyph>
<glyph name="nine" format="1">
  <advance width="484"/>
  <unicode hex="0039"/>
  <outline>
    <contour>
      <point x="353" y="431" type="qcurve"/>
      <point x="353" y="502"/>
      <point x="286" y="608"/>
      <point x="233" y="608" type="qcurve" smooth="yes"/>
      <point x="190" y="608"/>
      <point x="128" y="528"/>
      <point x="128" y="398"/>
      <point x="194" y="311"/>
      <point x="255" y="311" type="qcurve" smooth="yes"/>
      <point x="282" y="311"/>
      <point x="332" y="340"/>
      <point x="339" y="356" type="qcurve" smooth="yes"/>
      <point x="352" y="386"/>
    </contour>
    <contour>
      <point x="249" y="647" type="qcurve" smooth="yes"/>
      <point x="331" y="647"/>
      <point x="439" y="518"/>
      <point x="439" y="433" type="qcurve" smooth="yes"/>
      <point x="439" y="355"/>
      <point x="375" y="206"/>
      <point x="274" y="95"/>
      <point x="161" y="14"/>
      <point x="105" y="-6" type="qcurve"/>
      <point x="99" y="-6"/>
      <point x="83" y="18"/>
      <point x="83" y="23" type="qcurve"/>
      <point x="160" y="53"/>
      <point x="302" y="190"/>
      <point x="329" y="289" type="qcurve" smooth="yes"/>
      <point x="331" y="299"/>
      <point x="328" y="299" type="qcurve"/>
      <point x="326" y="298"/>
      <point x="325" y="297" type="qcurve" smooth="yes"/>
      <point x="314" y="284"/>
      <point x="244" y="262"/>
      <point x="217" y="262" type="qcurve" smooth="yes"/>
      <point x="145" y="262"/>
      <point x="45" y="370"/>
      <point x="45" y="445" type="qcurve" smooth="yes"/>
      <point x="45" y="528"/>
      <point x="168" y="647"/>
    </contour>
  </outline>
</glyph>
<glyph name="colon" format="1">
  <advance width="236"/>
  <unicode hex="003A"/>
  <outline>
    <contour>
      <point x="179" y="346"/>
      <point x="145" y="310"/>
      <point x="95" y="310"/>
      <point x="60" y="346"/>
      <point x="60" y="396"/>
      <point x="95" y="430"/>
      <point x="145" y="430"/>
      <point x="179" y="396"/>
    </contour>
    <contour>
      <point x="179" y="21"/>
      <point x="145" y="-14"/>
      <point x="95" y="-14"/>
      <point x="60" y="21"/>
      <point x="60" y="71"/>
      <point x="95" y="106"/>
      <point x="145" y="106"/>
      <point x="179" y="71"/>
    </contour>
  </outline>
</glyph>
<glyph name="semicolon" format="1">
  <advance width="244"/>
  <unicode hex="003B"/>
  <outline>
    <contour>
      <point x="196" y="39" type="qcurve" smooth="yes"/>
      <point x="196" y="-3"/>
      <point x="186" y="-33" type="qcurve" smooth="yes"/>
      <point x="175" y="-66"/>
      <point x="124" y="-122"/>
      <point x="73" y="-165" type="qcurve"/>
      <point x="69" y="-167"/>
      <point x="66" y="-167" type="qcurve" smooth="yes"/>
      <point x="59" y="-167"/>
      <point x="45" y="-145"/>
      <point x="45" y="-140" type="qcurve" smooth="yes"/>
      <point x="45" y="-138"/>
      <point x="82" y="-108"/>
      <point x="118" y="-50"/>
      <point x="118" y="-14" type="qcurve" smooth="yes"/>
      <point x="118" y="15"/>
      <point x="91" y="64"/>
      <point x="91" y="68" type="qcurve" smooth="yes"/>
      <point x="91" y="88"/>
      <point x="134" y="124"/>
      <point x="161" y="124" type="qcurve" smooth="yes"/>
      <point x="170" y="124"/>
      <point x="179" y="117" type="qcurve"/>
      <point x="196" y="101"/>
    </contour>
    <contour>
      <point x="82" y="396"/>
      <point x="118" y="430"/>
      <point x="168" y="430"/>
      <point x="202" y="396"/>
      <point x="202" y="346"/>
      <point x="168" y="310"/>
      <point x="118" y="310"/>
      <point x="82" y="346"/>
    </contour>
  </outline>
</glyph>
<glyph name="less" format="1">
  <advance width="535"/>
  <unicode hex="003C"/>
  <outline>
    <contour>
      <point x="475" y="35" type="qcurve" smooth="yes"/>
      <point x="475" y="28"/>
      <point x="463" y="-15"/>
      <point x="459" y="-15" type="qcurve" smooth="yes"/>
      <point x="458" y="-15"/>
      <point x="454" y="-13" type="qcurve" smooth="yes"/>
      <point x="79" y="177" type="line" smooth="yes"/>
      <point x="61" y="187"/>
      <point x="61" y="217" type="qcurve" smooth="yes"/>
      <point x="61" y="232"/>
      <point x="79" y="241" type="qcurve" smooth="yes"/>
      <point x="448" y="428" type="line" smooth="yes"/>
      <point x="452" y="430"/>
      <point x="453" y="430" type="qcurve" smooth="yes"/>
      <point x="461" y="430"/>
      <point x="470" y="383" type="qcurve"/>
      <point x="467" y="374" type="line"/>
      <point x="141" y="209" type="line"/>
      <point x="472" y="41" type="line" smooth="yes"/>
      <point x="475" y="40"/>
    </contour>
  </outline>
</glyph>
<glyph name="equal" format="1">
  <advance width="571"/>
  <unicode hex="003D"/>
  <outline>
    <contour>
      <point x="520" y="168" type="qcurve" smooth="yes"/>
      <point x="520" y="160"/>
      <point x="510" y="123" type="qcurve" smooth="yes"/>
      <point x="509" y="120"/>
      <point x="506" y="117"/>
      <point x="505" y="117" type="qcurve" smooth="yes"/>
      <point x="504" y="117" type="line"/>
      <point x="59" y="117" type="line" smooth="yes"/>
      <point x="52" y="117"/>
      <point x="52" y="137"/>
      <point x="61" y="168" type="qcurve" smooth="yes"/>
      <point x="62" y="171"/>
      <point x="65" y="173"/>
      <point x="66" y="173" type="qcurve" smooth="yes"/>
      <point x="68" y="173" type="line"/>
      <point x="512" y="173" type="line" smooth="yes"/>
      <point x="520" y="173"/>
    </contour>
    <contour>
      <point x="52" y="269" type="qcurve"/>
      <point x="57" y="315"/>
      <point x="67" y="315" type="qcurve" smooth="yes"/>
      <point x="516" y="315" type="line" smooth="yes"/>
      <point x="520" y="315"/>
      <point x="520" y="310" type="qcurve" smooth="yes"/>
      <point x="520" y="302"/>
      <point x="510" y="265" type="qcurve" smooth="yes"/>
      <point x="509" y="262"/>
      <point x="506" y="259"/>
      <point x="505" y="259" type="qcurve" smooth="yes"/>
      <point x="504" y="259" type="line"/>
      <point x="59" y="259" type="line" smooth="yes"/>
      <point x="52" y="259"/>
    </contour>
  </outline>
</glyph>
<glyph name="greater" format="1">
  <advance width="535"/>
  <unicode hex="003E"/>
  <outline>
    <contour>
      <point x="67" y="382" type="qcurve" smooth="yes"/>
      <point x="67" y="395"/>
      <point x="80" y="430"/>
      <point x="83" y="430" type="qcurve" smooth="yes"/>
      <point x="84" y="430"/>
      <point x="88" y="428" type="qcurve" smooth="yes"/>
      <point x="458" y="241" type="line" smooth="yes"/>
      <point x="475" y="232"/>
      <point x="475" y="217" type="qcurve" smooth="yes"/>
      <point x="475" y="186"/>
      <point x="458" y="177" type="qcurve" smooth="yes"/>
      <point x="83" y="-13" type="line" smooth="yes"/>
      <point x="79" y="-15"/>
      <point x="78" y="-15" type="qcurve" smooth="yes"/>
      <point x="74" y="-15"/>
      <point x="61" y="28"/>
      <point x="61" y="35" type="qcurve"/>
      <point x="64" y="41" type="line"/>
      <point x="395" y="209" type="line"/>
      <point x="70" y="374" type="line" smooth="yes"/>
      <point x="67" y="375"/>
    </contour>
  </outline>
</glyph>
<glyph name="question" format="1">
  <advance width="366"/>
  <unicode hex="003F"/>
  <outline>
    <contour>
      <point x="112" y="558" type="qcurve" smooth="yes"/>
      <point x="96" y="558"/>
      <point x="65" y="576"/>
      <point x="65" y="598" type="qcurve" smooth="yes"/>
      <point x="65" y="621"/>
      <point x="72" y="632" type="qcurve"/>
      <point x="92" y="642"/>
      <point x="122" y="642" type="qcurve" smooth="yes"/>
      <point x="182" y="642"/>
      <point x="319" y="536"/>
      <point x="319" y="457" type="qcurve" smooth="yes"/>
      <point x="319" y="405"/>
      <point x="274" y="336"/>
      <point x="218" y="304" type="qcurve" smooth="yes"/>
      <point x="197" y="292"/>
      <point x="144" y="250"/>
      <point x="140" y="242" type="qcurve" smooth="yes"/>
      <point x="130" y="224"/>
      <point x="130" y="173" type="qcurve" smooth="yes"/>
      <point x="130" y="160"/>
      <point x="110" y="160" type="qcurve" smooth="yes"/>
      <point x="97" y="160"/>
      <point x="97" y="168" type="qcurve" smooth="yes"/>
      <point x="97" y="181"/>
      <point x="96" y="248"/>
      <point x="96" y="262" type="qcurve" smooth="yes"/>
      <point x="96" y="274"/>
      <point x="99" y="295"/>
      <point x="107" y="314"/>
      <point x="112" y="328"/>
      <point x="128" y="344"/>
      <point x="133" y="352"/>
      <point x="154" y="366"/>
      <point x="158" y="370"/>
      <point x="181" y="385"/>
      <point x="182" y="385" type="qcurve" smooth="yes"/>
      <point x="207" y="401"/>
      <point x="228" y="415"/>
      <point x="258" y="440"/>
      <point x="269" y="463"/>
      <point x="269" y="476" type="qcurve" smooth="yes"/>
      <point x="269" y="519"/>
      <point x="220" y="565"/>
      <point x="188" y="565" type="qcurve" smooth="yes"/>
      <point x="158" y="565"/>
      <point x="122" y="558"/>
    </contour>
    <contour>
      <point x="59" y="69"/>
      <point x="93" y="102"/>
      <point x="141" y="102"/>
      <point x="175" y="69"/>
      <point x="175" y="21"/>
      <point x="141" y="-14"/>
      <point x="93" y="-14"/>
      <point x="59" y="21"/>
    </contour>
  </outline>
</glyph>
<glyph name="at" format="1">
  <advance width="819"/>
  <unicode hex="0040"/>
  <outline>
    <contour>
      <point x="730" y="214" type="qcurve" smooth="yes"/>
      <point x="730" y="343"/>
      <point x="571" y="528"/>
      <point x="446" y="528" type="qcurve" smooth="yes"/>
      <point x="308" y="528"/>
      <point x="111" y="353"/>
      <point x="111" y="223" type="qcurve" smooth="yes"/>
      <point x="111" y="66"/>
      <point x="289" y="-126"/>
      <point x="469" y="-126" type="qcurve" smooth="yes"/>
      <point x="477" y="-126"/>
      <point x="496" y="-122"/>
      <point x="514" y="-115"/>
      <point x="529" y="-109"/>
      <point x="534" y="-106" type="qcurve"/>
      <point x="540" y="-104" type="line"/>
      <point x="542" y="-113"/>
      <point x="542" y="-114" type="qcurve" smooth="yes"/>
      <point x="542" y="-134"/>
      <point x="473" y="-171"/>
      <point x="414" y="-171" type="qcurve" smooth="yes"/>
      <point x="336" y="-171"/>
      <point x="198" y="-105"/>
      <point x="105" y="-2"/>
      <point x="52" y="124"/>
      <point x="52" y="185" type="qcurve" smooth="yes"/>
      <point x="52" y="365"/>
      <point x="284" y="577"/>
      <point x="457" y="577" type="qcurve" smooth="yes"/>
      <point x="529" y="577"/>
      <point x="653" y="514"/>
      <point x="734" y="414"/>
      <point x="779" y="293"/>
      <point x="779" y="233" type="qcurve" smooth="yes"/>
      <point x="779" y="164"/>
      <point x="745" y="63"/>
      <point x="689" y="11"/>
      <point x="629" y="-13"/>
      <point x="597" y="-13" type="qcurve" smooth="yes"/>
      <point x="549" y="-13"/>
      <point x="485" y="57"/>
      <point x="485" y="92" type="qcurve" smooth="yes"/>
      <point x="485" y="93"/>
      <point x="481" y="91"/>
      <point x="480" y="90" type="qcurve" smooth="yes"/>
      <point x="464" y="63"/>
      <point x="370" y="-7"/>
      <point x="335" y="-7" type="qcurve" smooth="yes"/>
      <point x="283" y="-7"/>
      <point x="226" y="84"/>
      <point x="226" y="141" type="qcurve" smooth="yes"/>
      <point x="226" y="248"/>
      <point x="374" y="410"/>
      <point x="501" y="410" type="qcurve"/>
      <point x="590" y="401" type="line"/>
      <point x="583" y="348" type="line"/>
      <point x="558" y="125" type="line" smooth="yes"/>
      <point x="556" y="105"/>
      <point x="556" y="97" type="qcurve" smooth="yes"/>
      <point x="556" y="27"/>
      <point x="606" y="27" type="qcurve" smooth="yes"/>
      <point x="641" y="27"/>
      <point x="693" y="69"/>
      <point x="719" y="133"/>
      <point x="730" y="190"/>
    </contour>
    <contour>
      <point x="506" y="334" type="qcurve" smooth="yes"/>
      <point x="506" y="342"/>
      <point x="502" y="351"/>
      <point x="478" y="359"/>
      <point x="455" y="359" type="qcurve" smooth="yes"/>
      <point x="391" y="359"/>
      <point x="304" y="244"/>
      <point x="304" y="143" type="qcurve" smooth="yes"/>
      <point x="304" y="96"/>
      <point x="340" y="53"/>
      <point x="363" y="53" type="qcurve" smooth="yes"/>
      <point x="402" y="53"/>
      <point x="488" y="146"/>
      <point x="490" y="170" type="qcurve" smooth="yes"/>
      <point x="505" y="322" type="line" smooth="yes"/>
      <point x="506" y="328"/>
    </contour>
  </outline>
</glyph>
<glyph name="A" format="1">
  <advance width="684"/>
  <unicode hex="0041"/>
  <outline>
    <contour>
      <point x="365" y="660" type="line"/>
      <point x="565" y="132" type="line" smooth="yes"/>
      <point x="583" y="85"/>
      <point x="594" y="60" type="qcurve" smooth="yes"/>
      <point x="600" y="45"/>
      <point x="650" y="26"/>
      <point x="662" y="26" type="qcurve" smooth="yes"/>
      <point x="666" y="26"/>
      <point x="666" y="7" type="qcurve" smooth="yes"/>
      <point x="666" y="3"/>
      <point x="664" y="-3" type="qcurve"/>
      <point x="564" y="2"/>
      <point x="554" y="2" type="qcurve" smooth="yes"/>
      <point x="553" y="2"/>
      <point x="438" y="-3" type="qcurve"/>
      <point x="434" y="1"/>
      <point x="435" y="26"/>
      <point x="439" y="26" type="qcurve" smooth="yes"/>
      <point x="451" y="26"/>
      <point x="487" y="36"/>
      <point x="490" y="44" type="qcurve" smooth="yes"/>
      <point x="492" y="52"/>
      <point x="492" y="60" type="qcurve" smooth="yes"/>
      <point x="492" y="73"/>
      <point x="485" y="108"/>
      <point x="482" y="118" type="qcurve" smooth="yes"/>
      <point x="478" y="129" type="line"/>
      <point x="437" y="242" type="line"/>
      <point x="434" y="246"/>
      <point x="431" y="246" type="qcurve" smooth="yes"/>
      <point x="392" y="249"/>
      <point x="355" y="249" type="qcurve" smooth="yes"/>
      <point x="303" y="249"/>
      <point x="228" y="244" type="qcurve"/>
      <point x="223" y="241" type="line"/>
      <point x="180" y="131" type="line"/>
      <point x="163" y="81"/>
      <point x="163" y="62" type="qcurve" smooth="yes"/>
      <point x="163" y="48"/>
      <point x="171" y="42" type="qcurve" smooth="yes"/>
      <point x="180" y="35"/>
      <point x="220" y="26"/>
      <point x="229" y="26" type="qcurve" smooth="yes"/>
      <point x="232" y="26"/>
      <point x="233" y="2"/>
      <point x="231" y="-3" type="qcurve"/>
      <point x="131" y="2"/>
      <point x="128" y="2" type="qcurve" smooth="yes"/>
      <point x="108" y="2"/>
      <point x="78" y="0"/>
      <point x="41" y="-2"/>
      <point x="24" y="-3" type="qcurve"/>
      <point x="20" y="1"/>
      <point x="20" y="12" type="qcurve" smooth="yes"/>
      <point x="20" y="26"/>
      <point x="24" y="26" type="qcurve" smooth="yes"/>
      <point x="36" y="26"/>
      <point x="74" y="36"/>
      <point x="81" y="45" type="qcurve" smooth="yes"/>
      <point x="102" y="72"/>
      <point x="128" y="139" type="qcurve" smooth="yes"/>
      <point x="302" y="586" type="line" smooth="yes"/>
      <point x="304" y="591"/>
      <point x="311" y="613"/>
      <point x="315" y="624"/>
      <point x="323" y="641"/>
      <point x="329" y="649"/>
      <point x="338" y="659"/>
      <point x="349" y="663"/>
      <point x="356" y="663" type="qcurve"/>
    </contour>
    <contour>
      <point x="249" y="299" type="qcurve" smooth="yes"/>
      <point x="301" y="297"/>
      <point x="320" y="297" type="qcurve" smooth="yes"/>
      <point x="364" y="297"/>
      <point x="411" y="300" type="qcurve"/>
      <point x="414" y="305" type="line"/>
      <point x="333" y="526" type="line"/>
      <point x="247" y="303" type="line"/>
      <point x="247" y="299"/>
    </contour>
  </outline>
</glyph>
<glyph name="B" format="1">
  <advance width="592"/>
  <unicode hex="0042"/>
  <outline>
    <contour>
      <point x="457" y="176" type="qcurve" smooth="yes"/>
      <point x="457" y="240"/>
      <point x="371" y="331"/>
      <point x="279" y="331" type="qcurve" smooth="yes"/>
      <point x="257" y="331"/>
      <point x="207" y="327" type="qcurve"/>
      <point x="203" y="315"/>
      <point x="203" y="294" type="qcurve" smooth="yes"/>
      <point x="203" y="148" type="line" smooth="yes"/>
      <point x="203" y="72"/>
      <point x="219" y="59" type="qcurve"/>
      <point x="234" y="45"/>
      <point x="273" y="45" type="qcurve" smooth="yes"/>
      <point x="298" y="45"/>
      <point x="347" y="53"/>
      <point x="415" y="76"/>
      <point x="457" y="133"/>
    </contour>
    <contour>
      <point x="116" y="143" type="qcurve" smooth="yes"/>
      <point x="116" y="521" type="line" smooth="yes"/>
      <point x="116" y="580"/>
      <point x="109" y="607" type="qcurve" smooth="yes"/>
      <point x="106" y="615"/>
      <point x="53" y="629"/>
      <point x="40" y="629" type="qcurve" smooth="yes"/>
      <point x="36" y="629"/>
      <point x="36" y="641" type="qcurve" smooth="yes"/>
      <point x="36" y="654"/>
      <point x="40" y="658" type="qcurve"/>
      <point x="92" y="656"/>
      <point x="159" y="656" type="qcurve" smooth="yes"/>
      <point x="210" y="656"/>
      <point x="275" y="657"/>
      <point x="300" y="657" type="qcurve" smooth="yes"/>
      <point x="326" y="657"/>
      <point x="380" y="648"/>
      <point x="437" y="624"/>
      <point x="481" y="588"/>
      <point x="509" y="529"/>
      <point x="509" y="457"/>
      <point x="463" y="395"/>
      <point x="424" y="371"/>
      <point x="410" y="366" type="qcurve" smooth="yes"/>
      <point x="402" y="363"/>
      <point x="405" y="360" type="qcurve"/>
      <point x="444" y="353"/>
      <point x="552" y="254"/>
      <point x="552" y="187" type="qcurve" smooth="yes"/>
      <point x="552" y="101"/>
      <point x="413" y="0"/>
      <point x="298" y="0" type="qcurve" smooth="yes"/>
      <point x="161" y="0" type="line"/>
      <point x="40" y="-3" type="line"/>
      <point x="37" y="0"/>
      <point x="37" y="26"/>
      <point x="40" y="26" type="qcurve" smooth="yes"/>
      <point x="53" y="26"/>
      <point x="104" y="40"/>
      <point x="109" y="49" type="qcurve" smooth="yes"/>
      <point x="116" y="61"/>
    </contour>
    <contour>
      <point x="325" y="376" type="qcurve" smooth="yes"/>
      <point x="366" y="380"/>
      <point x="421" y="429"/>
      <point x="421" y="470" type="qcurve" smooth="yes"/>
      <point x="421" y="539"/>
      <point x="352" y="616"/>
      <point x="284" y="616" type="qcurve" smooth="yes"/>
      <point x="238" y="616"/>
      <point x="213" y="609" type="qcurve" smooth="yes"/>
      <point x="207" y="608"/>
      <point x="207" y="600" type="qcurve" smooth="yes"/>
      <point x="203" y="499" type="line"/>
      <point x="203" y="380" type="line" smooth="yes"/>
      <point x="203" y="373"/>
      <point x="269" y="373" type="qcurve" smooth="yes"/>
      <point x="301" y="373"/>
    </contour>
  </outline>
</glyph>
<glyph name="C" format="1">
  <advance width="656"/>
  <unicode hex="0043"/>
  <outline>
    <contour>
      <point x="634" y="183" type="line"/>
      <point x="634" y="172"/>
      <point x="606" y="41"/>
      <point x="600" y="38" type="qcurve" smooth="yes"/>
      <point x="527" y="-6"/>
      <point x="361" y="-6" type="qcurve" smooth="yes"/>
      <point x="229" y="-6"/>
      <point x="44" y="188"/>
      <point x="44" y="322" type="qcurve" smooth="yes"/>
      <point x="44" y="464"/>
      <point x="234" y="667"/>
      <point x="372" y="667" type="qcurve" smooth="yes"/>
      <point x="490" y="667"/>
      <point x="615" y="642" type="qcurve"/>
      <point x="613" y="508"/>
      <point x="613" y="498" type="qcurve" smooth="yes"/>
      <point x="613" y="483"/>
      <point x="592" y="483" type="qcurve" smooth="yes"/>
      <point x="582" y="483"/>
      <point x="579" y="488" type="qcurve"/>
      <point x="576" y="501"/>
      <point x="567" y="528"/>
      <point x="538" y="571"/>
      <point x="497" y="602"/>
      <point x="422" y="625"/>
      <point x="375" y="625" type="qcurve" smooth="yes"/>
      <point x="277" y="625"/>
      <point x="139" y="452"/>
      <point x="139" y="343" type="qcurve" smooth="yes"/>
      <point x="139" y="262"/>
      <point x="195" y="126"/>
      <point x="316" y="37"/>
      <point x="399" y="37" type="qcurve" smooth="yes"/>
      <point x="498" y="37"/>
      <point x="552" y="95" type="qcurve" smooth="yes"/>
      <point x="566" y="110"/>
      <point x="587" y="159"/>
      <point x="598" y="192"/>
      <point x="601" y="192" type="qcurve" smooth="yes"/>
      <point x="607" y="192"/>
      <point x="624" y="188"/>
      <point x="629" y="186" type="qcurve" smooth="yes"/>
    </contour>
  </outline>
</glyph>
<glyph name="D" format="1">
  <advance width="722"/>
  <unicode hex="0044"/>
  <outline>
    <contour>
      <point x="157" y="656" type="qcurve" smooth="yes"/>
      <point x="195" y="656"/>
      <point x="312" y="658"/>
      <point x="331" y="658" type="qcurve" smooth="yes"/>
      <point x="494" y="658"/>
      <point x="676" y="466"/>
      <point x="676" y="336" type="qcurve" smooth="yes"/>
      <point x="676" y="191"/>
      <point x="492" y="-3"/>
      <point x="330" y="-3" type="qcurve" smooth="yes"/>
      <point x="318" y="-3"/>
      <point x="199" y="1"/>
      <point x="159" y="0" type="qcurve" smooth="yes"/>
      <point x="38" y="-3" type="line"/>
      <point x="35" y="0"/>
      <point x="35" y="12" type="qcurve" smooth="yes"/>
      <point x="35" y="26"/>
      <point x="38" y="26" type="qcurve" smooth="yes"/>
      <point x="51" y="26"/>
      <point x="102" y="40"/>
      <point x="107" y="49" type="qcurve" smooth="yes"/>
      <point x="114" y="61"/>
      <point x="114" y="143" type="qcurve" smooth="yes"/>
      <point x="114" y="521" type="line" smooth="yes"/>
      <point x="114" y="580"/>
      <point x="107" y="607" type="qcurve" smooth="yes"/>
      <point x="104" y="615"/>
      <point x="51" y="629"/>
      <point x="38" y="629" type="qcurve" smooth="yes"/>
      <point x="34" y="629"/>
      <point x="34" y="641" type="qcurve" smooth="yes"/>
      <point x="34" y="654"/>
      <point x="38" y="658" type="qcurve"/>
      <point x="90" y="656"/>
    </contour>
    <contour>
      <point x="201" y="535" type="qcurve" smooth="yes"/>
      <point x="201" y="139" type="line" smooth="yes"/>
      <point x="201" y="97"/>
      <point x="216" y="63" type="qcurve" smooth="yes"/>
      <point x="220" y="53"/>
      <point x="319" y="43"/>
      <point x="346" y="43" type="qcurve" smooth="yes"/>
      <point x="576" y="43"/>
      <point x="576" y="340" type="qcurve" smooth="yes"/>
      <point x="576" y="454"/>
      <point x="455" y="614"/>
      <point x="339" y="614" type="qcurve" smooth="yes"/>
      <point x="334" y="614" type="line" smooth="yes"/>
      <point x="226" y="614"/>
      <point x="214" y="598" type="qcurve" smooth="yes"/>
      <point x="201" y="580"/>
    </contour>
  </outline>
</glyph>
<glyph name="E" format="1">
  <advance width="571"/>
  <unicode hex="0045"/>
  <outline>
    <contour>
      <point x="152" y="656" type="qcurve" smooth="yes"/>
      <point x="197" y="656"/>
      <point x="419" y="664"/>
      <point x="475" y="664" type="qcurve"/>
      <point x="479" y="635"/>
      <point x="502" y="540"/>
      <point x="504" y="528" type="qcurve"/>
      <point x="499" y="523"/>
      <point x="473" y="523"/>
      <point x="472" y="530" type="qcurve" smooth="yes"/>
      <point x="457" y="585"/>
      <point x="403" y="616"/>
      <point x="356" y="616" type="qcurve" smooth="yes"/>
      <point x="289" y="616" type="line" smooth="yes"/>
      <point x="203" y="616"/>
      <point x="201" y="603" type="qcurve" smooth="yes"/>
      <point x="196" y="579"/>
      <point x="196" y="519" type="qcurve" smooth="yes"/>
      <point x="196" y="359" type="line" smooth="yes"/>
      <point x="196" y="353"/>
      <point x="239" y="353" type="qcurve" smooth="yes"/>
      <point x="292" y="353" type="line" smooth="yes"/>
      <point x="345" y="353"/>
      <point x="373" y="361"/>
      <point x="381" y="363"/>
      <point x="394" y="387"/>
      <point x="396" y="398"/>
      <point x="402" y="421" type="qcurve" smooth="yes"/>
      <point x="403" y="428"/>
      <point x="417" y="428" type="qcurve" smooth="yes"/>
      <point x="429" y="428"/>
      <point x="434" y="423" type="qcurve"/>
      <point x="434" y="234" type="line"/>
      <point x="430" y="230"/>
      <point x="418" y="230" type="qcurve" smooth="yes"/>
      <point x="405" y="230"/>
      <point x="402" y="238" type="qcurve" smooth="yes"/>
      <point x="395" y="265"/>
      <point x="385" y="292"/>
      <point x="380" y="297"/>
      <point x="374" y="301" type="qcurve" smooth="yes"/>
      <point x="361" y="309"/>
      <point x="268" y="309" type="qcurve" smooth="yes"/>
      <point x="196" y="309"/>
      <point x="196" y="300" type="qcurve" smooth="yes"/>
      <point x="196" y="145" type="line" smooth="yes"/>
      <point x="196" y="80"/>
      <point x="205" y="54" type="qcurve" smooth="yes"/>
      <point x="208" y="44"/>
      <point x="273" y="44" type="qcurve" smooth="yes"/>
      <point x="321" y="44" type="line" smooth="yes"/>
      <point x="414" y="44"/>
      <point x="447" y="61" type="qcurve" smooth="yes"/>
      <point x="462" y="69"/>
      <point x="499" y="124"/>
      <point x="510" y="162" type="qcurve" smooth="yes"/>
      <point x="512" y="168"/>
      <point x="524" y="168" type="qcurve" smooth="yes"/>
      <point x="543" y="168"/>
      <point x="549" y="162" type="qcurve"/>
      <point x="544" y="149"/>
      <point x="523" y="92"/>
      <point x="511" y="57"/>
      <point x="497" y="11"/>
      <point x="495" y="-4" type="qcurve"/>
      <point x="444" y="-4"/>
      <point x="224" y="0"/>
      <point x="154" y="0" type="qcurve"/>
      <point x="33" y="-3" type="line"/>
      <point x="30" y="0"/>
      <point x="30" y="26"/>
      <point x="33" y="26" type="qcurve" smooth="yes"/>
      <point x="46" y="26"/>
      <point x="97" y="40"/>
      <point x="102" y="49" type="qcurve" smooth="yes"/>
      <point x="109" y="61"/>
      <point x="109" y="143" type="qcurve" smooth="yes"/>
      <point x="109" y="521" type="line" smooth="yes"/>
      <point x="109" y="580"/>
      <point x="102" y="607" type="qcurve" smooth="yes"/>
      <point x="99" y="615"/>
      <point x="46" y="629"/>
      <point x="33" y="629" type="qcurve" smooth="yes"/>
      <point x="29" y="629"/>
      <point x="29" y="641" type="qcurve" smooth="yes"/>
      <point x="29" y="654"/>
      <point x="33" y="658" type="qcurve"/>
      <point x="85" y="656"/>
    </contour>
  </outline>
</glyph>
<glyph name="F" format="1">
  <advance width="551"/>
  <unicode hex="0046"/>
  <outline>
    <contour>
      <point x="163" y="656" type="qcurve" smooth="yes"/>
      <point x="208" y="656"/>
      <point x="430" y="664"/>
      <point x="486" y="664" type="qcurve"/>
      <point x="490" y="635"/>
      <point x="513" y="540"/>
      <point x="515" y="528" type="qcurve"/>
      <point x="510" y="523"/>
      <point x="484" y="523"/>
      <point x="483" y="530" type="qcurve" smooth="yes"/>
      <point x="468" y="585"/>
      <point x="414" y="616"/>
      <point x="367" y="616" type="qcurve" smooth="yes"/>
      <point x="300" y="616" type="line" smooth="yes"/>
      <point x="214" y="616"/>
      <point x="212" y="603" type="qcurve" smooth="yes"/>
      <point x="207" y="579"/>
      <point x="207" y="519" type="qcurve" smooth="yes"/>
      <point x="207" y="356" type="line" smooth="yes"/>
      <point x="207" y="350"/>
      <point x="249" y="350" type="qcurve" smooth="yes"/>
      <point x="302" y="350" type="line" smooth="yes"/>
      <point x="369" y="350"/>
      <point x="399" y="369"/>
      <point x="410" y="414" type="qcurve" smooth="yes"/>
      <point x="411" y="420"/>
      <point x="412" y="423" type="qcurve" smooth="yes"/>
      <point x="413" y="430"/>
      <point x="427" y="430" type="qcurve" smooth="yes"/>
      <point x="439" y="430"/>
      <point x="444" y="425" type="qcurve"/>
      <point x="444" y="231" type="line"/>
      <point x="440" y="227"/>
      <point x="428" y="227" type="qcurve" smooth="yes"/>
      <point x="415" y="227"/>
      <point x="412" y="235" type="qcurve" smooth="yes"/>
      <point x="405" y="262"/>
      <point x="395" y="289"/>
      <point x="390" y="294"/>
      <point x="384" y="298" type="qcurve" smooth="yes"/>
      <point x="371" y="306"/>
      <point x="278" y="306" type="qcurve" smooth="yes"/>
      <point x="207" y="306"/>
      <point x="207" y="297" type="qcurve" smooth="yes"/>
      <point x="207" y="139" type="line" smooth="yes"/>
      <point x="207" y="81"/>
      <point x="216" y="46" type="qcurve" smooth="yes"/>
      <point x="218" y="39"/>
      <point x="270" y="26"/>
      <point x="280" y="26" type="qcurve" smooth="yes"/>
      <point x="284" y="26"/>
      <point x="284" y="11" type="qcurve" smooth="yes"/>
      <point x="284" y="3"/>
      <point x="282" y="-3" type="qcurve"/>
      <point x="182" y="2"/>
      <point x="166" y="2" type="qcurve" smooth="yes"/>
      <point x="161" y="2"/>
      <point x="46" y="-3" type="qcurve"/>
      <point x="42" y="1"/>
      <point x="42" y="12" type="qcurve" smooth="yes"/>
      <point x="42" y="26"/>
      <point x="46" y="26" type="qcurve" smooth="yes"/>
      <point x="59" y="26"/>
      <point x="110" y="38"/>
      <point x="113" y="46" type="qcurve" smooth="yes"/>
      <point x="120" y="73"/>
      <point x="120" y="136" type="qcurve" smooth="yes"/>
      <point x="120" y="521" type="line" smooth="yes"/>
      <point x="120" y="580"/>
      <point x="113" y="607" type="qcurve" smooth="yes"/>
      <point x="110" y="615"/>
      <point x="57" y="629"/>
      <point x="44" y="629" type="qcurve" smooth="yes"/>
      <point x="40" y="629"/>
      <point x="40" y="641" type="qcurve" smooth="yes"/>
      <point x="40" y="654"/>
      <point x="44" y="658" type="qcurve"/>
      <point x="96" y="656"/>
    </contour>
  </outline>
</glyph>
<glyph name="G" format="1">
  <advance width="715"/>
  <unicode hex="0047"/>
  <outline>
    <contour>
      <point x="44" y="322" type="qcurve" smooth="yes"/>
      <point x="44" y="464"/>
      <point x="234" y="667"/>
      <point x="372" y="667" type="qcurve" smooth="yes"/>
      <point x="443" y="667"/>
      <point x="609" y="622" type="qcurve"/>
      <point x="613" y="508"/>
      <point x="613" y="498" type="qcurve" smooth="yes"/>
      <point x="613" y="483"/>
      <point x="592" y="483" type="qcurve" smooth="yes"/>
      <point x="582" y="483"/>
      <point x="579" y="488" type="qcurve"/>
      <point x="552" y="625"/>
      <point x="375" y="625" type="qcurve" smooth="yes"/>
      <point x="275" y="625"/>
      <point x="141" y="455"/>
      <point x="141" y="335" type="qcurve" smooth="yes"/>
      <point x="141" y="224"/>
      <point x="288" y="37"/>
      <point x="399" y="37" type="qcurve" smooth="yes"/>
      <point x="487" y="37"/>
      <point x="529" y="59" type="qcurve" smooth="yes"/>
      <point x="536" y="62"/>
      <point x="536" y="74" type="qcurve" smooth="yes"/>
      <point x="535" y="156" type="line"/>
      <point x="535" y="163" type="line" smooth="yes"/>
      <point x="535" y="228"/>
      <point x="527" y="249" type="qcurve" smooth="yes"/>
      <point x="523" y="259"/>
      <point x="466" y="271"/>
      <point x="450" y="271" type="qcurve" smooth="yes"/>
      <point x="446" y="271"/>
      <point x="446" y="296"/>
      <point x="450" y="300" type="qcurve"/>
      <point x="578" y="295"/>
      <point x="581" y="295" type="qcurve" smooth="yes"/>
      <point x="589" y="295"/>
      <point x="689" y="300" type="qcurve"/>
      <point x="691" y="294"/>
      <point x="691" y="286" type="qcurve" smooth="yes"/>
      <point x="691" y="271"/>
      <point x="687" y="271" type="qcurve" smooth="yes"/>
      <point x="681" y="271"/>
      <point x="638" y="258"/>
      <point x="629" y="253" type="qcurve"/>
      <point x="619" y="246"/>
      <point x="619" y="186" type="qcurve" smooth="yes"/>
      <point x="619" y="165"/>
      <point x="622" y="116"/>
      <point x="622" y="114" type="qcurve" smooth="yes"/>
      <point x="622" y="96"/>
      <point x="636" y="62"/>
      <point x="636" y="59" type="qcurve" smooth="yes"/>
      <point x="636" y="51"/>
      <point x="611" y="41" type="qcurve" smooth="yes"/>
      <point x="609" y="40"/>
      <point x="574" y="27"/>
      <point x="564" y="23"/>
      <point x="529" y="12"/>
      <point x="508" y="8"/>
      <point x="469" y="0"/>
      <point x="434" y="-3"/>
      <point x="387" y="-6"/>
      <point x="361" y="-6" type="qcurve" smooth="yes"/>
      <point x="229" y="-6"/>
      <point x="44" y="188"/>
    </contour>
  </outline>
</glyph>
<glyph name="H" format="1">
  <advance width="707"/>
  <unicode hex="0048"/>
  <outline>
    <contour>
      <point x="507" y="135" type="qcurve" smooth="yes"/>
      <point x="507" y="311" type="line"/>
      <point x="505" y="315" type="line"/>
      <point x="411" y="317"/>
      <point x="357" y="317" type="qcurve" smooth="yes"/>
      <point x="203" y="317"/>
      <point x="203" y="312" type="qcurve" smooth="yes"/>
      <point x="203" y="139" type="line" smooth="yes"/>
      <point x="203" y="81"/>
      <point x="212" y="46" type="qcurve" smooth="yes"/>
      <point x="214" y="39"/>
      <point x="266" y="26"/>
      <point x="276" y="26" type="qcurve" smooth="yes"/>
      <point x="279" y="26"/>
      <point x="280" y="2"/>
      <point x="278" y="-3" type="qcurve"/>
      <point x="178" y="2"/>
      <point x="162" y="2" type="qcurve" smooth="yes"/>
      <point x="157" y="2"/>
      <point x="42" y="-3" type="qcurve"/>
      <point x="38" y="1"/>
      <point x="38" y="12" type="qcurve" smooth="yes"/>
      <point x="38" y="26"/>
      <point x="42" y="26" type="qcurve" smooth="yes"/>
      <point x="55" y="26"/>
      <point x="106" y="38"/>
      <point x="109" y="46" type="qcurve" smooth="yes"/>
      <point x="116" y="73"/>
      <point x="116" y="135" type="qcurve" smooth="yes"/>
      <point x="116" y="523" type="line" smooth="yes"/>
      <point x="116" y="585"/>
      <point x="109" y="612" type="qcurve" smooth="yes"/>
      <point x="106" y="620"/>
      <point x="55" y="633"/>
      <point x="42" y="633" type="qcurve" smooth="yes"/>
      <point x="38" y="633"/>
      <point x="38" y="646" type="qcurve" smooth="yes"/>
      <point x="38" y="658"/>
      <point x="42" y="662" type="qcurve"/>
      <point x="55" y="661"/>
      <point x="135" y="656"/>
      <point x="162" y="656" type="qcurve" smooth="yes"/>
      <point x="182" y="656"/>
      <point x="220" y="658"/>
      <point x="264" y="661"/>
      <point x="278" y="662" type="qcurve"/>
      <point x="280" y="658"/>
      <point x="279" y="633"/>
      <point x="276" y="633" type="qcurve" smooth="yes"/>
      <point x="266" y="633"/>
      <point x="214" y="619"/>
      <point x="212" y="612" type="qcurve" smooth="yes"/>
      <point x="203" y="577"/>
      <point x="203" y="519" type="qcurve" smooth="yes"/>
      <point x="203" y="370" type="line"/>
      <point x="205" y="367" type="line"/>
      <point x="303" y="365"/>
      <point x="357" y="365" type="qcurve" smooth="yes"/>
      <point x="415" y="365"/>
      <point x="505" y="367" type="qcurve"/>
      <point x="507" y="369"/>
      <point x="507" y="371" type="qcurve" smooth="yes"/>
      <point x="507" y="523" type="line" smooth="yes"/>
      <point x="507" y="585"/>
      <point x="500" y="612" type="qcurve" smooth="yes"/>
      <point x="497" y="620"/>
      <point x="446" y="633"/>
      <point x="433" y="633" type="qcurve" smooth="yes"/>
      <point x="429" y="633"/>
      <point x="429" y="658"/>
      <point x="433" y="662" type="qcurve"/>
      <point x="445" y="661"/>
      <point x="527" y="656"/>
      <point x="554" y="656" type="qcurve" smooth="yes"/>
      <point x="573" y="656"/>
      <point x="611" y="658"/>
      <point x="654" y="661"/>
      <point x="668" y="662" type="qcurve"/>
      <point x="670" y="656"/>
      <point x="670" y="647" type="qcurve" smooth="yes"/>
      <point x="670" y="633"/>
      <point x="666" y="633" type="qcurve" smooth="yes"/>
      <point x="656" y="633"/>
      <point x="604" y="619"/>
      <point x="602" y="612" type="qcurve" smooth="yes"/>
      <point x="594" y="581"/>
      <point x="594" y="519" type="qcurve" smooth="yes"/>
      <point x="594" y="139" type="line" smooth="yes"/>
      <point x="594" y="77"/>
      <point x="602" y="46" type="qcurve" smooth="yes"/>
      <point x="604" y="39"/>
      <point x="656" y="26"/>
      <point x="666" y="26" type="qcurve" smooth="yes"/>
      <point x="670" y="26"/>
      <point x="670" y="11" type="qcurve" smooth="yes"/>
      <point x="670" y="3"/>
      <point x="668" y="-3" type="qcurve"/>
      <point x="568" y="2"/>
      <point x="554" y="2" type="qcurve" smooth="yes"/>
      <point x="548" y="2"/>
      <point x="433" y="-3" type="qcurve"/>
      <point x="429" y="1"/>
      <point x="429" y="26"/>
      <point x="433" y="26" type="qcurve" smooth="yes"/>
      <point x="446" y="26"/>
      <point x="497" y="38"/>
      <point x="500" y="46" type="qcurve" smooth="yes"/>
      <point x="507" y="73"/>
    </contour>
  </outline>
</glyph>
<glyph name="I" format="1">
  <advance width="318"/>
  <unicode hex="0049"/>
  <outline>
    <contour>
      <point x="116" y="523" type="line" smooth="yes"/>
      <point x="116" y="585"/>
      <point x="109" y="612" type="qcurve" smooth="yes"/>
      <point x="106" y="620"/>
      <point x="55" y="633"/>
      <point x="42" y="633" type="qcurve" smooth="yes"/>
      <point x="38" y="633"/>
      <point x="38" y="646" type="qcurve" smooth="yes"/>
      <point x="38" y="658"/>
      <point x="42" y="662" type="qcurve"/>
      <point x="157" y="657"/>
      <point x="162" y="657" type="qcurve" smooth="yes"/>
      <point x="178" y="657"/>
      <point x="278" y="662" type="qcurve"/>
      <point x="280" y="656"/>
      <point x="280" y="647" type="qcurve" smooth="yes"/>
      <point x="280" y="633"/>
      <point x="276" y="633" type="qcurve" smooth="yes"/>
      <point x="266" y="633"/>
      <point x="214" y="619"/>
      <point x="212" y="612" type="qcurve" smooth="yes"/>
      <point x="203" y="577"/>
      <point x="203" y="519" type="qcurve" smooth="yes"/>
      <point x="203" y="139" type="line" smooth="yes"/>
      <point x="203" y="81"/>
      <point x="212" y="46" type="qcurve" smooth="yes"/>
      <point x="214" y="39"/>
      <point x="266" y="26"/>
      <point x="276" y="26" type="qcurve" smooth="yes"/>
      <point x="280" y="26"/>
      <point x="280" y="11" type="qcurve" smooth="yes"/>
      <point x="280" y="3"/>
      <point x="278" y="-3" type="qcurve"/>
      <point x="178" y="2"/>
      <point x="162" y="2" type="qcurve" smooth="yes"/>
      <point x="157" y="2"/>
      <point x="42" y="-3" type="qcurve"/>
      <point x="38" y="1"/>
      <point x="38" y="12" type="qcurve" smooth="yes"/>
      <point x="38" y="26"/>
      <point x="42" y="26" type="qcurve" smooth="yes"/>
      <point x="55" y="26"/>
      <point x="106" y="38"/>
      <point x="109" y="46" type="qcurve" smooth="yes"/>
      <point x="116" y="73"/>
      <point x="116" y="135" type="qcurve" smooth="yes"/>
    </contour>
  </outline>
</glyph>
<glyph name="J" format="1">
  <advance width="322"/>
  <unicode hex="004A"/>
  <outline>
    <contour>
      <point x="178" y="656" type="qcurve" smooth="yes"/>
      <point x="198" y="656"/>
      <point x="236" y="658"/>
      <point x="280" y="661"/>
      <point x="294" y="662" type="qcurve"/>
      <point x="296" y="656"/>
      <point x="296" y="647" type="qcurve" smooth="yes"/>
      <point x="296" y="633"/>
      <point x="292" y="633" type="qcurve" smooth="yes"/>
      <point x="282" y="633"/>
      <point x="230" y="619"/>
      <point x="228" y="612" type="qcurve" smooth="yes"/>
      <point x="219" y="577"/>
      <point x="219" y="519" type="qcurve" smooth="yes"/>
      <point x="219" y="85" type="line" smooth="yes"/>
      <point x="219" y="-41"/>
      <point x="78" y="-227"/>
      <point x="-31" y="-227" type="qcurve" smooth="yes"/>
      <point x="-42" y="-227"/>
      <point x="-68" y="-219"/>
      <point x="-76" y="-215" type="qcurve" smooth="yes"/>
      <point x="-83" y="-211" type="line"/>
      <point x="-95" y="-197"/>
      <point x="-95" y="-174" type="qcurve" smooth="yes"/>
      <point x="-95" y="-152"/>
      <point x="-58" y="-124"/>
      <point x="-33" y="-124" type="qcurve" smooth="yes"/>
      <point x="-15" y="-124"/>
      <point x="30" y="-167"/>
      <point x="43" y="-167" type="qcurve" smooth="yes"/>
      <point x="57" y="-167"/>
      <point x="86" y="-139"/>
      <point x="114" y="-85"/>
      <point x="132" y="14"/>
      <point x="132" y="77" type="qcurve" smooth="yes"/>
      <point x="132" y="523" type="line" smooth="yes"/>
      <point x="132" y="585"/>
      <point x="125" y="612" type="qcurve" smooth="yes"/>
      <point x="122" y="620"/>
      <point x="71" y="633"/>
      <point x="58" y="633" type="qcurve" smooth="yes"/>
      <point x="54" y="633"/>
      <point x="54" y="646" type="qcurve" smooth="yes"/>
      <point x="54" y="658"/>
      <point x="58" y="662" type="qcurve"/>
      <point x="71" y="661"/>
      <point x="151" y="656"/>
    </contour>
  </outline>
</glyph>
<glyph name="K" format="1">
  <advance width="693"/>
  <unicode hex="004B"/>
  <outline>
    <contour>
      <point x="165" y="656" type="qcurve" smooth="yes"/>
      <point x="185" y="656"/>
      <point x="223" y="658"/>
      <point x="267" y="661"/>
      <point x="281" y="662" type="qcurve"/>
      <point x="283" y="658"/>
      <point x="282" y="633"/>
      <point x="279" y="633" type="qcurve" smooth="yes"/>
      <point x="269" y="633"/>
      <point x="217" y="619"/>
      <point x="215" y="612" type="qcurve" smooth="yes"/>
      <point x="206" y="577"/>
      <point x="206" y="519" type="qcurve" smooth="yes"/>
      <point x="206" y="356" type="line"/>
      <point x="213" y="350" type="line"/>
      <point x="220" y="350" type="line" smooth="yes"/>
      <point x="252" y="350"/>
      <point x="278" y="379" type="qcurve" smooth="yes"/>
      <point x="395" y="510"/>
      <point x="450" y="582" type="qcurve"/>
      <point x="474" y="611"/>
      <point x="474" y="620" type="qcurve" smooth="yes"/>
      <point x="474" y="637"/>
      <point x="417" y="637" type="qcurve" smooth="yes"/>
      <point x="413" y="637"/>
      <point x="413" y="655"/>
      <point x="415" y="662" type="qcurve"/>
      <point x="428" y="661"/>
      <point x="470" y="658"/>
      <point x="506" y="656"/>
      <point x="522" y="656" type="qcurve" smooth="yes"/>
      <point x="547" y="656"/>
      <point x="611" y="661"/>
      <point x="623" y="662" type="qcurve"/>
      <point x="625" y="658"/>
      <point x="624" y="637"/>
      <point x="621" y="637" type="qcurve" smooth="yes"/>
      <point x="560" y="630"/>
      <point x="529" y="595" type="qcurve" smooth="yes"/>
      <point x="328" y="361" type="line" smooth="yes"/>
      <point x="320" y="352"/>
      <point x="335" y="334" type="qcurve"/>
      <point x="576" y="69" type="line" smooth="yes"/>
      <point x="592" y="52"/>
      <point x="644" y="30"/>
      <point x="673" y="26"/>
      <point x="682" y="26" type="qcurve" smooth="yes"/>
      <point x="687" y="26"/>
      <point x="687" y="8" type="qcurve" smooth="yes"/>
      <point x="687" y="1"/>
      <point x="685" y="-3" type="qcurve"/>
      <point x="585" y="2"/>
      <point x="561" y="2" type="qcurve" smooth="yes"/>
      <point x="536" y="2"/>
      <point x="496" y="0"/>
      <point x="446" y="-2"/>
      <point x="426" y="-3" type="qcurve"/>
      <point x="422" y="1"/>
      <point x="422" y="26"/>
      <point x="426" y="26" type="qcurve" smooth="yes"/>
      <point x="438" y="26"/>
      <point x="469" y="34"/>
      <point x="469" y="42" type="qcurve" smooth="yes"/>
      <point x="469" y="74"/>
      <point x="242" y="307" type="qcurve" smooth="yes"/>
      <point x="238" y="311"/>
      <point x="213" y="311" type="qcurve" smooth="yes"/>
      <point x="206" y="311"/>
      <point x="206" y="303" type="qcurve" smooth="yes"/>
      <point x="206" y="139" type="line" smooth="yes"/>
      <point x="206" y="81"/>
      <point x="215" y="46" type="qcurve" smooth="yes"/>
      <point x="217" y="39"/>
      <point x="269" y="26"/>
      <point x="279" y="26" type="qcurve" smooth="yes"/>
      <point x="282" y="26"/>
      <point x="283" y="2"/>
      <point x="281" y="-3" type="qcurve"/>
      <point x="181" y="2"/>
      <point x="165" y="2" type="qcurve" smooth="yes"/>
      <point x="160" y="2"/>
      <point x="45" y="-3" type="qcurve"/>
      <point x="41" y="1"/>
      <point x="41" y="12" type="qcurve" smooth="yes"/>
      <point x="41" y="26"/>
      <point x="45" y="26" type="qcurve" smooth="yes"/>
      <point x="58" y="26"/>
      <point x="109" y="38"/>
      <point x="112" y="46" type="qcurve" smooth="yes"/>
      <point x="119" y="73"/>
      <point x="119" y="135" type="qcurve" smooth="yes"/>
      <point x="119" y="523" type="line" smooth="yes"/>
      <point x="119" y="585"/>
      <point x="112" y="612" type="qcurve" smooth="yes"/>
      <point x="109" y="620"/>
      <point x="58" y="633"/>
      <point x="45" y="633" type="qcurve" smooth="yes"/>
      <point x="41" y="633"/>
      <point x="41" y="646" type="qcurve" smooth="yes"/>
      <point x="41" y="658"/>
      <point x="45" y="662" type="qcurve"/>
      <point x="58" y="661"/>
      <point x="138" y="656"/>
    </contour>
  </outline>
</glyph>
<glyph name="L" format="1">
  <advance width="568"/>
  <unicode hex="004C"/>
  <outline>
    <contour>
      <point x="161" y="656" type="qcurve" smooth="yes"/>
      <point x="181" y="656"/>
      <point x="219" y="658"/>
      <point x="263" y="661"/>
      <point x="277" y="662" type="qcurve"/>
      <point x="279" y="656"/>
      <point x="279" y="647" type="qcurve" smooth="yes"/>
      <point x="279" y="633"/>
      <point x="275" y="633" type="qcurve" smooth="yes"/>
      <point x="265" y="633"/>
      <point x="213" y="619"/>
      <point x="211" y="612" type="qcurve" smooth="yes"/>
      <point x="202" y="577"/>
      <point x="202" y="519" type="qcurve" smooth="yes"/>
      <point x="202" y="142" type="line" smooth="yes"/>
      <point x="202" y="89"/>
      <point x="211" y="54" type="qcurve" smooth="yes"/>
      <point x="214" y="44"/>
      <point x="279" y="44" type="qcurve" smooth="yes"/>
      <point x="327" y="44" type="line" smooth="yes"/>
      <point x="420" y="44"/>
      <point x="453" y="61" type="qcurve" smooth="yes"/>
      <point x="468" y="69"/>
      <point x="505" y="124"/>
      <point x="516" y="162" type="qcurve" smooth="yes"/>
      <point x="518" y="168"/>
      <point x="530" y="168" type="qcurve" smooth="yes"/>
      <point x="549" y="168"/>
      <point x="555" y="162" type="qcurve"/>
      <point x="550" y="149"/>
      <point x="529" y="92"/>
      <point x="517" y="57"/>
      <point x="503" y="11"/>
      <point x="501" y="-4" type="qcurve"/>
      <point x="449" y="-4"/>
      <point x="228" y="2"/>
      <point x="160" y="2" type="qcurve"/>
      <point x="39" y="-1" type="line"/>
      <point x="36" y="2"/>
      <point x="36" y="28"/>
      <point x="39" y="28" type="qcurve" smooth="yes"/>
      <point x="53" y="28"/>
      <point x="103" y="40"/>
      <point x="108" y="49" type="qcurve" smooth="yes"/>
      <point x="115" y="61"/>
      <point x="115" y="143" type="qcurve" smooth="yes"/>
      <point x="115" y="521" type="line" smooth="yes"/>
      <point x="115" y="585"/>
      <point x="108" y="612" type="qcurve" smooth="yes"/>
      <point x="105" y="620"/>
      <point x="54" y="633"/>
      <point x="41" y="633" type="qcurve" smooth="yes"/>
      <point x="37" y="633"/>
      <point x="37" y="646" type="qcurve" smooth="yes"/>
      <point x="37" y="658"/>
      <point x="41" y="662" type="qcurve"/>
      <point x="54" y="661"/>
      <point x="134" y="656"/>
    </contour>
  </outline>
</glyph>
<glyph name="M" format="1">
  <advance width="910"/>
  <unicode hex="004D"/>
  <outline>
    <contour>
      <point x="167" y="657" type="qcurve" smooth="yes"/>
      <point x="204" y="657"/>
      <point x="259" y="662" type="qcurve"/>
      <point x="266" y="639"/>
      <point x="457" y="161" type="qcurve" smooth="yes"/>
      <point x="458" y="159"/>
      <point x="461" y="159" type="qcurve" smooth="yes"/>
      <point x="465" y="159"/>
      <point x="466" y="163" type="qcurve" smooth="yes"/>
      <point x="564" y="393"/>
      <point x="622" y="542" type="qcurve"/>
      <point x="662" y="662" type="line"/>
      <point x="726" y="658"/>
      <point x="745" y="658" type="qcurve" smooth="yes"/>
      <point x="807" y="658"/>
      <point x="857" y="662" type="qcurve"/>
      <point x="860" y="653"/>
      <point x="860" y="647" type="qcurve" smooth="yes"/>
      <point x="860" y="633"/>
      <point x="855" y="633" type="qcurve" smooth="yes"/>
      <point x="853" y="633" type="line" smooth="yes"/>
      <point x="842" y="633"/>
      <point x="806" y="620"/>
      <point x="797" y="613" type="qcurve" smooth="yes"/>
      <point x="785" y="604"/>
      <point x="785" y="546" type="qcurve" smooth="yes"/>
      <point x="785" y="530"/>
      <point x="794" y="140" type="qcurve" smooth="yes"/>
      <point x="795" y="83"/>
      <point x="809" y="48" type="qcurve" smooth="yes"/>
      <point x="813" y="39"/>
      <point x="865" y="26"/>
      <point x="876" y="26" type="qcurve" smooth="yes"/>
      <point x="880" y="26"/>
      <point x="880" y="12" type="qcurve" smooth="yes"/>
      <point x="880" y="3"/>
      <point x="878" y="-3" type="qcurve"/>
      <point x="778" y="2"/>
      <point x="759" y="2" type="qcurve" smooth="yes"/>
      <point x="754" y="2"/>
      <point x="639" y="-3" type="qcurve"/>
      <point x="635" y="1"/>
      <point x="635" y="13" type="qcurve" smooth="yes"/>
      <point x="635" y="26"/>
      <point x="639" y="26" type="qcurve" smooth="yes"/>
      <point x="649" y="26"/>
      <point x="690" y="36"/>
      <point x="699" y="41" type="qcurve" smooth="yes"/>
      <point x="711" y="48"/>
      <point x="711" y="84" type="qcurve" smooth="yes"/>
      <point x="711" y="137" type="line"/>
      <point x="699" y="489" type="line" smooth="yes"/>
      <point x="698" y="505"/>
      <point x="689" y="548"/>
      <point x="684" y="548" type="qcurve" smooth="yes"/>
      <point x="682" y="548"/>
      <point x="679" y="541" type="qcurve" smooth="yes"/>
      <point x="470" y="41" type="line" smooth="yes"/>
      <point x="451" y="-2"/>
      <point x="433" y="-2" type="qcurve" smooth="yes"/>
      <point x="430" y="-2"/>
      <point x="424" y="0" type="qcurve"/>
      <point x="195" y="582" type="line"/>
      <point x="193" y="486"/>
      <point x="185" y="238"/>
      <point x="179" y="77"/>
      <point x="179" y="75" type="qcurve" smooth="yes"/>
      <point x="179" y="57"/>
      <point x="191" y="41"/>
      <point x="252" y="26"/>
      <point x="262" y="26" type="qcurve" smooth="yes"/>
      <point x="266" y="26"/>
      <point x="266" y="11" type="qcurve" smooth="yes"/>
      <point x="266" y="3"/>
      <point x="264" y="-3" type="qcurve"/>
      <point x="164" y="2"/>
      <point x="148" y="2" type="qcurve" smooth="yes"/>
      <point x="146" y="2"/>
      <point x="31" y="-3" type="qcurve"/>
      <point x="26" y="2"/>
      <point x="26" y="12" type="qcurve" smooth="yes"/>
      <point x="26" y="26"/>
      <point x="31" y="26" type="qcurve" smooth="yes"/>
      <point x="45" y="26"/>
      <point x="100" y="39"/>
      <point x="109" y="48" type="qcurve" smooth="yes"/>
      <point x="125" y="66"/>
      <point x="127" y="135" type="qcurve" smooth="yes"/>
      <point x="129" y="239"/>
      <point x="134" y="441"/>
      <point x="138" y="556"/>
      <point x="138" y="572" type="qcurve" smooth="yes"/>
      <point x="138" y="597"/>
      <point x="134" y="612" type="qcurve" smooth="yes"/>
      <point x="131" y="620"/>
      <point x="69" y="633"/>
      <point x="55" y="633" type="qcurve" smooth="yes"/>
      <point x="51" y="633"/>
      <point x="51" y="647" type="qcurve" smooth="yes"/>
      <point x="51" y="658"/>
      <point x="55" y="662" type="qcurve"/>
      <point x="72" y="661"/>
      <point x="113" y="659"/>
      <point x="147" y="657"/>
    </contour>
  </outline>
</glyph>
<glyph name="N" format="1">
  <advance width="721"/>
  <unicode hex="004E"/>
  <outline>
    <contour>
      <point x="551" y="524" type="line" smooth="yes"/>
      <point x="551" y="585"/>
      <point x="544" y="612" type="qcurve" smooth="yes"/>
      <point x="541" y="620"/>
      <point x="478" y="635"/>
      <point x="465" y="635" type="qcurve" smooth="yes"/>
      <point x="461" y="635"/>
      <point x="461" y="658"/>
      <point x="465" y="662" type="qcurve"/>
      <point x="478" y="661"/>
      <point x="556" y="656"/>
      <point x="583" y="656" type="qcurve" smooth="yes"/>
      <point x="609" y="656"/>
      <point x="688" y="662"/>
      <point x="695" y="662" type="qcurve"/>
      <point x="697" y="656"/>
      <point x="697" y="647" type="qcurve" smooth="yes"/>
      <point x="697" y="635"/>
      <point x="693" y="635" type="qcurve" smooth="yes"/>
      <point x="683" y="635"/>
      <point x="616" y="619"/>
      <point x="614" y="612" type="qcurve" smooth="yes"/>
      <point x="606" y="581"/>
      <point x="606" y="519" type="qcurve" smooth="yes"/>
      <point x="606" y="139" type="line" smooth="yes"/>
      <point x="606" y="77"/>
      <point x="609" y="-1" type="qcurve"/>
      <point x="605" y="-5"/>
      <point x="590" y="-5" type="qcurve" smooth="yes"/>
      <point x="573" y="-5"/>
      <point x="557" y="18" type="qcurve" smooth="yes"/>
      <point x="169" y="568" type="line"/>
      <point x="169" y="141" type="line" smooth="yes"/>
      <point x="169" y="75"/>
      <point x="176" y="48" type="qcurve" smooth="yes"/>
      <point x="178" y="41"/>
      <point x="241" y="26"/>
      <point x="251" y="26" type="qcurve" smooth="yes"/>
      <point x="254" y="26"/>
      <point x="255" y="2"/>
      <point x="253" y="-3" type="qcurve"/>
      <point x="153" y="2"/>
      <point x="138" y="2" type="qcurve" smooth="yes"/>
      <point x="23" y="-3" type="line"/>
      <point x="20" y="0"/>
      <point x="20" y="12" type="qcurve" smooth="yes"/>
      <point x="20" y="26"/>
      <point x="23" y="26" type="qcurve" smooth="yes"/>
      <point x="37" y="26"/>
      <point x="100" y="41"/>
      <point x="103" y="50" type="qcurve" smooth="yes"/>
      <point x="113" y="76"/>
      <point x="113" y="144" type="qcurve" smooth="yes"/>
      <point x="113" y="537" type="line" smooth="yes"/>
      <point x="113" y="586"/>
      <point x="106" y="612" type="qcurve" smooth="yes"/>
      <point x="103" y="620"/>
      <point x="41" y="633"/>
      <point x="27" y="633" type="qcurve" smooth="yes"/>
      <point x="23" y="633"/>
      <point x="23" y="658"/>
      <point x="27" y="662" type="qcurve"/>
      <point x="105" y="660"/>
      <point x="129" y="660" type="qcurve" smooth="yes"/>
      <point x="181" y="660"/>
      <point x="209" y="662" type="qcurve"/>
      <point x="246" y="594"/>
      <point x="548" y="172" type="qcurve"/>
      <point x="551" y="189"/>
      <point x="551" y="213" type="qcurve" smooth="yes"/>
    </contour>
  </outline>
</glyph>
<glyph name="O" format="1">
  <advance width="728"/>
  <unicode hex="004F"/>
  <outline>
    <contour>
      <point x="348" y="625" type="qcurve" smooth="yes"/>
      <point x="253" y="625"/>
      <point x="143" y="459"/>
      <point x="143" y="350" type="qcurve" smooth="yes"/>
      <point x="143" y="270"/>
      <point x="195" y="128"/>
      <point x="305" y="33"/>
      <point x="379" y="33" type="qcurve" smooth="yes"/>
      <point x="443" y="33"/>
      <point x="539" y="116"/>
      <point x="584" y="239"/>
      <point x="584" y="309" type="qcurve" smooth="yes"/>
      <point x="584" y="389"/>
      <point x="532" y="530"/>
      <point x="422" y="625"/>
    </contour>
    <contour>
      <point x="44" y="468"/>
      <point x="231" y="667"/>
      <point x="495" y="667"/>
      <point x="683" y="468"/>
      <point x="683" y="188"/>
      <point x="495" y="-10"/>
      <point x="231" y="-10"/>
      <point x="44" y="188"/>
    </contour>
  </outline>
</glyph>
<glyph name="P" format="1">
  <advance width="545"/>
  <unicode hex="0050"/>
  <outline>
    <contour>
      <point x="164" y="656" type="line" smooth="yes"/>
      <point x="194" y="656"/>
      <point x="276" y="660"/>
      <point x="305" y="660" type="qcurve" smooth="yes"/>
      <point x="338" y="660"/>
      <point x="405" y="640"/>
      <point x="468" y="600"/>
      <point x="508" y="526"/>
      <point x="508" y="477" type="qcurve" smooth="yes"/>
      <point x="508" y="448"/>
      <point x="483" y="381"/>
      <point x="435" y="318"/>
      <point x="354" y="277"/>
      <point x="304" y="277" type="qcurve" smooth="yes"/>
      <point x="248" y="277"/>
      <point x="227" y="305" type="qcurve" smooth="yes"/>
      <point x="221" y="312"/>
      <point x="224" y="328" type="qcurve" smooth="yes"/>
      <point x="225" y="332"/>
      <point x="227" y="331" type="qcurve" smooth="yes"/>
      <point x="257" y="320"/>
      <point x="294" y="320" type="qcurve" smooth="yes"/>
      <point x="344" y="320"/>
      <point x="416" y="404"/>
      <point x="416" y="462" type="qcurve" smooth="yes"/>
      <point x="416" y="533"/>
      <point x="354" y="616"/>
      <point x="289" y="616" type="qcurve" smooth="yes"/>
      <point x="244" y="616"/>
      <point x="219" y="609" type="qcurve" smooth="yes"/>
      <point x="214" y="608"/>
      <point x="210" y="595"/>
      <point x="207" y="547"/>
      <point x="207" y="499" type="qcurve" smooth="yes"/>
      <point x="207" y="142" type="line" smooth="yes"/>
      <point x="207" y="75"/>
      <point x="215" y="55" type="qcurve" smooth="yes"/>
      <point x="220" y="42"/>
      <point x="281" y="26"/>
      <point x="294" y="26" type="qcurve" smooth="yes"/>
      <point x="298" y="26"/>
      <point x="298" y="12" type="qcurve" smooth="yes"/>
      <point x="298" y="3"/>
      <point x="296" y="-3" type="qcurve"/>
      <point x="196" y="2"/>
      <point x="166" y="2" type="qcurve"/>
      <point x="44" y="-3" type="line"/>
      <point x="41" y="0"/>
      <point x="41" y="15" type="qcurve" smooth="yes"/>
      <point x="41" y="28"/>
      <point x="44" y="28" type="qcurve" smooth="yes"/>
      <point x="58" y="28"/>
      <point x="108" y="40"/>
      <point x="113" y="49" type="qcurve" smooth="yes"/>
      <point x="120" y="61"/>
      <point x="120" y="143" type="qcurve" smooth="yes"/>
      <point x="120" y="521" type="line" smooth="yes"/>
      <point x="120" y="580"/>
      <point x="113" y="607" type="qcurve" smooth="yes"/>
      <point x="110" y="615"/>
      <point x="57" y="629"/>
      <point x="44" y="629" type="qcurve" smooth="yes"/>
      <point x="40" y="629"/>
      <point x="40" y="641" type="qcurve" smooth="yes"/>
      <point x="40" y="654"/>
      <point x="44" y="658" type="qcurve"/>
    </contour>
  </outline>
</glyph>
<glyph name="Q" format="1">
  <advance width="724"/>
  <unicode hex="0051"/>
  <outline>
    <contour>
      <point x="348" y="625" type="qcurve" smooth="yes"/>
      <point x="253" y="625"/>
      <point x="139" y="458"/>
      <point x="139" y="350" type="qcurve" smooth="yes"/>
      <point x="139" y="225"/>
      <point x="269" y="33"/>
      <point x="379" y="33" type="qcurve" smooth="yes"/>
      <point x="475" y="33"/>
      <point x="588" y="200"/>
      <point x="588" y="309" type="qcurve" smooth="yes"/>
      <point x="588" y="434"/>
      <point x="458" y="625"/>
    </contour>
    <contour>
      <point x="692" y="-84" type="qcurve" smooth="yes"/>
      <point x="710" y="-84"/>
      <point x="740" y="-80"/>
      <point x="758" y="-76"/>
      <point x="760" y="-76" type="qcurve" smooth="yes"/>
      <point x="772" y="-76"/>
      <point x="772" y="-96" type="qcurve" smooth="yes"/>
      <point x="772" y="-101" type="line"/>
      <point x="706" y="-136"/>
      <point x="604" y="-136" type="qcurve" smooth="yes"/>
      <point x="556" y="-136"/>
      <point x="443" y="-84"/>
      <point x="318" y="-13"/>
      <point x="277" y="0" type="qcurve" smooth="yes"/>
      <point x="241" y="11"/>
      <point x="165" y="63"/>
      <point x="91" y="143"/>
      <point x="44" y="262"/>
      <point x="44" y="328" type="qcurve" smooth="yes"/>
      <point x="44" y="468"/>
      <point x="231" y="667"/>
      <point x="495" y="667"/>
      <point x="683" y="468"/>
      <point x="683" y="328" type="qcurve" smooth="yes"/>
      <point x="683" y="200"/>
      <point x="536" y="20"/>
      <point x="459" y="5" type="qcurve"/>
      <point x="486" y="-8"/>
      <point x="581" y="-64"/>
      <point x="645" y="-84"/>
    </contour>
  </outline>
</glyph>
<glyph name="R" format="1">
  <advance width="660"/>
  <unicode hex="0052"/>
  <outline>
    <contour>
      <point x="287" y="616" type="qcurve" smooth="yes"/>
      <point x="242" y="616"/>
      <point x="217" y="609" type="qcurve" smooth="yes"/>
      <point x="213" y="608"/>
      <point x="208" y="595"/>
      <point x="205" y="548"/>
      <point x="205" y="499" type="qcurve" smooth="yes"/>
      <point x="205" y="378" type="line" smooth="yes"/>
      <point x="205" y="349"/>
      <point x="292" y="349" type="qcurve" smooth="yes"/>
      <point x="317" y="349" type="line" smooth="yes"/>
      <point x="352" y="349"/>
      <point x="427" y="419"/>
      <point x="427" y="477" type="qcurve" smooth="yes"/>
      <point x="427" y="616"/>
    </contour>
    <contour>
      <point x="303" y="660" type="qcurve" smooth="yes"/>
      <point x="337" y="660"/>
      <point x="407" y="640"/>
      <point x="475" y="600"/>
      <point x="519" y="526"/>
      <point x="519" y="477" type="qcurve" smooth="yes"/>
      <point x="519" y="435"/>
      <point x="456" y="343"/>
      <point x="402" y="318" type="qcurve" smooth="yes"/>
      <point x="392" y="314"/>
      <point x="396" y="308" type="qcurve"/>
      <point x="446" y="203"/>
      <point x="511" y="132" type="qcurve" smooth="yes"/>
      <point x="607" y="27"/>
      <point x="667" y="27" type="qcurve"/>
      <point x="670" y="21"/>
      <point x="670" y="13" type="qcurve" smooth="yes"/>
      <point x="670" y="4"/>
      <point x="667" y="-2" type="qcurve"/>
      <point x="656" y="-5"/>
      <point x="640" y="-5" type="qcurve" smooth="yes"/>
      <point x="500" y="-5"/>
      <point x="397" y="139" type="qcurve" smooth="yes"/>
      <point x="381" y="161"/>
      <point x="340" y="222"/>
      <point x="321" y="249"/>
      <point x="296" y="281"/>
      <point x="277" y="297"/>
      <point x="266" y="302" type="qcurve" smooth="yes"/>
      <point x="255" y="306"/>
      <point x="229" y="306" type="qcurve" smooth="yes"/>
      <point x="221" y="306"/>
      <point x="213" y="305"/>
      <point x="205" y="297"/>
      <point x="205" y="289" type="qcurve" smooth="yes"/>
      <point x="205" y="142" type="line" smooth="yes"/>
      <point x="205" y="75"/>
      <point x="213" y="55" type="qcurve" smooth="yes"/>
      <point x="218" y="42"/>
      <point x="279" y="26"/>
      <point x="292" y="26" type="qcurve" smooth="yes"/>
      <point x="296" y="26"/>
      <point x="296" y="12" type="qcurve" smooth="yes"/>
      <point x="296" y="3"/>
      <point x="294" y="-3" type="qcurve"/>
      <point x="194" y="2"/>
      <point x="164" y="2" type="qcurve"/>
      <point x="42" y="-3" type="line"/>
      <point x="39" y="0"/>
      <point x="39" y="15" type="qcurve" smooth="yes"/>
      <point x="39" y="28"/>
      <point x="42" y="28" type="qcurve" smooth="yes"/>
      <point x="56" y="28"/>
      <point x="106" y="40"/>
      <point x="111" y="49" type="qcurve" smooth="yes"/>
      <point x="118" y="61"/>
      <point x="118" y="143" type="qcurve" smooth="yes"/>
      <point x="118" y="521" type="line" smooth="yes"/>
      <point x="118" y="580"/>
      <point x="111" y="607" type="qcurve" smooth="yes"/>
      <point x="108" y="615"/>
      <point x="55" y="629"/>
      <point x="42" y="629" type="qcurve" smooth="yes"/>
      <point x="38" y="629"/>
      <point x="38" y="641" type="qcurve" smooth="yes"/>
      <point x="38" y="654"/>
      <point x="42" y="658" type="qcurve"/>
      <point x="162" y="656" type="line" smooth="yes"/>
      <point x="192" y="656"/>
      <point x="274" y="660"/>
    </contour>
  </outline>
</glyph>
<glyph name="S" format="1">
  <advance width="491"/>
  <unicode hex="0053"/>
  <outline>
    <contour>
      <point x="61" y="490" type="qcurve" smooth="yes"/>
      <point x="61" y="567"/>
      <point x="179" y="666"/>
      <point x="257" y="666" type="qcurve" smooth="yes"/>
      <point x="279" y="666"/>
      <point x="318" y="661"/>
      <point x="343" y="655"/>
      <point x="390" y="642"/>
      <point x="408" y="638" type="qcurve"/>
      <point x="420" y="585"/>
      <point x="420" y="495" type="qcurve" smooth="yes"/>
      <point x="420" y="488"/>
      <point x="410" y="488" type="qcurve" smooth="yes"/>
      <point x="386" y="488"/>
      <point x="384" y="498" type="qcurve" smooth="yes"/>
      <point x="379" y="542"/>
      <point x="304" y="625"/>
      <point x="250" y="625" type="qcurve" smooth="yes"/>
      <point x="190" y="625"/>
      <point x="141" y="565"/>
      <point x="141" y="521" type="qcurve" smooth="yes"/>
      <point x="141" y="502"/>
      <point x="155" y="467"/>
      <point x="169" y="444"/>
      <point x="206" y="414"/>
      <point x="223" y="402"/>
      <point x="274" y="370"/>
      <point x="281" y="366" type="qcurve" smooth="yes"/>
      <point x="286" y="363"/>
      <point x="346" y="326"/>
      <point x="368" y="311"/>
      <point x="415" y="272"/>
      <point x="436" y="242"/>
      <point x="455" y="197"/>
      <point x="455" y="173" type="qcurve" smooth="yes"/>
      <point x="455" y="93"/>
      <point x="330" y="-10"/>
      <point x="246" y="-10" type="qcurve" smooth="yes"/>
      <point x="222" y="-10"/>
      <point x="168" y="-3"/>
      <point x="132" y="4"/>
      <point x="77" y="17"/>
      <point x="66" y="19" type="qcurve"/>
      <point x="41" y="142"/>
      <point x="41" y="178" type="qcurve" smooth="yes"/>
      <point x="41" y="184"/>
      <point x="57" y="184" type="qcurve" smooth="yes"/>
      <point x="75" y="184"/>
      <point x="82" y="175" type="qcurve"/>
      <point x="116" y="31"/>
      <point x="248" y="31" type="qcurve" smooth="yes"/>
      <point x="298" y="31"/>
      <point x="368" y="91"/>
      <point x="368" y="146" type="qcurve" smooth="yes"/>
      <point x="368" y="166"/>
      <point x="356" y="200"/>
      <point x="343" y="222"/>
      <point x="310" y="247"/>
      <point x="292" y="259"/>
      <point x="244" y="285"/>
      <point x="235" y="290" type="qcurve" smooth="yes"/>
      <point x="206" y="307"/>
      <point x="183" y="321"/>
      <point x="130" y="356"/>
      <point x="106" y="383"/>
      <point x="74" y="422"/>
      <point x="61" y="466"/>
    </contour>
  </outline>
</glyph>
<glyph name="T" format="1">
  <advance width="669"/>
  <unicode hex="0054"/>
  <outline>
    <contour>
      <point x="379" y="656"/>
      <point x="517" y="660"/>
      <point x="555" y="660" type="qcurve" smooth="yes"/>
      <point x="580" y="660"/>
      <point x="624" y="671" type="qcurve"/>
      <point x="643" y="528" type="line"/>
      <point x="636" y="521"/>
      <point x="619" y="521" type="qcurve" smooth="yes"/>
      <point x="610" y="521"/>
      <point x="609" y="526" type="qcurve" smooth="yes"/>
      <point x="595" y="582"/>
      <point x="554" y="615"/>
      <point x="497" y="615" type="qcurve" smooth="yes"/>
      <point x="391" y="615"/>
      <point x="387" y="600" type="qcurve" smooth="yes"/>
      <point x="378" y="568"/>
      <point x="378" y="500" type="qcurve" smooth="yes"/>
      <point x="378" y="139" type="line" smooth="yes"/>
      <point x="378" y="81"/>
      <point x="387" y="46" type="qcurve" smooth="yes"/>
      <point x="389" y="39"/>
      <point x="441" y="26"/>
      <point x="451" y="26" type="qcurve" smooth="yes"/>
      <point x="455" y="26"/>
      <point x="455" y="11" type="qcurve" smooth="yes"/>
      <point x="455" y="3"/>
      <point x="453" y="-3" type="qcurve"/>
      <point x="353" y="2"/>
      <point x="337" y="2" type="qcurve" smooth="yes"/>
      <point x="332" y="2"/>
      <point x="217" y="-3" type="qcurve"/>
      <point x="213" y="1"/>
      <point x="213" y="12" type="qcurve" smooth="yes"/>
      <point x="213" y="26"/>
      <point x="217" y="26" type="qcurve" smooth="yes"/>
      <point x="230" y="26"/>
      <point x="281" y="38"/>
      <point x="284" y="46" type="qcurve" smooth="yes"/>
      <point x="291" y="73"/>
      <point x="291" y="135" type="qcurve" smooth="yes"/>
      <point x="291" y="497" type="line" smooth="yes"/>
      <point x="291" y="584"/>
      <point x="282" y="600" type="qcurve" smooth="yes"/>
      <point x="274" y="615"/>
      <point x="174" y="615" type="qcurve" smooth="yes"/>
      <point x="117" y="615"/>
      <point x="76" y="582"/>
      <point x="62" y="526" type="qcurve" smooth="yes"/>
      <point x="61" y="521"/>
      <point x="52" y="521" type="qcurve" smooth="yes"/>
      <point x="35" y="521"/>
      <point x="28" y="528" type="qcurve"/>
      <point x="47" y="671" type="line"/>
      <point x="91" y="660"/>
      <point x="116" y="660" type="qcurve" smooth="yes"/>
      <point x="154" y="660"/>
      <point x="291" y="656"/>
    </contour>
  </outline>
</glyph>
<glyph name="U" format="1">
  <advance width="719"/>
  <unicode hex="0055"/>
  <outline>
    <contour>
      <point x="157" y="657" type="qcurve" smooth="yes"/>
      <point x="173" y="657"/>
      <point x="273" y="662" type="qcurve"/>
      <point x="275" y="656"/>
      <point x="275" y="648" type="qcurve" smooth="yes"/>
      <point x="275" y="633"/>
      <point x="271" y="633" type="qcurve" smooth="yes"/>
      <point x="261" y="633"/>
      <point x="209" y="619"/>
      <point x="207" y="612" type="qcurve" smooth="yes"/>
      <point x="198" y="577"/>
      <point x="198" y="519" type="qcurve" smooth="yes"/>
      <point x="198" y="296" type="line" smooth="yes"/>
      <point x="198" y="183"/>
      <point x="294" y="49"/>
      <point x="382" y="49" type="qcurve" smooth="yes"/>
      <point x="553" y="49"/>
      <point x="553" y="274" type="qcurve" smooth="yes"/>
      <point x="553" y="524" type="line" smooth="yes"/>
      <point x="553" y="585"/>
      <point x="546" y="612" type="qcurve" smooth="yes"/>
      <point x="543" y="620"/>
      <point x="480" y="635"/>
      <point x="467" y="635" type="qcurve" smooth="yes"/>
      <point x="463" y="635"/>
      <point x="463" y="658"/>
      <point x="467" y="662" type="qcurve"/>
      <point x="480" y="661"/>
      <point x="558" y="656"/>
      <point x="585" y="656" type="qcurve" smooth="yes"/>
      <point x="611" y="656"/>
      <point x="690" y="662"/>
      <point x="697" y="662" type="qcurve"/>
      <point x="699" y="656"/>
      <point x="699" y="647" type="qcurve" smooth="yes"/>
      <point x="699" y="635"/>
      <point x="695" y="635" type="qcurve" smooth="yes"/>
      <point x="685" y="635"/>
      <point x="618" y="619"/>
      <point x="616" y="612" type="qcurve" smooth="yes"/>
      <point x="608" y="581"/>
      <point x="608" y="519" type="qcurve" smooth="yes"/>
      <point x="608" y="276" type="line" smooth="yes"/>
      <point x="608" y="121"/>
      <point x="478" y="0"/>
      <point x="358" y="0" type="qcurve" smooth="yes"/>
      <point x="239" y="0"/>
      <point x="111" y="140"/>
      <point x="111" y="296" type="qcurve" smooth="yes"/>
      <point x="111" y="523" type="line" smooth="yes"/>
      <point x="111" y="585"/>
      <point x="104" y="612" type="qcurve" smooth="yes"/>
      <point x="101" y="620"/>
      <point x="50" y="633"/>
      <point x="37" y="633" type="qcurve" smooth="yes"/>
      <point x="33" y="633"/>
      <point x="33" y="646" type="qcurve" smooth="yes"/>
      <point x="33" y="658"/>
      <point x="37" y="662" type="qcurve"/>
      <point x="152" y="657"/>
    </contour>
  </outline>
</glyph>
<glyph name="V" format="1">
  <advance width="709"/>
  <unicode hex="0056"/>
  <outline>
    <contour>
      <point x="136" y="657" type="qcurve" smooth="yes"/>
      <point x="160" y="657"/>
      <point x="260" y="662" type="qcurve"/>
      <point x="262" y="658"/>
      <point x="261" y="633"/>
      <point x="258" y="633" type="qcurve" smooth="yes"/>
      <point x="251" y="633"/>
      <point x="227" y="629"/>
      <point x="199" y="613"/>
      <point x="199" y="600" type="qcurve" smooth="yes"/>
      <point x="199" y="571"/>
      <point x="325" y="263" type="qcurve" smooth="yes"/>
      <point x="352" y="195"/>
      <point x="368" y="157" type="qcurve" smooth="yes"/>
      <point x="371" y="152"/>
      <point x="382" y="157"/>
      <point x="384" y="162" type="qcurve" smooth="yes"/>
      <point x="534" y="524" type="line"/>
      <point x="553" y="573"/>
      <point x="553" y="594" type="qcurve" smooth="yes"/>
      <point x="553" y="608"/>
      <point x="521" y="628"/>
      <point x="492" y="633"/>
      <point x="483" y="633" type="qcurve" smooth="yes"/>
      <point x="479" y="633"/>
      <point x="479" y="658"/>
      <point x="483" y="662" type="qcurve"/>
      <point x="576" y="657"/>
      <point x="590" y="657" type="qcurve" smooth="yes"/>
      <point x="591" y="657"/>
      <point x="691" y="662" type="qcurve"/>
      <point x="693" y="656"/>
      <point x="693" y="647" type="qcurve" smooth="yes"/>
      <point x="693" y="633"/>
      <point x="689" y="633" type="qcurve" smooth="yes"/>
      <point x="644" y="633"/>
      <point x="629" y="605" type="qcurve" smooth="yes"/>
      <point x="606" y="563"/>
      <point x="580" y="502" type="qcurve" smooth="yes"/>
      <point x="380" y="24" type="line" smooth="yes"/>
      <point x="367" y="-9"/>
      <point x="345" y="-9" type="qcurve" smooth="yes"/>
      <point x="338" y="-9"/>
      <point x="335" y="-3" type="qcurve" smooth="yes"/>
      <point x="130" y="514" type="line"/>
      <point x="105" y="580"/>
      <point x="85" y="610" type="qcurve" smooth="yes"/>
      <point x="78" y="621"/>
      <point x="34" y="633"/>
      <point x="21" y="633" type="qcurve" smooth="yes"/>
      <point x="17" y="633"/>
      <point x="17" y="646" type="qcurve" smooth="yes"/>
      <point x="17" y="658"/>
      <point x="21" y="662" type="qcurve"/>
      <point x="37" y="661"/>
      <point x="81" y="659"/>
      <point x="116" y="657"/>
    </contour>
  </outline>
</glyph>
<glyph name="W" format="1">
  <advance width="1076"/>
  <unicode hex="0057"/>
  <outline>
    <contour>
      <point x="146" y="657" type="qcurve" smooth="yes"/>
      <point x="151" y="657"/>
      <point x="251" y="662" type="qcurve"/>
      <point x="253" y="658"/>
      <point x="252" y="633"/>
      <point x="249" y="633" type="qcurve" smooth="yes"/>
      <point x="242" y="633"/>
      <point x="222" y="630"/>
      <point x="199" y="615"/>
      <point x="199" y="604" type="qcurve" smooth="yes"/>
      <point x="199" y="574"/>
      <point x="222" y="530" type="qcurve" smooth="yes"/>
      <point x="429" y="120" type="line" smooth="yes"/>
      <point x="432" y="115"/>
      <point x="442" y="120"/>
      <point x="444" y="125" type="qcurve" smooth="yes"/>
      <point x="527" y="298" type="line"/>
      <point x="422" y="514" type="line" smooth="yes"/>
      <point x="393" y="573"/>
      <point x="364" y="610" type="qcurve" smooth="yes"/>
      <point x="356" y="620"/>
      <point x="318" y="633"/>
      <point x="306" y="633" type="qcurve" smooth="yes"/>
      <point x="302" y="633"/>
      <point x="302" y="648" type="qcurve" smooth="yes"/>
      <point x="302" y="658"/>
      <point x="306" y="662" type="qcurve"/>
      <point x="421" y="657"/>
      <point x="432" y="657" type="qcurve" smooth="yes"/>
      <point x="436" y="657"/>
      <point x="536" y="662" type="qcurve"/>
      <point x="538" y="658"/>
      <point x="537" y="633"/>
      <point x="534" y="633" type="qcurve" smooth="yes"/>
      <point x="527" y="633"/>
      <point x="508" y="630"/>
      <point x="485" y="616"/>
      <point x="485" y="604" type="qcurve" smooth="yes"/>
      <point x="485" y="578"/>
      <point x="508" y="530" type="qcurve" smooth="yes"/>
      <point x="574" y="395" type="line"/>
      <point x="644" y="542" type="line" smooth="yes"/>
      <point x="658" y="573"/>
      <point x="658" y="600" type="qcurve" smooth="yes"/>
      <point x="658" y="617"/>
      <point x="615" y="633"/>
      <point x="599" y="633" type="qcurve" smooth="yes"/>
      <point x="595" y="633"/>
      <point x="595" y="658"/>
      <point x="599" y="662" type="qcurve"/>
      <point x="679" y="657"/>
      <point x="700" y="657" type="qcurve" smooth="yes"/>
      <point x="704" y="657"/>
      <point x="804" y="662" type="qcurve"/>
      <point x="806" y="658"/>
      <point x="805" y="633"/>
      <point x="802" y="633" type="qcurve" smooth="yes"/>
      <point x="792" y="633"/>
      <point x="743" y="617"/>
      <point x="733" y="605" type="qcurve" smooth="yes"/>
      <point x="715" y="583"/>
      <point x="675" y="502" type="qcurve" smooth="yes"/>
      <point x="598" y="344" type="line"/>
      <point x="707" y="120" type="line" smooth="yes"/>
      <point x="713" y="109"/>
      <point x="719" y="125" type="qcurve" smooth="yes"/>
      <point x="898" y="536" type="line" smooth="yes"/>
      <point x="915" y="577"/>
      <point x="915" y="599" type="qcurve" smooth="yes"/>
      <point x="915" y="616"/>
      <point x="874" y="633"/>
      <point x="858" y="633" type="qcurve" smooth="yes"/>
      <point x="854" y="633"/>
      <point x="854" y="658"/>
      <point x="858" y="662" type="qcurve"/>
      <point x="938" y="657"/>
      <point x="960" y="657" type="qcurve" smooth="yes"/>
      <point x="983" y="657"/>
      <point x="1013" y="659"/>
      <point x="1045" y="661"/>
      <point x="1059" y="662" type="qcurve"/>
      <point x="1061" y="656"/>
      <point x="1061" y="647" type="qcurve" smooth="yes"/>
      <point x="1061" y="633"/>
      <point x="1057" y="633" type="qcurve" smooth="yes"/>
      <point x="1047" y="633"/>
      <point x="1003" y="618"/>
      <point x="992" y="605" type="qcurve" smooth="yes"/>
      <point x="963" y="571"/>
      <point x="934" y="504" type="qcurve" smooth="yes"/>
      <point x="722" y="24" type="line" smooth="yes"/>
      <point x="707" y="-8"/>
      <point x="683" y="-8" type="qcurve" smooth="yes"/>
      <point x="677" y="-8"/>
      <point x="674" y="-3" type="qcurve" smooth="yes"/>
      <point x="552" y="247" type="line"/>
      <point x="444" y="24" type="line" smooth="yes"/>
      <point x="429" y="-8"/>
      <point x="405" y="-8" type="qcurve" smooth="yes"/>
      <point x="399" y="-8"/>
      <point x="396" y="-3" type="qcurve" smooth="yes"/>
      <point x="136" y="514" type="line" smooth="yes"/>
      <point x="107" y="573"/>
      <point x="78" y="610" type="qcurve" smooth="yes"/>
      <point x="70" y="620"/>
      <point x="32" y="633"/>
      <point x="20" y="633" type="qcurve" smooth="yes"/>
      <point x="16" y="633"/>
      <point x="16" y="646" type="qcurve" smooth="yes"/>
      <point x="16" y="658"/>
      <point x="20" y="662" type="qcurve"/>
      <point x="135" y="657"/>
    </contour>
  </outline>
</glyph>
<glyph name="X" format="1">
  <advance width="688"/>
  <unicode hex="0058"/>
  <outline>
    <contour>
      <point x="176" y="657" type="qcurve" smooth="yes"/>
      <point x="204" y="657"/>
      <point x="304" y="662" type="qcurve"/>
      <point x="306" y="658"/>
      <point x="305" y="633"/>
      <point x="302" y="633" type="qcurve" smooth="yes"/>
      <point x="284" y="633"/>
      <point x="242" y="618"/>
      <point x="242" y="601" type="qcurve" smooth="yes"/>
      <point x="242" y="589"/>
      <point x="254" y="571" type="qcurve" smooth="yes"/>
      <point x="369" y="396" type="line"/>
      <point x="373" y="402"/>
      <point x="412" y="451"/>
      <point x="429" y="473"/>
      <point x="464" y="519"/>
      <point x="481" y="544"/>
      <point x="502" y="576"/>
      <point x="511" y="596"/>
      <point x="511" y="602" type="qcurve" smooth="yes"/>
      <point x="511" y="613"/>
      <point x="470" y="633"/>
      <point x="441" y="633" type="qcurve" smooth="yes"/>
      <point x="437" y="633"/>
      <point x="437" y="658"/>
      <point x="441" y="662" type="qcurve"/>
      <point x="534" y="657"/>
      <point x="568" y="657" type="qcurve" smooth="yes"/>
      <point x="580" y="657"/>
      <point x="680" y="662" type="qcurve"/>
      <point x="682" y="658"/>
      <point x="681" y="633"/>
      <point x="678" y="633" type="qcurve" smooth="yes"/>
      <point x="664" y="633"/>
      <point x="592" y="617"/>
      <point x="582" y="604" type="qcurve" smooth="yes"/>
      <point x="394" y="358" type="line"/>
      <point x="586" y="66" type="line" smooth="yes"/>
      <point x="599" y="46"/>
      <point x="656" y="26"/>
      <point x="684" y="26" type="qcurve" smooth="yes"/>
      <point x="689" y="26"/>
      <point x="689" y="10" type="qcurve" smooth="yes"/>
      <point x="689" y="1"/>
      <point x="687" y="-3" type="qcurve"/>
      <point x="587" y="2"/>
      <point x="582" y="2" type="qcurve" smooth="yes"/>
      <point x="576" y="2"/>
      <point x="436" y="-3" type="qcurve"/>
      <point x="432" y="1"/>
      <point x="432" y="26"/>
      <point x="436" y="26" type="qcurve" smooth="yes"/>
      <point x="450" y="26"/>
      <point x="494" y="42"/>
      <point x="494" y="54" type="qcurve" smooth="yes"/>
      <point x="494" y="58"/>
      <point x="489" y="66" type="qcurve" smooth="yes"/>
      <point x="339" y="295" type="line"/>
      <point x="175" y="75"/>
      <point x="175" y="55" type="qcurve" smooth="yes"/>
      <point x="175" y="51"/>
      <point x="184" y="39"/>
      <point x="218" y="26"/>
      <point x="243" y="26" type="qcurve" smooth="yes"/>
      <point x="247" y="26"/>
      <point x="247" y="10" type="qcurve" smooth="yes"/>
      <point x="247" y="0"/>
      <point x="245" y="-3" type="qcurve"/>
      <point x="152" y="2"/>
      <point x="132" y="2" type="qcurve" smooth="yes"/>
      <point x="109" y="2"/>
      <point x="9" y="-3" type="qcurve"/>
      <point x="7" y="3"/>
      <point x="7" y="10" type="qcurve" smooth="yes"/>
      <point x="7" y="26"/>
      <point x="11" y="26" type="qcurve" smooth="yes"/>
      <point x="19" y="26"/>
      <point x="46" y="29"/>
      <point x="88" y="43"/>
      <point x="99" y="54" type="qcurve"/>
      <point x="313" y="334" type="line"/>
      <point x="173" y="548" type="line" smooth="yes"/>
      <point x="142" y="597"/>
      <point x="107" y="617" type="qcurve" smooth="yes"/>
      <point x="80" y="633"/>
      <point x="51" y="633" type="qcurve" smooth="yes"/>
      <point x="47" y="633"/>
      <point x="47" y="658"/>
      <point x="51" y="662" type="qcurve"/>
      <point x="174" y="657"/>
    </contour>
  </outline>
</glyph>
<glyph name="Y" format="1">
  <advance width="649"/>
  <unicode hex="0059"/>
  <outline>
    <contour>
      <point x="139" y="656" type="qcurve" smooth="yes"/>
      <point x="151" y="656"/>
      <point x="271" y="662" type="qcurve"/>
      <point x="273" y="658"/>
      <point x="272" y="635"/>
      <point x="269" y="635" type="qcurve" smooth="yes"/>
      <point x="252" y="635"/>
      <point x="209" y="618"/>
      <point x="209" y="601" type="qcurve" smooth="yes"/>
      <point x="209" y="590"/>
      <point x="220" y="571" type="qcurve" smooth="yes"/>
      <point x="332" y="359" type="line"/>
      <point x="337" y="354"/>
      <point x="342" y="361" type="qcurve" smooth="yes"/>
      <point x="478" y="567"/>
      <point x="478" y="602" type="qcurve" smooth="yes"/>
      <point x="478" y="613"/>
      <point x="438" y="635"/>
      <point x="409" y="635" type="qcurve" smooth="yes"/>
      <point x="405" y="635"/>
      <point x="405" y="658"/>
      <point x="409" y="662" type="qcurve"/>
      <point x="520" y="656"/>
      <point x="527" y="656" type="qcurve" smooth="yes"/>
      <point x="558" y="656"/>
      <point x="624" y="662"/>
      <point x="633" y="662" type="qcurve"/>
      <point x="635" y="656"/>
      <point x="635" y="647" type="qcurve" smooth="yes"/>
      <point x="635" y="635"/>
      <point x="631" y="635" type="qcurve" smooth="yes"/>
      <point x="619" y="635"/>
      <point x="559" y="617"/>
      <point x="549" y="604" type="qcurve"/>
      <point x="511" y="545"/>
      <point x="366" y="305"/>
      <point x="366" y="291" type="qcurve" smooth="yes"/>
      <point x="366" y="139" type="line" smooth="yes"/>
      <point x="366" y="77"/>
      <point x="374" y="46" type="qcurve" smooth="yes"/>
      <point x="376" y="39"/>
      <point x="426" y="24"/>
      <point x="435" y="24" type="qcurve" smooth="yes"/>
      <point x="439" y="24"/>
      <point x="439" y="11" type="qcurve" smooth="yes"/>
      <point x="439" y="3"/>
      <point x="437" y="-3" type="qcurve"/>
      <point x="337" y="2"/>
      <point x="325" y="2" type="qcurve" smooth="yes"/>
      <point x="322" y="2"/>
      <point x="207" y="-3" type="qcurve"/>
      <point x="203" y="1"/>
      <point x="203" y="11" type="qcurve" smooth="yes"/>
      <point x="203" y="24"/>
      <point x="207" y="24" type="qcurve" smooth="yes"/>
      <point x="219" y="24"/>
      <point x="268" y="38"/>
      <point x="271" y="46" type="qcurve" smooth="yes"/>
      <point x="279" y="77"/>
      <point x="279" y="142" type="qcurve" smooth="yes"/>
      <point x="279" y="267" type="line" smooth="yes"/>
      <point x="279" y="281"/>
      <point x="236" y="364"/>
      <point x="133" y="549" type="qcurve" smooth="yes"/>
      <point x="117" y="579"/>
      <point x="100" y="602"/>
      <point x="84" y="613" type="qcurve" smooth="yes"/>
      <point x="73" y="621"/>
      <point x="29" y="635"/>
      <point x="19" y="635" type="qcurve" smooth="yes"/>
      <point x="15" y="635"/>
      <point x="15" y="646" type="qcurve" smooth="yes"/>
      <point x="15" y="658"/>
      <point x="19" y="662" type="qcurve"/>
      <point x="35" y="661"/>
      <point x="111" y="656"/>
    </contour>
  </outline>
</glyph>
<glyph name="Z" format="1">
  <advance width="600"/>
  <unicode hex="005A"/>
  <outline>
    <contour>
      <point x="214" y="656" type="qcurve" smooth="yes"/>
      <point x="323" y="656" type="line" smooth="yes"/>
      <point x="393" y="656"/>
      <point x="533" y="666" type="qcurve"/>
      <point x="536" y="665"/>
      <point x="543" y="641"/>
      <point x="543" y="633" type="qcurve"/>
      <point x="169" y="76" type="line" smooth="yes"/>
      <point x="162" y="66"/>
      <point x="162" y="61" type="qcurve" smooth="yes"/>
      <point x="162" y="51"/>
      <point x="176" y="51" type="qcurve" smooth="yes"/>
      <point x="402" y="51" type="line" smooth="yes"/>
      <point x="438" y="51"/>
      <point x="490" y="72"/>
      <point x="523" y="116"/>
      <point x="538" y="145"/>
      <point x="548" y="172" type="qcurve" smooth="yes"/>
      <point x="550" y="175"/>
      <point x="562" y="175" type="qcurve" smooth="yes"/>
      <point x="577" y="175"/>
      <point x="586" y="166" type="qcurve"/>
      <point x="554" y="62"/>
      <point x="542" y="0" type="qcurve"/>
      <point x="46" y="0" type="line"/>
      <point x="38" y="9"/>
      <point x="38" y="26" type="qcurve" smooth="yes"/>
      <point x="38" y="38"/>
      <point x="42" y="43" type="qcurve" smooth="yes"/>
      <point x="425" y="608" type="line"/>
      <point x="213" y="608" type="line" smooth="yes"/>
      <point x="147" y="608"/>
      <point x="90" y="553"/>
      <point x="71" y="484" type="qcurve" smooth="yes"/>
      <point x="70" y="480"/>
      <point x="61" y="480" type="qcurve" smooth="yes"/>
      <point x="38" y="480"/>
      <point x="29" y="489" type="qcurve"/>
      <point x="56" y="613"/>
      <point x="62" y="665" type="qcurve"/>
      <point x="72" y="662"/>
      <point x="197" y="656"/>
    </contour>
  </outline>
</glyph>
<glyph name="bracketleft" format="1">
  <advance width="361"/>
  <unicode hex="005B"/>
  <outline>
    <contour>
      <point x="140" y="740" type="qcurve" smooth="yes"/>
      <point x="176" y="740"/>
      <point x="248" y="744"/>
      <point x="295" y="749"/>
      <point x="300" y="749" type="qcurve" smooth="yes"/>
      <point x="306" y="749"/>
      <point x="306" y="737" type="qcurve" smooth="yes"/>
      <point x="306" y="715"/>
      <point x="288" y="706" type="qcurve"/>
      <point x="241" y="695"/>
      <point x="187" y="695" type="qcurve" smooth="yes"/>
      <point x="184" y="695"/>
      <point x="181" y="691"/>
      <point x="180" y="689" type="qcurve"/>
      <point x="180" y="687" type="line"/>
      <point x="180" y="-49" type="line"/>
      <point x="181" y="-57"/>
      <point x="187" y="-57" type="qcurve" smooth="yes"/>
      <point x="239" y="-57"/>
      <point x="289" y="-74" type="qcurve" smooth="yes"/>
      <point x="301" y="-78"/>
      <point x="301" y="-96" type="qcurve" smooth="yes"/>
      <point x="301" y="-101"/>
      <point x="298" y="-110"/>
      <point x="296" y="-112" type="qcurve" smooth="yes"/>
      <point x="295" y="-114" type="line"/>
      <point x="222" y="-102"/>
      <point x="140" y="-102" type="qcurve" smooth="yes"/>
      <point x="121" y="-102"/>
      <point x="121" y="-79" type="qcurve" smooth="yes"/>
      <point x="121" y="717" type="line" smooth="yes"/>
      <point x="121" y="740"/>
    </contour>
  </outline>
</glyph>
<glyph name="backslash" format="1">
  <advance width="430"/>
  <unicode hex="005C"/>
  <outline>
    <contour>
      <point x="396" y="-7" type="qcurve" smooth="yes"/>
      <point x="396" y="-34"/>
      <point x="373" y="-39" type="qcurve"/>
      <point x="349" y="-37" type="line"/>
      <point x="36" y="755" type="line"/>
      <point x="43" y="761"/>
      <point x="57" y="761" type="qcurve" smooth="yes"/>
      <point x="96" y="761"/>
      <point x="106" y="739" type="qcurve"/>
      <point x="393" y="13" type="line" smooth="yes"/>
      <point x="396" y="7"/>
    </contour>
  </outline>
</glyph>
<glyph name="bracketright" format="1">
  <advance width="361"/>
  <unicode hex="005D"/>
  <outline>
    <contour>
      <point x="183" y="-49" type="line"/>
      <point x="183" y="687" type="line"/>
      <point x="182" y="695"/>
      <point x="176" y="695" type="qcurve" smooth="yes"/>
      <point x="152" y="695"/>
      <point x="101" y="700"/>
      <point x="88" y="703" type="qcurve" smooth="yes"/>
      <point x="75" y="706" type="line"/>
      <point x="74" y="707" type="line" smooth="yes"/>
      <point x="72" y="708"/>
      <point x="68" y="711"/>
      <point x="63" y="716"/>
      <point x="60" y="722"/>
      <point x="57" y="732"/>
      <point x="57" y="737" type="qcurve" smooth="yes"/>
      <point x="57" y="749"/>
      <point x="62" y="749" type="qcurve" smooth="yes"/>
      <point x="63" y="749" type="line"/>
      <point x="141" y="740"/>
      <point x="223" y="740" type="qcurve" smooth="yes"/>
      <point x="241" y="740"/>
      <point x="241" y="717" type="qcurve" smooth="yes"/>
      <point x="241" y="-79" type="line" smooth="yes"/>
      <point x="241" y="-102"/>
      <point x="223" y="-102" type="qcurve" smooth="yes"/>
      <point x="187" y="-102"/>
      <point x="109" y="-108"/>
      <point x="88" y="-111" type="qcurve" smooth="yes"/>
      <point x="67" y="-114" type="line"/>
      <point x="61" y="-113"/>
      <point x="61" y="-102" type="qcurve" smooth="yes"/>
      <point x="61" y="-92"/>
      <point x="67" y="-82" type="qcurve"/>
      <point x="76" y="-74" type="line"/>
      <point x="122" y="-57"/>
      <point x="176" y="-57" type="qcurve" smooth="yes"/>
      <point x="179" y="-57"/>
      <point x="182" y="-53"/>
      <point x="182" y="-51" type="qcurve" smooth="yes"/>
    </contour>
  </outline>
</glyph>
<glyph name="asciicircum" format="1">
  <advance width="445"/>
  <unicode hex="005E"/>
  <outline>
    <contour>
      <point x="362" y="475" type="qcurve" smooth="yes"/>
      <point x="350" y="475"/>
      <point x="257" y="555"/>
      <point x="222" y="597" type="qcurve"/>
      <point x="190" y="556"/>
      <point x="97" y="475"/>
      <point x="84" y="475" type="qcurve" smooth="yes"/>
      <point x="80" y="475"/>
      <point x="73" y="487"/>
      <point x="72" y="493" type="qcurve" smooth="yes"/>
      <point x="71" y="499" type="line"/>
      <point x="72" y="502"/>
      <point x="120" y="547"/>
      <point x="186" y="629"/>
      <point x="208" y="677" type="qcurve" smooth="yes"/>
      <point x="214" y="690"/>
      <point x="218" y="690" type="qcurve" smooth="yes"/>
      <point x="227" y="690"/>
      <point x="238" y="679"/>
      <point x="246" y="660"/>
      <point x="274" y="614"/>
      <point x="293" y="588" type="qcurve" smooth="yes"/>
      <point x="303" y="575"/>
      <point x="343" y="533"/>
      <point x="374" y="502"/>
      <point x="375" y="500" type="qcurve"/>
      <point x="375" y="495"/>
      <point x="367" y="475"/>
    </contour>
  </outline>
</glyph>
<glyph name="underscore" format="1">
  <advance width="468"/>
  <unicode hex="005F"/>
  <outline>
    <contour>
      <point x="0" y="-33" type="qcurve"/>
      <point x="5" y="13"/>
      <point x="15" y="13" type="qcurve" smooth="yes"/>
      <point x="464" y="13" type="line" smooth="yes"/>
      <point x="468" y="13"/>
      <point x="468" y="8" type="qcurve" smooth="yes"/>
      <point x="468" y="0"/>
      <point x="458" y="-37" type="qcurve" smooth="yes"/>
      <point x="457" y="-40"/>
      <point x="454" y="-43"/>
      <point x="453" y="-43" type="qcurve" smooth="yes"/>
      <point x="452" y="-43" type="line"/>
      <point x="7" y="-43" type="line" smooth="yes"/>
      <point x="0" y="-43"/>
    </contour>
  </outline>
</glyph>
<glyph name="grave" format="1">
  <advance width="327"/>
  <unicode hex="0060"/>
  <outline>
    <contour>
      <point x="104" y="663" type="qcurve" smooth="yes"/>
      <point x="104" y="667"/>
      <point x="109" y="676"/>
      <point x="129" y="687"/>
      <point x="145" y="687" type="qcurve" smooth="yes"/>
      <point x="170" y="687"/>
      <point x="179" y="678" type="qcurve"/>
      <point x="196" y="658"/>
      <point x="242" y="592"/>
      <point x="272" y="543"/>
      <point x="272" y="540" type="qcurve" smooth="yes"/>
      <point x="272" y="527"/>
      <point x="260" y="527" type="qcurve" smooth="yes"/>
      <point x="247" y="527"/>
      <point x="104" y="638"/>
    </contour>
  </outline>
</glyph>
<glyph name="a" format="1">
  <advance width="423"/>
  <unicode hex="0061"/>
  <outline>
    <contour>
      <point x="211" y="50"/>
      <point x="261" y="83"/>
      <point x="261" y="100" type="qcurve" smooth="yes"/>
      <point x="261" y="203" type="line"/>
      <point x="253" y="199"/>
      <point x="191" y="179"/>
      <point x="156" y="164"/>
      <point x="123" y="129"/>
      <point x="123" y="106" type="qcurve" smooth="yes"/>
      <point x="123" y="79"/>
      <point x="157" y="50"/>
    </contour>
    <contour>
      <point x="234" y="436" type="qcurve" smooth="yes"/>
      <point x="289" y="436"/>
      <point x="337" y="383"/>
      <point x="337" y="324" type="qcurve" smooth="yes"/>
      <point x="337" y="93" type="line" smooth="yes"/>
      <point x="337" y="72"/>
      <point x="359" y="44"/>
      <point x="378" y="44" type="qcurve" smooth="yes"/>
      <point x="392" y="44"/>
      <point x="413" y="58" type="qcurve"/>
      <point x="417" y="58"/>
      <point x="417" y="50" type="qcurve" smooth="yes"/>
      <point x="417" y="37"/>
      <point x="412" y="29" type="qcurve"/>
      <point x="371" y="-6"/>
      <point x="342" y="-6" type="qcurve" smooth="yes"/>
      <point x="319" y="-6"/>
      <point x="277" y="32"/>
      <point x="269" y="53" type="qcurve" smooth="yes"/>
      <point x="268" y="53"/>
      <point x="255" y="40"/>
      <point x="233" y="23"/>
      <point x="204" y="5"/>
      <point x="165" y="-7"/>
      <point x="145" y="-7" type="qcurve" smooth="yes"/>
      <point x="99" y="-7"/>
      <point x="39" y="42"/>
      <point x="39" y="91" type="qcurve" smooth="yes"/>
      <point x="39" y="113"/>
      <point x="61" y="152"/>
      <point x="91" y="177"/>
      <point x="143" y="203"/>
      <point x="180" y="216"/>
      <point x="240" y="236"/>
      <point x="252" y="241" type="qcurve" smooth="yes"/>
      <point x="261" y="244"/>
      <point x="261" y="256" type="qcurve" smooth="yes"/>
      <point x="261" y="331" type="line" smooth="yes"/>
      <point x="261" y="363"/>
      <point x="221" y="398"/>
      <point x="193" y="398" type="qcurve" smooth="yes"/>
      <point x="163" y="398"/>
      <point x="123" y="357"/>
      <point x="123" y="324" type="qcurve" smooth="yes"/>
      <point x="123" y="289"/>
      <point x="82" y="289" type="qcurve" smooth="yes"/>
      <point x="54" y="289"/>
      <point x="43" y="308" type="qcurve"/>
      <point x="43" y="351"/>
      <point x="169" y="436"/>
    </contour>
  </outline>
</glyph>
<glyph name="b" format="1">
  <advance width="499"/>
  <unicode hex="0062"/>
  <outline>
    <contour>
      <point x="256" y="438" type="qcurve" smooth="yes"/>
      <point x="352" y="438"/>
      <point x="461" y="307"/>
      <point x="461" y="233" type="qcurve" smooth="yes"/>
      <point x="461" y="138"/>
      <point x="320" y="-6"/>
      <point x="235" y="-6" type="qcurve" smooth="yes"/>
      <point x="198" y="-6"/>
      <point x="131" y="7"/>
      <point x="126" y="7" type="qcurve" smooth="yes"/>
      <point x="117" y="7"/>
      <point x="90" y="-4"/>
      <point x="88" y="-4" type="qcurve" smooth="yes"/>
      <point x="84" y="-4"/>
      <point x="67" y="2"/>
      <point x="67" y="6" type="qcurve" smooth="yes"/>
      <point x="67" y="7"/>
      <point x="73" y="38"/>
      <point x="79" y="98"/>
      <point x="79" y="135" type="qcurve" smooth="yes"/>
      <point x="79" y="549" type="line" smooth="yes"/>
      <point x="79" y="583"/>
      <point x="73" y="613" type="qcurve"/>
      <point x="68" y="629"/>
      <point x="22" y="629" type="qcurve" smooth="yes"/>
      <point x="13" y="629" type="line" smooth="yes"/>
      <point x="7" y="629"/>
      <point x="7" y="640" type="qcurve" smooth="yes"/>
      <point x="7" y="656"/>
      <point x="13" y="656" type="qcurve" smooth="yes"/>
      <point x="43" y="659"/>
      <point x="94" y="669"/>
      <point x="123" y="679"/>
      <point x="143" y="688"/>
      <point x="148" y="691" type="qcurve" smooth="yes"/>
      <point x="152" y="694" type="line"/>
      <point x="154" y="694" type="line" smooth="yes"/>
      <point x="158" y="694"/>
      <point x="166" y="683"/>
      <point x="167" y="678" type="qcurve"/>
      <point x="156" y="646"/>
      <point x="156" y="591" type="qcurve" smooth="yes"/>
      <point x="156" y="416" type="line" smooth="yes"/>
      <point x="156" y="405"/>
      <point x="159" y="405" type="qcurve" smooth="yes"/>
      <point x="160" y="405"/>
      <point x="162" y="406" type="qcurve" smooth="yes"/>
      <point x="176" y="416"/>
      <point x="234" y="438"/>
    </contour>
    <contour>
      <point x="224" y="389" type="qcurve" smooth="yes"/>
      <point x="196" y="389"/>
      <point x="156" y="358"/>
      <point x="156" y="329" type="qcurve" smooth="yes"/>
      <point x="156" y="96" type="line" smooth="yes"/>
      <point x="156" y="65"/>
      <point x="215" y="36"/>
      <point x="254" y="36" type="qcurve" smooth="yes"/>
      <point x="311" y="36"/>
      <point x="375" y="144"/>
      <point x="375" y="212" type="qcurve" smooth="yes"/>
      <point x="375" y="291"/>
      <point x="292" y="389"/>
    </contour>
  </outline>
</glyph>
<glyph name="c" format="1">
  <advance width="405"/>
  <unicode hex="0063"/>
  <outline>
    <contour>
      <point x="231" y="436" type="qcurve" smooth="yes"/>
      <point x="341" y="436"/>
      <point x="383" y="385" type="qcurve"/>
      <point x="383" y="318"/>
      <point x="346" y="318" type="qcurve" smooth="yes"/>
      <point x="329" y="318"/>
      <point x="311" y="333"/>
      <point x="297" y="353" type="qcurve" smooth="yes"/>
      <point x="266" y="399"/>
      <point x="223" y="399" type="qcurve" smooth="yes"/>
      <point x="182" y="399"/>
      <point x="115" y="321"/>
      <point x="115" y="244" type="qcurve" smooth="yes"/>
      <point x="115" y="164"/>
      <point x="194" y="58"/>
      <point x="264" y="58" type="qcurve" smooth="yes"/>
      <point x="285" y="58"/>
      <point x="323" y="66"/>
      <point x="350" y="77"/>
      <point x="369" y="88"/>
      <point x="376" y="93" type="qcurve" smooth="yes"/>
      <point x="383" y="98" type="line"/>
      <point x="389" y="98"/>
      <point x="389" y="85" type="qcurve" smooth="yes"/>
      <point x="389" y="77"/>
      <point x="383" y="67" type="qcurve" smooth="yes"/>
      <point x="363" y="39"/>
      <point x="285" y="-6"/>
      <point x="239" y="-6" type="qcurve" smooth="yes"/>
      <point x="156" y="-6"/>
      <point x="37" y="119"/>
      <point x="37" y="209" type="qcurve" smooth="yes"/>
      <point x="37" y="301"/>
      <point x="137" y="436"/>
    </contour>
  </outline>
</glyph>
<glyph name="d" format="1">
  <advance width="497"/>
  <unicode hex="0064"/>
  <outline>
    <contour>
      <point x="248" y="398" type="qcurve" smooth="yes"/>
      <point x="190" y="398"/>
      <point x="124" y="294"/>
      <point x="124" y="225" type="qcurve" smooth="yes"/>
      <point x="124" y="152"/>
      <point x="202" y="45"/>
      <point x="271" y="45" type="qcurve" smooth="yes"/>
      <point x="305" y="45"/>
      <point x="343" y="76"/>
      <point x="343" y="102" type="qcurve" smooth="yes"/>
      <point x="343" y="340" type="line" smooth="yes"/>
      <point x="343" y="361"/>
      <point x="298" y="398"/>
    </contour>
    <contour>
      <point x="261" y="440" type="qcurve" smooth="yes"/>
      <point x="304" y="440"/>
      <point x="336" y="423" type="qcurve"/>
      <point x="343" y="423"/>
      <point x="343" y="441" type="qcurve" smooth="yes"/>
      <point x="343" y="549" type="line" smooth="yes"/>
      <point x="343" y="583"/>
      <point x="337" y="613" type="qcurve"/>
      <point x="332" y="629"/>
      <point x="286" y="629" type="qcurve" smooth="yes"/>
      <point x="277" y="629" type="line" smooth="yes"/>
      <point x="271" y="629"/>
      <point x="271" y="640" type="qcurve" smooth="yes"/>
      <point x="271" y="656"/>
      <point x="277" y="656" type="qcurve" smooth="yes"/>
      <point x="307" y="659"/>
      <point x="358" y="669"/>
      <point x="387" y="679"/>
      <point x="407" y="688"/>
      <point x="412" y="691" type="qcurve" smooth="yes"/>
      <point x="416" y="694" type="line"/>
      <point x="418" y="694" type="line" smooth="yes"/>
      <point x="422" y="694"/>
      <point x="430" y="683"/>
      <point x="431" y="678" type="qcurve"/>
      <point x="420" y="646"/>
      <point x="420" y="591" type="qcurve" smooth="yes"/>
      <point x="420" y="141" type="line" smooth="yes"/>
      <point x="420" y="93"/>
      <point x="426" y="65" type="qcurve" smooth="yes"/>
      <point x="428" y="58"/>
      <point x="446" y="50"/>
      <point x="465" y="48"/>
      <point x="474" y="48" type="qcurve" smooth="yes"/>
      <point x="483" y="47" type="line" smooth="yes"/>
      <point x="486" y="46"/>
      <point x="486" y="35" type="qcurve" smooth="yes"/>
      <point x="486" y="20"/>
      <point x="480" y="20" type="qcurve" smooth="yes"/>
      <point x="465" y="19"/>
      <point x="428" y="13"/>
      <point x="395" y="6"/>
      <point x="367" y="-1"/>
      <point x="358" y="-4" type="qcurve" smooth="yes"/>
      <point x="349" y="-6" type="line"/>
      <point x="343" y="-6"/>
      <point x="343" y="11" type="qcurve" smooth="yes"/>
      <point x="343" y="23" type="line" smooth="yes"/>
      <point x="343" y="29"/>
      <point x="339" y="27" type="qcurve" smooth="yes"/>
      <point x="283" y="-4"/>
      <point x="233" y="-4" type="qcurve" smooth="yes"/>
      <point x="150" y="-4"/>
      <point x="38" y="114"/>
      <point x="38" y="196" type="qcurve" smooth="yes"/>
      <point x="38" y="293"/>
      <point x="175" y="440"/>
    </contour>
  </outline>
</glyph>
<glyph name="e" format="1">
  <advance width="430"/>
  <unicode hex="0065"/>
  <outline>
    <contour>
      <point x="225" y="399" type="qcurve" smooth="yes"/>
      <point x="173" y="399"/>
      <point x="118" y="310"/>
      <point x="118" y="281" type="qcurve" smooth="yes"/>
      <point x="118" y="274"/>
      <point x="124" y="274" type="qcurve" smooth="yes"/>
      <point x="319" y="274" type="line" smooth="yes"/>
      <point x="324" y="274"/>
      <point x="324" y="284" type="qcurve" smooth="yes"/>
      <point x="324" y="316"/>
      <point x="270" y="399"/>
    </contour>
    <contour>
      <point x="235" y="436" type="qcurve" smooth="yes"/>
      <point x="281" y="436"/>
      <point x="351" y="401"/>
      <point x="388" y="346"/>
      <point x="405" y="289"/>
      <point x="405" y="261" type="qcurve" smooth="yes"/>
      <point x="405" y="241"/>
      <point x="393" y="232"/>
      <point x="376" y="232" type="qcurve" smooth="yes"/>
      <point x="124" y="232" type="line" smooth="yes"/>
      <point x="116" y="232"/>
      <point x="116" y="227" type="qcurve" smooth="yes"/>
      <point x="116" y="164"/>
      <point x="192" y="58"/>
      <point x="264" y="58" type="qcurve" smooth="yes"/>
      <point x="285" y="58"/>
      <point x="323" y="66"/>
      <point x="350" y="77"/>
      <point x="369" y="88"/>
      <point x="376" y="93" type="qcurve" smooth="yes"/>
      <point x="383" y="98" type="line"/>
      <point x="389" y="98"/>
      <point x="389" y="85" type="qcurve" smooth="yes"/>
      <point x="389" y="77"/>
      <point x="383" y="67" type="qcurve" smooth="yes"/>
      <point x="363" y="39"/>
      <point x="285" y="-6"/>
      <point x="239" y="-6" type="qcurve" smooth="yes"/>
      <point x="156" y="-6"/>
      <point x="37" y="119"/>
      <point x="37" y="209" type="qcurve" smooth="yes"/>
      <point x="37" y="314"/>
      <point x="150" y="436"/>
    </contour>
  </outline>
</glyph>
<glyph name="f" format="1">
  <advance width="301"/>
  <unicode hex="0066"/>
  <outline>
    <contour>
      <point x="297" y="695" type="qcurve" smooth="yes"/>
      <point x="369" y="695"/>
      <point x="392" y="656" type="qcurve"/>
      <point x="392" y="593"/>
      <point x="356" y="593" type="qcurve" smooth="yes"/>
      <point x="343" y="593"/>
      <point x="319" y="624"/>
      <point x="288" y="656"/>
      <point x="266" y="656" type="qcurve" smooth="yes"/>
      <point x="222" y="656"/>
      <point x="174" y="548"/>
      <point x="174" y="475" type="qcurve" smooth="yes"/>
      <point x="174" y="424" type="line" smooth="yes"/>
      <point x="174" y="419"/>
      <point x="179" y="419" type="qcurve" smooth="yes"/>
      <point x="290" y="419" type="line" smooth="yes"/>
      <point x="295" y="419"/>
      <point x="295" y="412" type="qcurve" smooth="yes"/>
      <point x="295" y="396"/>
      <point x="283" y="372" type="qcurve"/>
      <point x="180" y="372" type="line" smooth="yes"/>
      <point x="174" y="372"/>
      <point x="174" y="366" type="qcurve" smooth="yes"/>
      <point x="174" y="135" type="line" smooth="yes"/>
      <point x="174" y="81"/>
      <point x="183" y="46" type="qcurve" smooth="yes"/>
      <point x="185" y="39"/>
      <point x="230" y="26"/>
      <point x="239" y="26" type="qcurve" smooth="yes"/>
      <point x="242" y="26"/>
      <point x="244" y="2"/>
      <point x="242" y="-3" type="qcurve"/>
      <point x="142" y="2"/>
      <point x="135" y="2" type="qcurve" smooth="yes"/>
      <point x="132" y="2"/>
      <point x="30" y="-3" type="qcurve"/>
      <point x="28" y="-1"/>
      <point x="26" y="14"/>
      <point x="28" y="26"/>
      <point x="30" y="26" type="qcurve" smooth="yes"/>
      <point x="42" y="26"/>
      <point x="86" y="39"/>
      <point x="88" y="46" type="qcurve" smooth="yes"/>
      <point x="98" y="85"/>
      <point x="98" y="135" type="qcurve" smooth="yes"/>
      <point x="98" y="365" type="line" smooth="yes"/>
      <point x="98" y="372"/>
      <point x="93" y="372" type="qcurve" smooth="yes"/>
      <point x="40" y="372" type="line" smooth="yes"/>
      <point x="37" y="372"/>
      <point x="37" y="378" type="qcurve" smooth="yes"/>
      <point x="37" y="387"/>
      <point x="69" y="419"/>
      <point x="87" y="419" type="qcurve" smooth="yes"/>
      <point x="93" y="419" type="line" smooth="yes"/>
      <point x="98" y="419"/>
      <point x="98" y="425" type="qcurve" smooth="yes"/>
      <point x="98" y="438" type="line" smooth="yes"/>
      <point x="98" y="543"/>
      <point x="223" y="695"/>
    </contour>
  </outline>
</glyph>
<glyph name="g" format="1">
  <advance width="474"/>
  <unicode hex="0067"/>
  <outline>
    <contour>
      <point x="379" y="-85" type="qcurve" smooth="yes"/>
      <point x="379" y="-43"/>
      <point x="297" y="-14"/>
      <point x="175" y="-14" type="qcurve" smooth="yes"/>
      <point x="173" y="-14"/>
      <point x="169" y="-16" type="qcurve" smooth="yes"/>
      <point x="168" y="-17"/>
      <point x="152" y="-24"/>
      <point x="148" y="-26"/>
      <point x="134" y="-35"/>
      <point x="129" y="-38"/>
      <point x="117" y="-47"/>
      <point x="113" y="-54"/>
      <point x="105" y="-64"/>
      <point x="102" y="-74"/>
      <point x="99" y="-87"/>
      <point x="99" y="-94" type="qcurve" smooth="yes"/>
      <point x="99" y="-137"/>
      <point x="188" y="-190"/>
      <point x="242" y="-190" type="qcurve" smooth="yes"/>
      <point x="302" y="-190"/>
      <point x="379" y="-126"/>
    </contour>
    <contour>
      <point x="123" y="296" type="qcurve" smooth="yes"/>
      <point x="123" y="250"/>
      <point x="180" y="186"/>
      <point x="218" y="186" type="qcurve" smooth="yes"/>
      <point x="257" y="186"/>
      <point x="308" y="246"/>
      <point x="308" y="288" type="qcurve" smooth="yes"/>
      <point x="308" y="334"/>
      <point x="251" y="398"/>
      <point x="213" y="398" type="qcurve" smooth="yes"/>
      <point x="174" y="398"/>
      <point x="123" y="338"/>
    </contour>
    <contour>
      <point x="217" y="432" type="qcurve" smooth="yes"/>
      <point x="254" y="432"/>
      <point x="350" y="406"/>
      <point x="381" y="406" type="qcurve" smooth="yes"/>
      <point x="439" y="406" type="line"/>
      <point x="445" y="404"/>
      <point x="445" y="381" type="qcurve" smooth="yes"/>
      <point x="445" y="367"/>
      <point x="439" y="367" type="qcurve" smooth="yes"/>
      <point x="368" y="367" type="line" smooth="yes"/>
      <point x="364" y="367"/>
      <point x="364" y="364" type="qcurve"/>
      <point x="374" y="340" type="line" smooth="yes"/>
      <point x="385" y="316"/>
      <point x="385" y="292" type="qcurve" smooth="yes"/>
      <point x="385" y="238"/>
      <point x="289" y="152"/>
      <point x="219" y="152" type="qcurve" smooth="yes"/>
      <point x="187" y="152"/>
      <point x="163" y="156" type="qcurve"/>
      <point x="150" y="149"/>
      <point x="121" y="113"/>
      <point x="121" y="85"/>
      <point x="137" y="68"/>
      <point x="167" y="61"/>
      <point x="195" y="58"/>
      <point x="214" y="58" type="qcurve" smooth="yes"/>
      <point x="221" y="58" type="line" smooth="yes"/>
      <point x="345" y="56"/>
      <point x="445" y="9"/>
      <point x="445" y="-38" type="qcurve" smooth="yes"/>
      <point x="445" y="-115"/>
      <point x="315" y="-226"/>
      <point x="213" y="-227" type="qcurve" smooth="yes"/>
      <point x="142" y="-228"/>
      <point x="29" y="-172"/>
      <point x="29" y="-116" type="qcurve" smooth="yes"/>
      <point x="29" y="-54"/>
      <point x="127" y="-10" type="qcurve"/>
      <point x="100" y="-6"/>
      <point x="54" y="36"/>
      <point x="54" y="66" type="qcurve" smooth="yes"/>
      <point x="54" y="92"/>
      <point x="99" y="148"/>
      <point x="127" y="166" type="qcurve"/>
      <point x="97" y="177"/>
      <point x="46" y="250"/>
      <point x="46" y="292" type="qcurve" smooth="yes"/>
      <point x="46" y="351"/>
      <point x="145" y="432"/>
    </contour>
  </outline>
</glyph>
<glyph name="h" format="1">
  <advance width="530"/>
  <unicode hex="0068"/>
  <outline>
    <contour>
      <point x="312" y="438" type="qcurve" smooth="yes"/>
      <point x="379" y="438"/>
      <point x="437" y="342"/>
      <point x="437" y="242" type="qcurve" smooth="yes"/>
      <point x="437" y="134" type="line" smooth="yes"/>
      <point x="437" y="77"/>
      <point x="445" y="46" type="qcurve" smooth="yes"/>
      <point x="447" y="39"/>
      <point x="495" y="26"/>
      <point x="505" y="26" type="qcurve" smooth="yes"/>
      <point x="508" y="26"/>
      <point x="510" y="2"/>
      <point x="508" y="-3" type="qcurve"/>
      <point x="408" y="2"/>
      <point x="401" y="2" type="qcurve" smooth="yes"/>
      <point x="398" y="2"/>
      <point x="296" y="-3" type="qcurve"/>
      <point x="292" y="1"/>
      <point x="292" y="26"/>
      <point x="296" y="26" type="qcurve" smooth="yes"/>
      <point x="308" y="26"/>
      <point x="351" y="39"/>
      <point x="353" y="46" type="qcurve" smooth="yes"/>
      <point x="360" y="75"/>
      <point x="360" y="116" type="qcurve" smooth="yes"/>
      <point x="360" y="222" type="line" smooth="yes"/>
      <point x="360" y="314"/>
      <point x="309" y="377"/>
      <point x="256" y="377" type="qcurve" smooth="yes"/>
      <point x="226" y="377"/>
      <point x="167" y="330"/>
      <point x="167" y="312" type="qcurve" smooth="yes"/>
      <point x="167" y="135" type="line" smooth="yes"/>
      <point x="167" y="77"/>
      <point x="175" y="46" type="qcurve" smooth="yes"/>
      <point x="177" y="39"/>
      <point x="225" y="26"/>
      <point x="235" y="26" type="qcurve" smooth="yes"/>
      <point x="238" y="26"/>
      <point x="240" y="2"/>
      <point x="238" y="-3" type="qcurve"/>
      <point x="138" y="2"/>
      <point x="131" y="2" type="qcurve" smooth="yes"/>
      <point x="125" y="2"/>
      <point x="22" y="-3" type="qcurve"/>
      <point x="18" y="1"/>
      <point x="18" y="26"/>
      <point x="22" y="26" type="qcurve" smooth="yes"/>
      <point x="34" y="26"/>
      <point x="81" y="39"/>
      <point x="83" y="46" type="qcurve" smooth="yes"/>
      <point x="90" y="75"/>
      <point x="90" y="115" type="qcurve" smooth="yes"/>
      <point x="90" y="549" type="line" smooth="yes"/>
      <point x="90" y="583"/>
      <point x="84" y="613" type="qcurve"/>
      <point x="79" y="629"/>
      <point x="33" y="629" type="qcurve" smooth="yes"/>
      <point x="24" y="629" type="line" smooth="yes"/>
      <point x="18" y="629"/>
      <point x="18" y="640" type="qcurve" smooth="yes"/>
      <point x="18" y="656"/>
      <point x="24" y="656" type="qcurve" smooth="yes"/>
      <point x="54" y="659"/>
      <point x="105" y="669"/>
      <point x="134" y="679"/>
      <point x="154" y="688"/>
      <point x="158" y="691" type="qcurve" smooth="yes"/>
      <point x="163" y="694" type="line"/>
      <point x="165" y="694" type="line" smooth="yes"/>
      <point x="169" y="694"/>
      <point x="177" y="683"/>
      <point x="178" y="678" type="qcurve"/>
      <point x="167" y="646"/>
      <point x="167" y="591" type="qcurve" smooth="yes"/>
      <point x="167" y="372" type="line" smooth="yes"/>
      <point x="167" y="368"/>
      <point x="169" y="368" type="qcurve" smooth="yes"/>
      <point x="170" y="368"/>
      <point x="172" y="370" type="qcurve" smooth="yes"/>
      <point x="194" y="394"/>
      <point x="275" y="438"/>
    </contour>
  </outline>
</glyph>
<glyph name="i" format="1">
  <advance width="269"/>
  <unicode hex="0069"/>
  <outline>
    <contour>
      <point x="85" y="614"/>
      <point x="114" y="643"/>
      <point x="156" y="643"/>
      <point x="185" y="614"/>
      <point x="185" y="572"/>
      <point x="156" y="543"/>
      <point x="114" y="543"/>
      <point x="85" y="572"/>
    </contour>
    <contour>
      <point x="181" y="135" type="line" smooth="yes"/>
      <point x="181" y="77"/>
      <point x="189" y="46" type="qcurve" smooth="yes"/>
      <point x="191" y="39"/>
      <point x="239" y="26"/>
      <point x="249" y="26" type="qcurve" smooth="yes"/>
      <point x="252" y="26"/>
      <point x="254" y="2"/>
      <point x="252" y="-3" type="qcurve"/>
      <point x="152" y="2"/>
      <point x="138" y="2"/>
      <point x="36" y="-3" type="qcurve"/>
      <point x="32" y="1"/>
      <point x="32" y="26"/>
      <point x="36" y="26" type="qcurve" smooth="yes"/>
      <point x="48" y="26"/>
      <point x="95" y="39"/>
      <point x="97" y="46" type="qcurve" smooth="yes"/>
      <point x="104" y="75"/>
      <point x="104" y="116" type="qcurve" smooth="yes"/>
      <point x="104" y="305" type="line" smooth="yes"/>
      <point x="104" y="344"/>
      <point x="90" y="359" type="qcurve" smooth="yes"/>
      <point x="80" y="371"/>
      <point x="51" y="380"/>
      <point x="32" y="380"/>
      <point x="32" y="382" type="qcurve" smooth="yes"/>
      <point x="32" y="406"/>
      <point x="38" y="407" type="qcurve" smooth="yes"/>
      <point x="144" y="423"/>
      <point x="176" y="433" type="qcurve"/>
      <point x="178" y="434" type="line" smooth="yes"/>
      <point x="181" y="434" type="line" smooth="yes"/>
      <point x="185" y="434"/>
      <point x="187" y="417"/>
      <point x="186" y="413" type="qcurve" smooth="yes"/>
      <point x="181" y="373"/>
      <point x="181" y="341" type="qcurve" smooth="yes"/>
    </contour>
  </outline>
</glyph>
<glyph name="j" format="1">
  <advance width="238"/>
  <unicode hex="006A"/>
  <outline>
    <contour>
      <point x="85" y="305" type="line" smooth="yes"/>
      <point x="85" y="344"/>
      <point x="71" y="359" type="qcurve" smooth="yes"/>
      <point x="61" y="371"/>
      <point x="32" y="380"/>
      <point x="13" y="380"/>
      <point x="13" y="382" type="qcurve" smooth="yes"/>
      <point x="13" y="406"/>
      <point x="19" y="407" type="qcurve" smooth="yes"/>
      <point x="125" y="423"/>
      <point x="157" y="433" type="qcurve" smooth="yes"/>
      <point x="158" y="433"/>
      <point x="162" y="434" type="line" smooth="yes"/>
      <point x="166" y="434"/>
      <point x="168" y="417"/>
      <point x="167" y="413" type="qcurve" smooth="yes"/>
      <point x="162" y="373"/>
      <point x="162" y="341" type="qcurve" smooth="yes"/>
      <point x="162" y="68" type="line" smooth="yes"/>
      <point x="162" y="-59"/>
      <point x="123" y="-120" type="qcurve" smooth="yes"/>
      <point x="98" y="-159"/>
      <point x="21" y="-219"/>
      <point x="-11" y="-231" type="qcurve"/>
      <point x="-20" y="-225"/>
      <point x="-24" y="-216" type="qcurve" smooth="yes"/>
      <point x="-26" y="-211"/>
      <point x="-24" y="-209" type="qcurve" smooth="yes"/>
      <point x="-12" y="-203" type="line" smooth="yes"/>
      <point x="0" y="-197"/>
      <point x="31" y="-167"/>
      <point x="63" y="-117"/>
      <point x="85" y="-19"/>
      <point x="85" y="45" type="qcurve" smooth="yes"/>
    </contour>
    <contour>
      <point x="59" y="614"/>
      <point x="88" y="643"/>
      <point x="130" y="643"/>
      <point x="159" y="614"/>
      <point x="159" y="572"/>
      <point x="130" y="543"/>
      <point x="88" y="543"/>
      <point x="59" y="572"/>
    </contour>
  </outline>
</glyph>
<glyph name="k" format="1">
  <advance width="496"/>
  <unicode hex="006B"/>
  <outline>
    <contour>
      <point x="387" y="368" type="qcurve" smooth="yes"/>
      <point x="370" y="358"/>
      <point x="274" y="283"/>
      <point x="239" y="247" type="qcurve"/>
      <point x="268" y="216"/>
      <point x="352" y="121"/>
      <point x="406" y="62"/>
      <point x="416" y="53" type="qcurve" smooth="yes"/>
      <point x="433" y="39"/>
      <point x="485" y="24"/>
      <point x="496" y="24" type="qcurve" smooth="yes"/>
      <point x="500" y="24"/>
      <point x="500" y="8" type="qcurve" smooth="yes"/>
      <point x="500" y="-1"/>
      <point x="499" y="-3" type="qcurve"/>
      <point x="399" y="2"/>
      <point x="390" y="2" type="qcurve" smooth="yes"/>
      <point x="388" y="2"/>
      <point x="286" y="-3" type="qcurve"/>
      <point x="282" y="1"/>
      <point x="282" y="24"/>
      <point x="286" y="24" type="qcurve" smooth="yes"/>
      <point x="296" y="24"/>
      <point x="322" y="32"/>
      <point x="322" y="37" type="qcurve" smooth="yes"/>
      <point x="322" y="39"/>
      <point x="321" y="40" type="qcurve" smooth="yes"/>
      <point x="175" y="198" type="line"/>
      <point x="163" y="195" type="line"/>
      <point x="163" y="135" type="line"/>
      <point x="165" y="69"/>
      <point x="171" y="46" type="qcurve" smooth="yes"/>
      <point x="173" y="39"/>
      <point x="221" y="26"/>
      <point x="231" y="26" type="qcurve" smooth="yes"/>
      <point x="234" y="26"/>
      <point x="236" y="2"/>
      <point x="234" y="-3" type="qcurve"/>
      <point x="134" y="2"/>
      <point x="127" y="2" type="qcurve" smooth="yes"/>
      <point x="121" y="2"/>
      <point x="18" y="-3" type="qcurve"/>
      <point x="14" y="1"/>
      <point x="14" y="26"/>
      <point x="18" y="26" type="qcurve" smooth="yes"/>
      <point x="30" y="26"/>
      <point x="77" y="39"/>
      <point x="79" y="46" type="qcurve" smooth="yes"/>
      <point x="86" y="75"/>
      <point x="86" y="116" type="qcurve" smooth="yes"/>
      <point x="86" y="549" type="line" smooth="yes"/>
      <point x="86" y="583"/>
      <point x="80" y="613" type="qcurve"/>
      <point x="75" y="629"/>
      <point x="29" y="629" type="qcurve" smooth="yes"/>
      <point x="20" y="629" type="line" smooth="yes"/>
      <point x="14" y="629"/>
      <point x="14" y="640" type="qcurve" smooth="yes"/>
      <point x="14" y="656"/>
      <point x="20" y="656" type="qcurve" smooth="yes"/>
      <point x="50" y="659"/>
      <point x="101" y="669"/>
      <point x="130" y="679"/>
      <point x="150" y="688"/>
      <point x="154" y="691" type="qcurve" smooth="yes"/>
      <point x="159" y="694" type="line"/>
      <point x="161" y="694" type="line" smooth="yes"/>
      <point x="165" y="694"/>
      <point x="173" y="683"/>
      <point x="174" y="678" type="qcurve"/>
      <point x="163" y="646"/>
      <point x="163" y="591" type="qcurve" smooth="yes"/>
      <point x="163" y="241" type="line"/>
      <point x="184" y="246"/>
      <point x="188" y="250" type="qcurve" smooth="yes"/>
      <point x="210" y="269"/>
      <point x="282" y="329"/>
      <point x="304" y="349"/>
      <point x="312" y="361"/>
      <point x="312" y="367" type="qcurve" smooth="yes"/>
      <point x="312" y="379"/>
      <point x="268" y="383"/>
      <point x="267" y="385" type="qcurve" smooth="yes"/>
      <point x="260" y="405"/>
      <point x="268" y="408" type="qcurve"/>
      <point x="347" y="408" type="line" smooth="yes"/>
      <point x="362" y="408"/>
      <point x="395" y="410"/>
      <point x="440" y="412"/>
      <point x="457" y="413" type="qcurve"/>
      <point x="461" y="411"/>
      <point x="462" y="397"/>
      <point x="458" y="385"/>
      <point x="456" y="385" type="qcurve" smooth="yes"/>
      <point x="443" y="385"/>
      <point x="395" y="373"/>
    </contour>
  </outline>
</glyph>
<glyph name="l" format="1">
  <advance width="251"/>
  <unicode hex="006C"/>
  <outline>
    <contour>
      <point x="87" y="116" type="qcurve" smooth="yes"/>
      <point x="87" y="549" type="line" smooth="yes"/>
      <point x="87" y="583"/>
      <point x="81" y="613" type="qcurve"/>
      <point x="76" y="629"/>
      <point x="30" y="629" type="qcurve" smooth="yes"/>
      <point x="21" y="629" type="line" smooth="yes"/>
      <point x="15" y="629"/>
      <point x="15" y="640" type="qcurve" smooth="yes"/>
      <point x="15" y="656"/>
      <point x="21" y="656" type="qcurve" smooth="yes"/>
      <point x="51" y="659"/>
      <point x="102" y="669"/>
      <point x="131" y="679"/>
      <point x="151" y="688"/>
      <point x="156" y="691" type="qcurve" smooth="yes"/>
      <point x="160" y="694" type="line"/>
      <point x="162" y="694" type="line" smooth="yes"/>
      <point x="166" y="694"/>
      <point x="174" y="683"/>
      <point x="175" y="678" type="qcurve"/>
      <point x="164" y="646"/>
      <point x="164" y="591" type="qcurve" smooth="yes"/>
      <point x="164" y="135" type="line" smooth="yes"/>
      <point x="164" y="77"/>
      <point x="172" y="46" type="qcurve" smooth="yes"/>
      <point x="174" y="39"/>
      <point x="222" y="26"/>
      <point x="232" y="26" type="qcurve" smooth="yes"/>
      <point x="235" y="26"/>
      <point x="237" y="2"/>
      <point x="235" y="-3" type="qcurve"/>
      <point x="135" y="2"/>
      <point x="128" y="2" type="qcurve" smooth="yes"/>
      <point x="122" y="2"/>
      <point x="19" y="-3" type="qcurve"/>
      <point x="15" y="1"/>
      <point x="15" y="26"/>
      <point x="19" y="26" type="qcurve" smooth="yes"/>
      <point x="31" y="26"/>
      <point x="78" y="39"/>
      <point x="80" y="46" type="qcurve" smooth="yes"/>
      <point x="87" y="75"/>
    </contour>
  </outline>
</glyph>
<glyph name="m" format="1">
  <advance width="800"/>
  <unicode hex="006D"/>
  <outline>
    <contour>
      <point x="320" y="438" type="qcurve" smooth="yes"/>
      <point x="360" y="438"/>
      <point x="413" y="395"/>
      <point x="423" y="367" type="qcurve"/>
      <point x="498" y="438"/>
      <point x="578" y="438" type="qcurve" smooth="yes"/>
      <point x="704" y="438"/>
      <point x="704" y="246" type="qcurve" smooth="yes"/>
      <point x="704" y="135" type="line" smooth="yes"/>
      <point x="704" y="77"/>
      <point x="712" y="46" type="qcurve" smooth="yes"/>
      <point x="714" y="39"/>
      <point x="762" y="26"/>
      <point x="772" y="26" type="qcurve" smooth="yes"/>
      <point x="775" y="26"/>
      <point x="777" y="2"/>
      <point x="775" y="-3" type="qcurve"/>
      <point x="675" y="2"/>
      <point x="668" y="2" type="qcurve" smooth="yes"/>
      <point x="662" y="2"/>
      <point x="559" y="-3" type="qcurve"/>
      <point x="555" y="1"/>
      <point x="555" y="26"/>
      <point x="559" y="26" type="qcurve" smooth="yes"/>
      <point x="571" y="26"/>
      <point x="618" y="39"/>
      <point x="620" y="46" type="qcurve" smooth="yes"/>
      <point x="627" y="75"/>
      <point x="627" y="110" type="qcurve" smooth="yes"/>
      <point x="627" y="223" type="line" smooth="yes"/>
      <point x="627" y="377"/>
      <point x="526" y="377" type="qcurve" smooth="yes"/>
      <point x="489" y="377"/>
      <point x="435" y="334"/>
      <point x="435" y="320" type="qcurve"/>
      <point x="436" y="316" type="line" smooth="yes"/>
      <point x="436" y="311" type="line" smooth="yes"/>
      <point x="440" y="286"/>
      <point x="440" y="239" type="qcurve" smooth="yes"/>
      <point x="440" y="126" type="line" smooth="yes"/>
      <point x="440" y="77"/>
      <point x="448" y="46" type="qcurve" smooth="yes"/>
      <point x="450" y="39"/>
      <point x="498" y="26"/>
      <point x="508" y="26" type="qcurve" smooth="yes"/>
      <point x="511" y="26"/>
      <point x="513" y="2"/>
      <point x="511" y="-3" type="qcurve"/>
      <point x="411" y="2"/>
      <point x="404" y="2" type="qcurve" smooth="yes"/>
      <point x="398" y="2"/>
      <point x="295" y="-3" type="qcurve"/>
      <point x="291" y="1"/>
      <point x="291" y="26"/>
      <point x="295" y="26" type="qcurve" smooth="yes"/>
      <point x="307" y="26"/>
      <point x="354" y="39"/>
      <point x="356" y="46" type="qcurve" smooth="yes"/>
      <point x="363" y="75"/>
      <point x="363" y="116" type="qcurve" smooth="yes"/>
      <point x="363" y="218" type="line" smooth="yes"/>
      <point x="363" y="377"/>
      <point x="267" y="377" type="qcurve" smooth="yes"/>
      <point x="237" y="377"/>
      <point x="176" y="332"/>
      <point x="176" y="311" type="qcurve" smooth="yes"/>
      <point x="176" y="135" type="line" smooth="yes"/>
      <point x="176" y="77"/>
      <point x="184" y="46" type="qcurve" smooth="yes"/>
      <point x="186" y="39"/>
      <point x="234" y="26"/>
      <point x="244" y="26" type="qcurve" smooth="yes"/>
      <point x="247" y="26"/>
      <point x="249" y="2"/>
      <point x="247" y="-3" type="qcurve"/>
      <point x="147" y="2"/>
      <point x="140" y="2" type="qcurve" smooth="yes"/>
      <point x="134" y="2"/>
      <point x="31" y="-3" type="qcurve"/>
      <point x="27" y="1"/>
      <point x="27" y="26"/>
      <point x="31" y="26" type="qcurve" smooth="yes"/>
      <point x="43" y="26"/>
      <point x="90" y="39"/>
      <point x="92" y="46" type="qcurve" smooth="yes"/>
      <point x="99" y="75"/>
      <point x="99" y="116" type="qcurve" smooth="yes"/>
      <point x="99" y="305" type="line" smooth="yes"/>
      <point x="99" y="344"/>
      <point x="85" y="359" type="qcurve" smooth="yes"/>
      <point x="75" y="371"/>
      <point x="46" y="380"/>
      <point x="27" y="380"/>
      <point x="27" y="382" type="qcurve" smooth="yes"/>
      <point x="27" y="406"/>
      <point x="33" y="407" type="qcurve" smooth="yes"/>
      <point x="139" y="423"/>
      <point x="171" y="433" type="qcurve" smooth="yes"/>
      <point x="172" y="433"/>
      <point x="176" y="434" type="line" smooth="yes"/>
      <point x="180" y="434"/>
      <point x="182" y="417"/>
      <point x="181" y="413" type="qcurve" smooth="yes"/>
      <point x="177" y="385"/>
      <point x="177" y="373" type="qcurve" smooth="yes"/>
      <point x="177" y="369"/>
      <point x="179" y="369" type="qcurve" smooth="yes"/>
      <point x="180" y="369"/>
      <point x="182" y="371" type="qcurve" smooth="yes"/>
      <point x="205" y="395"/>
      <point x="284" y="438"/>
    </contour>
  </outline>
</glyph>
<glyph name="n" format="1">
  <advance width="543"/>
  <unicode hex="006E"/>
  <outline>
    <contour>
      <point x="322" y="438" type="qcurve" smooth="yes"/>
      <point x="392" y="438"/>
      <point x="448" y="338"/>
      <point x="448" y="226" type="qcurve" smooth="yes"/>
      <point x="448" y="135" type="line" smooth="yes"/>
      <point x="448" y="77"/>
      <point x="456" y="46" type="qcurve" smooth="yes"/>
      <point x="458" y="39"/>
      <point x="506" y="26"/>
      <point x="516" y="26" type="qcurve" smooth="yes"/>
      <point x="519" y="26"/>
      <point x="521" y="2"/>
      <point x="519" y="-3" type="qcurve"/>
      <point x="419" y="2"/>
      <point x="412" y="2" type="qcurve" smooth="yes"/>
      <point x="410" y="2"/>
      <point x="307" y="-3" type="qcurve"/>
      <point x="303" y="1"/>
      <point x="303" y="26"/>
      <point x="307" y="26" type="qcurve" smooth="yes"/>
      <point x="319" y="26"/>
      <point x="362" y="39"/>
      <point x="364" y="46" type="qcurve" smooth="yes"/>
      <point x="371" y="75"/>
      <point x="371" y="116" type="qcurve" smooth="yes"/>
      <point x="371" y="216" type="line" smooth="yes"/>
      <point x="371" y="309"/>
      <point x="323" y="377"/>
      <point x="269" y="377" type="qcurve" smooth="yes"/>
      <point x="237" y="377"/>
      <point x="178" y="330"/>
      <point x="178" y="311" type="qcurve" smooth="yes"/>
      <point x="178" y="135" type="line" smooth="yes"/>
      <point x="178" y="77"/>
      <point x="186" y="46" type="qcurve" smooth="yes"/>
      <point x="188" y="39"/>
      <point x="236" y="26"/>
      <point x="246" y="26" type="qcurve" smooth="yes"/>
      <point x="249" y="26"/>
      <point x="251" y="2"/>
      <point x="249" y="-3" type="qcurve"/>
      <point x="149" y="2"/>
      <point x="142" y="2" type="qcurve" smooth="yes"/>
      <point x="136" y="2"/>
      <point x="33" y="-3" type="qcurve"/>
      <point x="29" y="1"/>
      <point x="29" y="26"/>
      <point x="33" y="26" type="qcurve" smooth="yes"/>
      <point x="45" y="26"/>
      <point x="92" y="39"/>
      <point x="94" y="46" type="qcurve" smooth="yes"/>
      <point x="101" y="75"/>
      <point x="101" y="116" type="qcurve" smooth="yes"/>
      <point x="101" y="305" type="line" smooth="yes"/>
      <point x="101" y="344"/>
      <point x="87" y="359" type="qcurve" smooth="yes"/>
      <point x="77" y="371"/>
      <point x="48" y="380"/>
      <point x="29" y="380"/>
      <point x="29" y="382" type="qcurve" smooth="yes"/>
      <point x="29" y="406"/>
      <point x="35" y="407" type="qcurve" smooth="yes"/>
      <point x="141" y="423"/>
      <point x="173" y="433" type="qcurve" smooth="yes"/>
      <point x="174" y="433"/>
      <point x="178" y="434" type="line" smooth="yes"/>
      <point x="182" y="434"/>
      <point x="184" y="417"/>
      <point x="183" y="413" type="qcurve" smooth="yes"/>
      <point x="179" y="385"/>
      <point x="179" y="373" type="qcurve" smooth="yes"/>
      <point x="179" y="369"/>
      <point x="181" y="369" type="qcurve" smooth="yes"/>
      <point x="182" y="369"/>
      <point x="184" y="371" type="qcurve" smooth="yes"/>
      <point x="207" y="395"/>
      <point x="286" y="438"/>
    </contour>
  </outline>
</glyph>
<glyph name="o" format="1">
  <advance width="510"/>
  <unicode hex="006F"/>
  <outline>
    <contour>
      <point x="243" y="398" type="qcurve" smooth="yes"/>
      <point x="190" y="398"/>
      <point x="123" y="301"/>
      <point x="123" y="231" type="qcurve" smooth="yes"/>
      <point x="123" y="149"/>
      <point x="208" y="32"/>
      <point x="265" y="32" type="qcurve" smooth="yes"/>
      <point x="318" y="32"/>
      <point x="386" y="132"/>
      <point x="386" y="202" type="qcurve" smooth="yes"/>
      <point x="386" y="283"/>
      <point x="300" y="398"/>
    </contour>
    <contour>
      <point x="254" y="437" type="qcurve" smooth="yes"/>
      <point x="344" y="437"/>
      <point x="472" y="307"/>
      <point x="472" y="216" type="qcurve" smooth="yes"/>
      <point x="472" y="124"/>
      <point x="347" y="-7"/>
      <point x="165" y="-7"/>
      <point x="37" y="124"/>
      <point x="37" y="216" type="qcurve" smooth="yes"/>
      <point x="37" y="309"/>
      <point x="161" y="437"/>
    </contour>
  </outline>
</glyph>
<glyph name="p" format="1">
  <advance width="511"/>
  <unicode hex="0070"/>
  <outline>
    <contour>
      <point x="269" y="436" type="qcurve" smooth="yes"/>
      <point x="365" y="436"/>
      <point x="473" y="307"/>
      <point x="473" y="234" type="qcurve" smooth="yes"/>
      <point x="473" y="138"/>
      <point x="339" y="-8"/>
      <point x="254" y="-8" type="qcurve" smooth="yes"/>
      <point x="239" y="-8"/>
      <point x="216" y="-6"/>
      <point x="198" y="-1"/>
      <point x="188" y="3"/>
      <point x="172" y="10"/>
      <point x="170" y="11" type="qcurve"/>
      <point x="166" y="6"/>
      <point x="166" y="-2" type="qcurve" smooth="yes"/>
      <point x="166" y="-88" type="line" smooth="yes"/>
      <point x="166" y="-146"/>
      <point x="174" y="-177" type="qcurve" smooth="yes"/>
      <point x="176" y="-184"/>
      <point x="224" y="-197"/>
      <point x="234" y="-197" type="qcurve" smooth="yes"/>
      <point x="237" y="-197"/>
      <point x="239" y="-222"/>
      <point x="237" y="-226" type="qcurve"/>
      <point x="137" y="-221"/>
      <point x="130" y="-221" type="qcurve" smooth="yes"/>
      <point x="124" y="-221"/>
      <point x="21" y="-226" type="qcurve"/>
      <point x="17" y="-222"/>
      <point x="17" y="-197"/>
      <point x="21" y="-197" type="qcurve" smooth="yes"/>
      <point x="33" y="-197"/>
      <point x="80" y="-184"/>
      <point x="82" y="-177" type="qcurve" smooth="yes"/>
      <point x="89" y="-148"/>
      <point x="89" y="-107" type="qcurve" smooth="yes"/>
      <point x="89" y="306" type="line" smooth="yes"/>
      <point x="89" y="345"/>
      <point x="75" y="360" type="qcurve" smooth="yes"/>
      <point x="65" y="372"/>
      <point x="36" y="381"/>
      <point x="17" y="381"/>
      <point x="17" y="383" type="qcurve" smooth="yes"/>
      <point x="17" y="407"/>
      <point x="23" y="408" type="qcurve" smooth="yes"/>
      <point x="129" y="424"/>
      <point x="161" y="434" type="qcurve" smooth="yes"/>
      <point x="162" y="434"/>
      <point x="166" y="435" type="line" smooth="yes"/>
      <point x="169" y="435"/>
      <point x="169" y="424"/>
      <point x="167" y="408"/>
      <point x="167" y="407" type="qcurve" smooth="yes"/>
      <point x="167" y="401" type="line"/>
      <point x="181" y="411"/>
      <point x="246" y="436"/>
    </contour>
    <contour>
      <point x="237" y="387" type="qcurve" smooth="yes"/>
      <point x="206" y="387"/>
      <point x="166" y="354"/>
      <point x="166" y="323" type="qcurve" smooth="yes"/>
      <point x="166" y="98" type="line" smooth="yes"/>
      <point x="166" y="71"/>
      <point x="224" y="34"/>
      <point x="258" y="34" type="qcurve" smooth="yes"/>
      <point x="317" y="34"/>
      <point x="387" y="140"/>
      <point x="387" y="206" type="qcurve" smooth="yes"/>
      <point x="387" y="290"/>
      <point x="298" y="387"/>
    </contour>
  </outline>
</glyph>
<glyph name="q" format="1">
  <advance width="489"/>
  <unicode hex="0071"/>
  <outline>
    <contour>
      <point x="265" y="440" type="qcurve" smooth="yes"/>
      <point x="302" y="440"/>
      <point x="372" y="429"/>
      <point x="377" y="429" type="qcurve" smooth="yes"/>
      <point x="386" y="429"/>
      <point x="413" y="437"/>
      <point x="415" y="437" type="qcurve" smooth="yes"/>
      <point x="418" y="437"/>
      <point x="436" y="431"/>
      <point x="436" y="427" type="qcurve" smooth="yes"/>
      <point x="436" y="426"/>
      <point x="428" y="392"/>
      <point x="420" y="330"/>
      <point x="420" y="293" type="qcurve" smooth="yes"/>
      <point x="420" y="-101" type="line" smooth="yes"/>
      <point x="420" y="-147"/>
      <point x="428" y="-178" type="qcurve" smooth="yes"/>
      <point x="430" y="-185"/>
      <point x="478" y="-198"/>
      <point x="488" y="-198" type="qcurve" smooth="yes"/>
      <point x="491" y="-198"/>
      <point x="493" y="-222"/>
      <point x="491" y="-227" type="qcurve"/>
      <point x="391" y="-222"/>
      <point x="384" y="-222" type="qcurve" smooth="yes"/>
      <point x="378" y="-222"/>
      <point x="275" y="-227" type="qcurve"/>
      <point x="271" y="-223"/>
      <point x="271" y="-198"/>
      <point x="275" y="-198" type="qcurve" smooth="yes"/>
      <point x="287" y="-198"/>
      <point x="334" y="-185"/>
      <point x="336" y="-178" type="qcurve" smooth="yes"/>
      <point x="343" y="-149"/>
      <point x="343" y="-108" type="qcurve" smooth="yes"/>
      <point x="343" y="16" type="line" smooth="yes"/>
      <point x="343" y="21"/>
      <point x="340" y="28"/>
      <point x="336" y="26" type="qcurve" smooth="yes"/>
      <point x="276" y="-4"/>
      <point x="240" y="-4" type="qcurve" smooth="yes"/>
      <point x="153" y="-4"/>
      <point x="38" y="122"/>
      <point x="38" y="203" type="qcurve" smooth="yes"/>
      <point x="38" y="291"/>
      <point x="175" y="440"/>
    </contour>
    <contour>
      <point x="248" y="398" type="qcurve" smooth="yes"/>
      <point x="204" y="398"/>
      <point x="145" y="336"/>
      <point x="124" y="263"/>
      <point x="124" y="226" type="qcurve" smooth="yes"/>
      <point x="124" y="137"/>
      <point x="212" y="45"/>
      <point x="275" y="45" type="qcurve" smooth="yes"/>
      <point x="298" y="45"/>
      <point x="343" y="72"/>
      <point x="343" y="105" type="qcurve" smooth="yes"/>
      <point x="343" y="337" type="line" smooth="yes"/>
      <point x="343" y="364"/>
      <point x="293" y="398"/>
    </contour>
  </outline>
</glyph>
<glyph name="r" format="1">
  <advance width="380"/>
  <unicode hex="0072"/>
  <outline>
    <contour>
      <point x="293" y="437" type="qcurve" smooth="yes"/>
      <point x="352" y="437"/>
      <point x="371" y="408" type="qcurve"/>
      <point x="371" y="373"/>
      <point x="349" y="341"/>
      <point x="333" y="341" type="qcurve" smooth="yes"/>
      <point x="315" y="341"/>
      <point x="285" y="375"/>
      <point x="259" y="375" type="qcurve" smooth="yes"/>
      <point x="228" y="375"/>
      <point x="182" y="317"/>
      <point x="182" y="285" type="qcurve" smooth="yes"/>
      <point x="182" y="135" type="line" smooth="yes"/>
      <point x="182" y="77"/>
      <point x="190" y="46" type="qcurve" smooth="yes"/>
      <point x="192" y="39"/>
      <point x="241" y="26"/>
      <point x="251" y="26" type="qcurve" smooth="yes"/>
      <point x="254" y="26"/>
      <point x="256" y="2"/>
      <point x="254" y="-3" type="qcurve"/>
      <point x="154" y="2"/>
      <point x="146" y="2" type="qcurve" smooth="yes"/>
      <point x="140" y="2"/>
      <point x="37" y="-3" type="qcurve"/>
      <point x="33" y="1"/>
      <point x="33" y="26"/>
      <point x="37" y="26" type="qcurve" smooth="yes"/>
      <point x="49" y="26"/>
      <point x="96" y="39"/>
      <point x="98" y="46" type="qcurve" smooth="yes"/>
      <point x="105" y="75"/>
      <point x="105" y="116" type="qcurve" smooth="yes"/>
      <point x="105" y="305" type="line" smooth="yes"/>
      <point x="105" y="344"/>
      <point x="91" y="359" type="qcurve" smooth="yes"/>
      <point x="81" y="371"/>
      <point x="52" y="380"/>
      <point x="33" y="380"/>
      <point x="33" y="382" type="qcurve" smooth="yes"/>
      <point x="33" y="406"/>
      <point x="39" y="407" type="qcurve" smooth="yes"/>
      <point x="145" y="423"/>
      <point x="177" y="433" type="qcurve" smooth="yes"/>
      <point x="178" y="433"/>
      <point x="182" y="434" type="line" smooth="yes"/>
      <point x="186" y="434"/>
      <point x="188" y="417"/>
      <point x="187" y="413" type="qcurve" smooth="yes"/>
      <point x="181" y="363" type="line"/>
      <point x="199" y="390"/>
      <point x="262" y="437"/>
    </contour>
  </outline>
</glyph>
<glyph name="s" format="1">
  <advance width="359"/>
  <unicode hex="0073"/>
  <outline>
    <contour>
      <point x="191" y="437" type="qcurve" smooth="yes"/>
      <point x="213" y="437"/>
      <point x="280" y="426"/>
      <point x="293" y="424" type="qcurve"/>
      <point x="303" y="378"/>
      <point x="305" y="322" type="qcurve" smooth="yes"/>
      <point x="305" y="317"/>
      <point x="292" y="317" type="qcurve" smooth="yes"/>
      <point x="278" y="317"/>
      <point x="277" y="324" type="qcurve" smooth="yes"/>
      <point x="272" y="352"/>
      <point x="225" y="402"/>
      <point x="195" y="402" type="qcurve" smooth="yes"/>
      <point x="123" y="402"/>
      <point x="123" y="343" type="qcurve" smooth="yes"/>
      <point x="123" y="328"/>
      <point x="131" y="305"/>
      <point x="154" y="284"/>
      <point x="166" y="275"/>
      <point x="207" y="252"/>
      <point x="212" y="249" type="qcurve" smooth="yes"/>
      <point x="216" y="247"/>
      <point x="255" y="224"/>
      <point x="271" y="214"/>
      <point x="302" y="190"/>
      <point x="316" y="171"/>
      <point x="329" y="142"/>
      <point x="329" y="127" type="qcurve" smooth="yes"/>
      <point x="329" y="68"/>
      <point x="237" y="-11"/>
      <point x="175" y="-11" type="qcurve" smooth="yes"/>
      <point x="154" y="-11"/>
      <point x="119" y="-6"/>
      <point x="71" y="6"/>
      <point x="58" y="8" type="qcurve"/>
      <point x="52" y="24"/>
      <point x="41" y="92"/>
      <point x="41" y="112" type="qcurve"/>
      <point x="49" y="118"/>
      <point x="53" y="118" type="qcurve" smooth="yes"/>
      <point x="68" y="118"/>
      <point x="69" y="112" type="qcurve" smooth="yes"/>
      <point x="75" y="82"/>
      <point x="138" y="25"/>
      <point x="175" y="25" type="qcurve" smooth="yes"/>
      <point x="207" y="25"/>
      <point x="248" y="60"/>
      <point x="248" y="93" type="qcurve" smooth="yes"/>
      <point x="248" y="110"/>
      <point x="235" y="139"/>
      <point x="206" y="162"/>
      <point x="181" y="177"/>
      <point x="135" y="201"/>
      <point x="124" y="208" type="qcurve" smooth="yes"/>
      <point x="46" y="253"/>
      <point x="46" y="315" type="qcurve" smooth="yes"/>
      <point x="46" y="369"/>
      <point x="133" y="437"/>
    </contour>
  </outline>
</glyph>
<glyph name="t" format="1">
  <advance width="314"/>
  <unicode hex="0074"/>
  <outline>
    <contour>
      <point x="80" y="374" type="line"/>
      <point x="22" y="374" type="line" smooth="yes"/>
      <point x="17" y="374"/>
      <point x="17" y="395" type="qcurve" smooth="yes"/>
      <point x="17" y="401"/>
      <point x="18" y="402" type="qcurve" smooth="yes"/>
      <point x="47" y="415"/>
      <point x="81" y="455" type="qcurve" smooth="yes"/>
      <point x="92" y="468"/>
      <point x="113" y="501"/>
      <point x="127" y="525"/>
      <point x="127" y="526" type="qcurve"/>
      <point x="157" y="526"/>
      <point x="157" y="521" type="qcurve" smooth="yes"/>
      <point x="157" y="422" type="line"/>
      <point x="183" y="422"/>
      <point x="289" y="421"/>
      <point x="292" y="421" type="qcurve" smooth="yes"/>
      <point x="300" y="421"/>
      <point x="300" y="412" type="qcurve" smooth="yes"/>
      <point x="300" y="394"/>
      <point x="290" y="374" type="qcurve"/>
      <point x="157" y="374" type="line"/>
      <point x="157" y="129" type="line" smooth="yes"/>
      <point x="157" y="89"/>
      <point x="198" y="41"/>
      <point x="231" y="41" type="qcurve" smooth="yes"/>
      <point x="261" y="41"/>
      <point x="293" y="60" type="qcurve" smooth="yes"/>
      <point x="296" y="62"/>
      <point x="308" y="41"/>
      <point x="307" y="40" type="qcurve" smooth="yes"/>
      <point x="292" y="24"/>
      <point x="230" y="-7"/>
      <point x="197" y="-7" type="qcurve" smooth="yes"/>
      <point x="147" y="-7"/>
      <point x="80" y="59"/>
      <point x="80" y="120" type="qcurve" smooth="yes"/>
    </contour>
  </outline>
</glyph>
<glyph name="u" format="1">
  <advance width="517"/>
  <unicode hex="0075"/>
  <outline>
    <contour>
      <point x="435" y="341" type="qcurve" smooth="yes"/>
      <point x="435" y="141" type="line" smooth="yes"/>
      <point x="435" y="98"/>
      <point x="442" y="65" type="qcurve" smooth="yes"/>
      <point x="444" y="58"/>
      <point x="462" y="50"/>
      <point x="482" y="48"/>
      <point x="492" y="48" type="qcurve"/>
      <point x="501" y="47" type="line" smooth="yes"/>
      <point x="504" y="46"/>
      <point x="504" y="36" type="qcurve" smooth="yes"/>
      <point x="504" y="33"/>
      <point x="499" y="20"/>
      <point x="496" y="20" type="qcurve" smooth="yes"/>
      <point x="481" y="19"/>
      <point x="444" y="13"/>
      <point x="412" y="5"/>
      <point x="384" y="-3"/>
      <point x="376" y="-6" type="qcurve"/>
      <point x="367" y="-8" type="line"/>
      <point x="359" y="-8"/>
      <point x="359" y="8" type="qcurve" smooth="yes"/>
      <point x="359" y="59" type="line"/>
      <point x="357" y="64" type="line"/>
      <point x="291" y="-7"/>
      <point x="226" y="-7" type="qcurve" smooth="yes"/>
      <point x="189" y="-7"/>
      <point x="136" y="30"/>
      <point x="111" y="91"/>
      <point x="101" y="148"/>
      <point x="101" y="179" type="qcurve" smooth="yes"/>
      <point x="101" y="305" type="line" smooth="yes"/>
      <point x="101" y="344"/>
      <point x="87" y="359" type="qcurve" smooth="yes"/>
      <point x="77" y="371"/>
      <point x="48" y="380"/>
      <point x="29" y="380"/>
      <point x="29" y="382" type="qcurve" smooth="yes"/>
      <point x="29" y="406"/>
      <point x="35" y="407" type="qcurve" smooth="yes"/>
      <point x="141" y="423"/>
      <point x="173" y="433" type="qcurve" smooth="yes"/>
      <point x="174" y="433"/>
      <point x="178" y="434" type="line" smooth="yes"/>
      <point x="182" y="434"/>
      <point x="184" y="417"/>
      <point x="183" y="413" type="qcurve" smooth="yes"/>
      <point x="177" y="365"/>
      <point x="177" y="339" type="qcurve" smooth="yes"/>
      <point x="177" y="204" type="line" smooth="yes"/>
      <point x="177" y="127"/>
      <point x="223" y="54"/>
      <point x="275" y="54" type="qcurve" smooth="yes"/>
      <point x="305" y="54"/>
      <point x="359" y="101"/>
      <point x="359" y="118" type="qcurve" smooth="yes"/>
      <point x="359" y="305" type="line" smooth="yes"/>
      <point x="359" y="344"/>
      <point x="345" y="359" type="qcurve" smooth="yes"/>
      <point x="335" y="371"/>
      <point x="306" y="380"/>
      <point x="287" y="380"/>
      <point x="287" y="382" type="qcurve" smooth="yes"/>
      <point x="287" y="406"/>
      <point x="293" y="407" type="qcurve" smooth="yes"/>
      <point x="399" y="423"/>
      <point x="431" y="433" type="qcurve" smooth="yes"/>
      <point x="432" y="433"/>
      <point x="436" y="434" type="line" smooth="yes"/>
      <point x="440" y="434"/>
      <point x="442" y="417"/>
      <point x="441" y="413" type="qcurve" smooth="yes"/>
      <point x="435" y="365"/>
    </contour>
  </outline>
</glyph>
<glyph name="v" format="1">
  <advance width="493"/>
  <unicode hex="0076"/>
  <outline>
    <contour>
      <point x="383" y="373" type="qcurve" smooth="yes"/>
      <point x="383" y="405"/>
      <point x="311" y="405" type="qcurve" smooth="yes"/>
      <point x="307" y="405"/>
      <point x="307" y="430"/>
      <point x="311" y="434" type="qcurve"/>
      <point x="322" y="433"/>
      <point x="382" y="429"/>
      <point x="406" y="429" type="qcurve"/>
      <point x="506" y="434" type="line"/>
      <point x="508" y="428"/>
      <point x="508" y="419" type="qcurve" smooth="yes"/>
      <point x="508" y="405"/>
      <point x="501" y="405" type="qcurve" smooth="yes"/>
      <point x="487" y="405"/>
      <point x="441" y="389"/>
      <point x="433" y="371" type="qcurve" smooth="yes"/>
      <point x="274" y="12" type="line"/>
      <point x="272" y="5"/>
      <point x="252" y="-11"/>
      <point x="238" y="-11"/>
      <point x="236" y="-7" type="qcurve" smooth="yes"/>
      <point x="219" y="30"/>
      <point x="104" y="300"/>
      <point x="61" y="385" type="qcurve" smooth="yes"/>
      <point x="51" y="405"/>
      <point x="2" y="405" type="qcurve" smooth="yes"/>
      <point x="-2" y="405"/>
      <point x="-2" y="418" type="qcurve" smooth="yes"/>
      <point x="-2" y="430"/>
      <point x="2" y="434" type="qcurve"/>
      <point x="105" y="429"/>
      <point x="106" y="429" type="qcurve" smooth="yes"/>
      <point x="206" y="434" type="line"/>
      <point x="208" y="430"/>
      <point x="205" y="405"/>
      <point x="202" y="405" type="qcurve" smooth="yes"/>
      <point x="153" y="405"/>
      <point x="153" y="388" type="qcurve" smooth="yes"/>
      <point x="153" y="386"/>
      <point x="154" y="384" type="qcurve" smooth="yes"/>
      <point x="274" y="113" type="line"/>
      <point x="375" y="343" type="line" smooth="yes"/>
      <point x="383" y="362"/>
    </contour>
  </outline>
</glyph>
